<?xml version="1.0" standalone="no"?>
<!DOCTYPE svg PUBLIC "-//W3C//DTD SVG 1.1//EN" "http://www.w3.org/Graphics/SVG/1.1/DTD/svg11.dtd" >
<svg xmlns="http://www.w3.org/2000/svg">
<metadata></metadata>
<defs>
<font id="preto_sans_regularitalic" horiz-adv-x="1007" >
<font-face units-per-em="2048" ascent="1536" descent="-512" />
<missing-glyph horiz-adv-x="448" />
<glyph unicode="&#xfb01;" horiz-adv-x="1040" d="M63 868l58 133h139l14 144q21 199 105 288t223 89q75 0 131 -23l-14 -131q-79 25 -144 25q-63 0 -90.5 -42.5t-38.5 -150.5l-20 -199h223l-18 -133h-219l-129 -1269l-168 -29l131 1298h-183zM692 0l103 995l172 21l-105 -1016h-170zM797 1311q0 54 32.5 88.5t92.5 34.5 q51 0 79.5 -32t28.5 -75q0 -57 -32 -89t-93 -32q-53 0 -80.5 29t-27.5 76z" />
<glyph unicode="&#xfb02;" horiz-adv-x="1050" d="M63 868l58 133h139l14 144q21 201 112.5 289t254.5 88q108 0 213 -31v2l174 20l-156 -1513h-170l140 1374q-130 31 -207 31q-103 0 -141 -55t-52 -201l-14 -148h221l-18 -133h-219l-129 -1269l-168 -29l131 1298h-183z" />
<glyph horiz-adv-x="448" />
<glyph horiz-adv-x="448" />
<glyph horiz-adv-x="682" />
<glyph unicode="&#xd;" horiz-adv-x="448" />
<glyph unicode=" "  horiz-adv-x="448" />
<glyph unicode="&#x09;" horiz-adv-x="448" />
<glyph unicode="&#xa0;" horiz-adv-x="448" />
<glyph unicode="!" horiz-adv-x="589" d="M154 88q0 56 34 91.5t95 35.5q53 0 82.5 -32.5t29.5 -78.5q0 -58 -33.5 -91t-95.5 -33q-55 0 -83.5 30t-28.5 78zM227 362l90 977l201 23l-143 -1000h-148z" />
<glyph unicode="&#x22;" horiz-adv-x="761" d="M217 981l55 528l170 21l-98 -549h-127zM532 981l56 528l170 21l-96 -549h-130z" />
<glyph unicode="#" horiz-adv-x="1177" d="M27 344l14 129h203l137 397h-219l14 129h250l121 351h149l-121 -351h310l121 351h151l-121 -351h209l-51 -129h-203l-137 -397h266l-51 -129h-258l-117 -338l-159 -20l122 358h-309l-117 -338l-155 -20l123 358h-172zM393 473h309l138 397h-310z" />
<glyph unicode="$" horiz-adv-x="1077" d="M59 63v150q72 -46 181 -71.5t209 -30.5l53 507q-42 29 -70 49.5t-65.5 51.5t-61 56.5t-48.5 60.5t-38 68.5t-19 75t-1 85.5q14 123 112 206t271 101l22 217h129l-22 -211q212 -10 358 -90l-31 -170q-75 38 -109.5 54.5t-101.5 37.5t-131 27l-55 -512q145 -97 200 -149 q142 -131 124 -288l-2 -16q-21 -129 -116 -205t-284 -90l-20 -204l-131 -21l22 221q-252 8 -375 90zM356 1065q-10 -77 34 -141.5t130 -128.5l47 442q-92 -9 -147 -52.5t-64 -119.5zM578 115q189 22 215 133q22 87 -25 159.5t-145 141.5z" />
<glyph unicode="%" horiz-adv-x="1425" d="M121 47l1098 1303h186l-1176 -1395zM127 1038q20 160 102 243t215 83q277 0 236 -326q-19 -164 -96 -245.5t-222 -81.5q-141 0 -198 86t-37 241zM262 1038q-16 -126 11.5 -174.5t99.5 -48.5q79 0 117.5 54.5t54.5 168.5q16 126 -12.5 174t-100.5 48q-81 0 -118.5 -53 t-51.5 -169zM811 315q20 160 102 243t215 83q277 0 236 -326q-19 -164 -95.5 -245.5t-221.5 -81.5q-142 0 -199 86t-37 241zM946 315q-16 -126 11.5 -174.5t99.5 -48.5q79 0 117.5 54.5t54.5 168.5q16 126 -12.5 174t-100.5 48q-81 0 -118.5 -53t-51.5 -169z" />
<glyph unicode="&#x26;" horiz-adv-x="1425" d="M137 719q43 319 202 489t382 170q146 0 237.5 -84.5t73.5 -226.5q-32 -258 -344 -344l225 6h533l-51 -137h-209q-86 -292 -262.5 -455.5t-401.5 -163.5q-87 0 -154.5 22t-112 60t-74.5 94.5t-44.5 118.5t-18 140t1.5 151.5t17 159.5zM317 754q-30 -218 -24.5 -360.5 t61 -212.5t170.5 -70q165 0 294.5 128.5t187.5 352.5h-506l14 137q188 81 262 147.5t92 182.5q26 182 -182 182q-132 0 -234.5 -124t-134.5 -363z" />
<glyph unicode="'" horiz-adv-x="448" d="M217 981l55 528l172 21l-98 -549h-129z" />
<glyph unicode="(" horiz-adv-x="628" d="M154 567q16 149 40.5 271.5t69.5 244.5t107 214.5t154.5 167.5t209.5 118l43 -135q-71 -34 -129.5 -81t-100.5 -98.5t-76 -119t-55.5 -130.5t-38.5 -144.5t-27 -149.5t-19 -158t-14 -157.5t-5 -149.5t8 -144.5t27.5 -129.5t50.5 -119t80 -99t113 -81l-70 -133 q-452 213 -368 1013z" />
<glyph unicode=")" horiz-adv-x="628" d="M-117 -311q71 34 129.5 81t101 98.5t76 118.5t55.5 130t39 144.5t27 150t19 157.5q9 90 14 157.5t5 149.5t-8 144.5t-27.5 130t-50.5 119t-80 99t-113 81.5l69 133q453 -213 369 -1014q-16 -149 -41 -271.5t-70 -244t-107 -214t-154.5 -167.5t-209.5 -118z" />
<glyph unicode="*" horiz-adv-x="917" d="M168 1163q5 24 17.5 78t17.5 82l289 -111l18 299q28 3 86 11.5t88 11.5l-74 -317l295 100l51 -143l-315 -66l190 -215l-116 -125l-178 274l-195 -262l-141 68l235 254zM537 1120h2l-2 4v-4z" />
<glyph unicode="+" d="M109 604l14 146h348l39 368h152l-39 -368h370l-51 -146h-336l-37 -354l-153 -19l39 373h-346z" />
<glyph unicode="," horiz-adv-x="464" d="M-72 -344l222 541h184l-252 -541h-154z" />
<glyph unicode="-" horiz-adv-x="608" d="M106 455l15 143h461l-54 -143h-422z" />
<glyph unicode="." horiz-adv-x="464" d="M86 94q0 59 36 97t101 38q56 0 87.5 -34.5t31.5 -81.5q0 -63 -35 -98t-102 -35q-58 0 -88.5 31t-30.5 83z" />
<glyph unicode="/" horiz-adv-x="778" d="M-45 -96l809 1566h172l-846 -1632z" />
<glyph unicode="0" horiz-adv-x="1175" d="M131 676q35 346 177.5 524t385.5 178q129 0 218.5 -48.5t136 -139t61.5 -220.5t-4 -294q-34 -351 -171 -527t-390 -176q-131 0 -221.5 49t-137 140t-61 221t5.5 293zM317 676q-25 -210 -3.5 -336.5t80 -180t163.5 -53.5q88 0 152 38.5t105 116t65 177t39 238.5 q25 210 3 336t-80.5 179.5t-164.5 53.5q-73 0 -129 -26t-94 -71.5t-65 -119t-43 -156.5t-28 -196z" />
<glyph unicode="1" horiz-adv-x="751" d="M76 1171l450 172l162 19l-141 -1362h-170l119 1188l-414 -152z" />
<glyph unicode="2" horiz-adv-x="989" d="M-4 0l22 109q31 65 70.5 125t73 102.5t87.5 96t86.5 83t98.5 86.5t98 86q52 48 79.5 74t62.5 65t51.5 68.5t29.5 67.5t15 79q5 96 -49 148.5t-174 52.5q-88 0 -185 -31.5t-151 -72.5l-29 141q77 50 184.5 74t217.5 24q196 0 287 -91t83 -247q-4 -67 -30 -130t-75 -123 t-97.5 -107t-120.5 -107q-19 -16 -70.5 -57t-77.5 -63t-71 -63.5t-74 -74.5t-62 -78.5t-57 -91.5h680l-45 -145h-858z" />
<glyph unicode="3" horiz-adv-x="1073" d="M61 57v158q69 -47 172.5 -76.5t202.5 -29.5q157 0 235.5 59.5t90.5 175.5q6 56 -2 96.5t-36.5 75.5t-82.5 56.5t-143 33.5t-215 12l32 132q112 0 194.5 12.5t134.5 33.5t85 56t47.5 74t20.5 92q12 114 -49 169.5t-177 55.5q-165 0 -319 -90l-25 135q71 43 166.5 66.5 t194.5 23.5q193 0 297.5 -92.5t89.5 -259.5q-9 -92 -65.5 -177.5t-174.5 -133.5q-33 -15 -98 -23q49 -2 90 -16q233 -71 223 -318q-9 -184 -152.5 -284.5t-377.5 -100.5q-104 0 -203.5 20.5t-155.5 63.5z" />
<glyph unicode="4" horiz-adv-x="1081" d="M6 358l27 115l717 870l168 19l-89 -862h240l-51 -142h-203l-37 -358h-170l37 358h-639zM211 496l68 4h380l52 495l20 142l-84 -117l-362 -442z" />
<glyph unicode="5" horiz-adv-x="1003" d="M70 47v152q61 -43 154 -66.5t190 -23.5q91 0 155.5 19.5t100 57t52.5 80t23 99.5q13 133 -65.5 201.5t-284.5 68.5q-89 0 -221 -10l76 725h762l-49 -146h-562l-43 -448q73 8 129 8q108 0 190.5 -23.5t131 -61t77.5 -90t37.5 -105t4.5 -111.5q-12 -186 -146.5 -293 t-382.5 -107q-222 0 -329 74z" />
<glyph unicode="6" horiz-adv-x="1116" d="M129 627q39 383 195 567t426 184q99 0 187 -20.5t144 -54.5l-22 -162q-176 102 -334 102q-183 0 -275 -124t-133 -406q55 55 143.5 86.5t194.5 31.5q63 0 118.5 -13t107 -44.5t86.5 -80t51 -124.5t6 -172q-19 -189 -151.5 -306.5t-344.5 -117.5q-107 0 -186 32.5t-124 91 t-70.5 140t-26.5 180t8 210.5zM305 608q-30 -276 24.5 -391t209.5 -115q272 0 303 314q8 82 -8.5 138.5t-55.5 86t-85 41.5t-107 12q-151 0 -281 -80v-6z" />
<glyph unicode="7" horiz-adv-x="880" d="M80 1204l49 146h850l-23 -119l-675 -1231h-189l682 1204h-694z" />
<glyph unicode="8" horiz-adv-x="1153" d="M88 342q10 126 104 214.5t226 129.5q-109 58 -160 140t-41 206q5 64 36.5 124.5t87.5 110.5t144 80.5t195 30.5q98 0 173.5 -22t121 -57t73 -82.5t36.5 -94.5t6 -96q-8 -115 -79 -205.5t-204 -136.5q134 -63 191 -146t51 -204q-9 -168 -150 -264.5t-371 -96.5 q-235 0 -344.5 99.5t-95.5 269.5zM266 360q-12 -127 58.5 -194.5t218.5 -67.5q142 0 229.5 60t97.5 174q5 52 -12.5 94.5t-34 66.5t-75 55t-80 39.5t-105.5 38.5q-2 1 -3.5 2t-4 1.5t-4.5 1.5q-26 7 -39 14q-111 -48 -174 -123t-72 -162zM381 1026q-9 -103 57 -167.5 t209 -110.5l55 -21q193 106 213 279q13 124 -53.5 185.5t-195.5 61.5q-126 0 -200.5 -56.5t-84.5 -170.5z" />
<glyph unicode="9" horiz-adv-x="1116" d="M102 53v152q54 -39 156 -67.5t199 -28.5q173 0 266 124t133 402q-55 -53 -145.5 -83t-192.5 -30q-81 0 -148 23.5t-118.5 72t-76 131.5t-13.5 193q19 191 149.5 313.5t329.5 122.5q108 0 187 -31t125.5 -88t73 -136.5t29 -176t-6.5 -207.5q-37 -393 -183.5 -579.5 t-427.5 -186.5q-103 0 -193.5 21t-142.5 59zM342 948q-7 -85 7 -143.5t48 -90t78 -44.5t105 -13q164 0 288 80q0 1 1 3t1 3q29 275 -27.5 389.5t-215.5 114.5q-140 0 -207 -78t-78 -221z" />
<glyph unicode=":" horiz-adv-x="464" d="M86 94q0 59 36 97t101 38q56 0 87.5 -34.5t31.5 -81.5q0 -63 -35 -98t-102 -35q-58 0 -88.5 31t-30.5 83zM170 899q0 59 36 97t101 38q56 0 87.5 -34.5t31.5 -81.5q0 -63 -35.5 -98.5t-101.5 -35.5q-58 0 -88.5 31.5t-30.5 83.5z" />
<glyph unicode=";" horiz-adv-x="464" d="M-72 -344l222 541h184l-252 -541h-154zM170 899q0 59 36 97t101 38q56 0 87.5 -34.5t31.5 -81.5q0 -63 -35.5 -98.5t-101.5 -35.5q-58 0 -88.5 31.5t-30.5 83.5z" />
<glyph unicode="&#x3c;" d="M119 627l14 106l842 371l-17 -170l-614 -264l576 -289l-68 -131z" />
<glyph unicode="=" d="M88 426l16 145h871l-53 -145h-834zM127 780l14 148h871l-51 -148h-834z" />
<glyph unicode="&#x3e;" d="M113 252l16 170l612 262l-573 291l68 131l733 -377l-15 -106z" />
<glyph unicode="?" horiz-adv-x="784" d="M104 88q0 56 34 91.5t95 35.5q53 0 83 -32.5t30 -78.5q0 -58 -33.5 -91t-95.5 -33q-55 0 -84 30t-29 78zM139 1319q131 59 299 59q107 0 187 -34t124.5 -91t62.5 -128t9 -150q-16 -156 -131 -262t-358 -158l-2 -193h-160l25 306q437 52 467 315q13 110 -44 183t-190 73 q-141 0 -258 -61z" />
<glyph unicode="@" horiz-adv-x="1873" d="M162 596q15 142 64 271t131.5 236.5t191 186t249.5 122.5t300 44q155 0 280 -39.5t208 -108t135.5 -163.5t70.5 -205t6 -233q-28 -280 -183 -437t-425 -157q-64 0 -137 12l14 135q-45 -79 -117.5 -117.5t-136.5 -38.5q-135 0 -181 113t-16 334q17 129 60.5 224.5 t105 149.5t129.5 79.5t144 25.5q120 0 180 -37l82 27l-113 -793q105 6 188.5 47t137.5 107.5t84.5 148.5t38.5 175q52 626 -582 626q-110 0 -214 -31t-196 -94t-164 -152.5t-120.5 -213.5t-63.5 -269q-12 -132 -3.5 -245.5t53 -205.5t118.5 -157t194 -100t279 -35 q147 0 319.5 39t301.5 115l29 -113q-115 -78 -309 -123t-365 -45q-121 0 -223.5 19t-180 53.5t-140.5 84t-104.5 111t-71.5 133.5t-41.5 152t-15 166t8.5 176zM766 563q-16 -116 -15.5 -190.5t24 -110t75.5 -35.5t105 32.5t124 96.5l72 533q-44 16 -115 16 q-113 0 -178.5 -80t-91.5 -262z" />
<glyph unicode="A" horiz-adv-x="1132" d="M-53 0l659 1341l209 21l281 -1362h-176l-84 438h-504l-209 -438h-176zM395 571h414l-98 523l-17 125q-52 -134 -168 -374t-131 -274z" />
<glyph unicode="B" horiz-adv-x="1204" d="M127 0l137 1350h469q121 0 205.5 -27t128.5 -77t61 -111.5t11 -139.5q-17 -226 -234 -305q235 -65 205 -334q-20 -169 -154 -262.5t-356 -93.5h-473zM309 133h293q161 0 239.5 61t92.5 191q13 121 -50.5 176t-205.5 55h-318zM373 750h297q134 3 209 64.5t86 172.5 q13 123 -49.5 176.5t-210.5 53.5h-283z" />
<glyph unicode="C" horiz-adv-x="1064" d="M129 676q36 334 206.5 518t463.5 184q175 0 307 -80l-33 -170q-173 109 -332 109q-372 0 -432 -561q-14 -159 -4 -266.5t52 -173t103 -93.5t150 -28q202 0 361 78l8 -125q-155 -95 -379 -95q-152 0 -254 49t-153.5 140t-68 221t4.5 293z" />
<glyph unicode="D" horiz-adv-x="1249" d="M127 0l137 1350h432q297 0 408.5 -161.5t75.5 -512.5q-38 -358 -205 -517t-498 -159h-350zM315 139h224q115 0 197 34.5t134.5 105.5t81.5 166.5t43 230.5q20 186 6 304.5t-97.5 174t-262.5 55.5h-215z" />
<glyph unicode="E" horiz-adv-x="1089" d="M127 0l137 1350h830l-47 -144h-623l-47 -454h602l-49 -140h-568l-47 -469h654l-49 -143h-793z" />
<glyph unicode="F" horiz-adv-x="1001" d="M127 0l137 1350h821l-49 -140h-610l-49 -479h571l-49 -139h-537l-61 -592h-174z" />
<glyph unicode="G" horiz-adv-x="1212" d="M127 676q34 334 214.5 518t492.5 184q201 0 344 -92l-33 -170q-91 59 -185 89t-165 30q-229 0 -344 -142.5t-144 -416.5q-22 -212 7 -335.5t109.5 -176.5t225.5 -53q115 0 236 45l53 495l180 21l-59 -570q-74 -61 -199.5 -95t-247.5 -34q-128 0 -221.5 31.5t-150 91 t-87.5 145.5t-34.5 195t8.5 240z" />
<glyph unicode="H" horiz-adv-x="1294" d="M127 0l135 1337l182 25l-63 -606h618l60 581l180 25l-139 -1362h-178l61 608h-616l-64 -608h-176z" />
<glyph unicode="I" horiz-adv-x="516" d="M127 0l135 1337l182 25l-141 -1362h-176z" />
<glyph unicode="J" horiz-adv-x="749" d="M4 12v150q71 -24 118.5 -34.5t106.5 -10.5q102 0 143 53.5t52 175.5l100 995l181 21l-107 -1022q-20 -185 -107 -271.5t-255 -86.5q-117 0 -232 30z" />
<glyph unicode="K" horiz-adv-x="1142" d="M127 0l137 1341l180 21l-141 -1362h-176zM436 668l580 673l225 13l-606 -686l448 -668h-209z" />
<glyph unicode="L" horiz-adv-x="948" d="M127 0l137 1337l180 25l-127 -1215h617l-49 -147h-758z" />
<glyph unicode="M" horiz-adv-x="1411" d="M127 0l139 1341l207 19l244 -731l420 704l219 23l-142 -1356h-163l100 973l35 188q-80 -142 -236.5 -409.5t-175.5 -300.5l-147 -21l-195 614l-35 119l-8 -196l-100 -967h-162z" />
<glyph unicode="N" horiz-adv-x="1284" d="M127 0l139 1333l223 29l474 -1151v141l104 985l162 25l-142 -1362h-202l-490 1174l-2 -148l-106 -1026h-160z" />
<glyph unicode="O" horiz-adv-x="1255" d="M127 676q75 702 600 702q142 0 240.5 -48.5t150.5 -139t69.5 -220.5t-1.5 -294q-36 -353 -182 -528t-424 -175q-141 0 -239 49t-149 140t-68 221t3 293zM311 676q-22 -211 1.5 -335.5t91.5 -177t190 -52.5q80 0 142 25.5t105.5 71.5t74.5 117.5t50 156t31 194.5 q21 212 -2.5 335.5t-91 176.5t-190.5 53q-82 0 -144.5 -25.5t-105.5 -71t-74 -117.5t-48.5 -155.5t-29.5 -195.5z" />
<glyph unicode="P" horiz-adv-x="1138" d="M127 0l139 1350h500q111 0 191 -31t123 -87t58.5 -129t4.5 -163q-23 -190 -153.5 -288.5t-352.5 -98.5h-281l-57 -553h-172zM371 690h297q140 0 215.5 67.5t87.5 194.5q15 140 -45.5 201t-202.5 61h-297z" />
<glyph unicode="Q" horiz-adv-x="1255" d="M127 676q75 702 600 702q142 0 240.5 -48.5t150.5 -139t69.5 -220.5t-1.5 -294q-31 -303 -143 -474.5t-318 -213.5l246 -328h-207l-225 315q-129 7 -218.5 58t-136 141.5t-61.5 217.5t4 284zM311 676q-22 -211 1.5 -335.5t91.5 -177t190 -52.5q99 0 171 37.5t118 114 t72.5 175.5t41.5 238q22 211 -1.5 335t-91.5 177t-191 53q-82 0 -144.5 -25.5t-105.5 -71t-74 -117.5t-48.5 -155.5t-29.5 -195.5z" />
<glyph unicode="R" horiz-adv-x="1200" d="M127 0l139 1350h504q111 0 191 -30t123.5 -85t59 -126.5t5.5 -158.5q-43 -328 -404 -370l355 -580h-201l-334 573h-207l-59 -573h-172zM373 709h299q275 0 303 254q15 137 -45 195.5t-201 58.5h-303z" />
<glyph unicode="S" horiz-adv-x="1036" d="M59 63v150q79 -51 197 -74.5t215 -23.5q243 0 283 133q19 65 -4.5 124t-76 106t-120 93.5t-136.5 97t-125.5 105t-88 128.5t-21.5 157q16 141 143.5 230t350.5 89q88 0 183.5 -23.5t168.5 -66.5l-29 -170q-79 41 -120.5 60.5t-113.5 39t-142 19.5q-248 0 -265 -172 q-7 -63 24.5 -120.5t85.5 -102.5t121 -90t133 -93t118.5 -100t80.5 -122t17 -150q-41 -314 -489 -314q-110 0 -216 21.5t-174 68.5z" />
<glyph unicode="T" horiz-adv-x="970" d="M90 1200l14 150h983l-51 -150h-377l-124 -1200h-177l123 1200h-391z" />
<glyph unicode="U" horiz-adv-x="1249" d="M147 510l89 831l180 21l-94 -885q-12 -84 -6.5 -150.5t30 -113t84.5 -71.5t158 -25q161 0 240 86.5t102 310.5l88 827l180 21l-88 -842q-7 -69 -16 -121.5t-27 -112t-43.5 -103t-67 -85t-95 -67.5t-129.5 -42t-169 -16q-142 0 -232.5 35.5t-133 104t-54.5 168.5t4 229z " />
<glyph unicode="V" horiz-adv-x="1079" d="M98 1337l176 25l193 -1081l10 -148l51 146l476 1062l186 15l-615 -1356h-223z" />
<glyph unicode="W" horiz-adv-x="1472" d="M143 1337l172 25l91 -1057l2 -174l49 174l272 760l168 25l107 -793l8 -166l43 168l340 1042l174 15l-459 -1356h-221l-88 733l-4 166l-39 -160l-258 -739h-226z" />
<glyph unicode="X" horiz-adv-x="1071" d="M-55 0l520 674l-324 667l185 21l213 -469l34 -100q73 112 220 313.5t170 234.5l206 15l-520 -699l352 -657h-206l-213 438l-45 103l-58 -92l-325 -449h-209z" />
<glyph unicode="Y" horiz-adv-x="1030" d="M94 1341l176 21l213 -553l37 -123l64 109l377 546l198 15l-567 -805l-55 -551h-175l58 547z" />
<glyph unicode="Z" horiz-adv-x="1069" d="M2 0l57 154l787 1048h-653l16 148h876l-24 -127l-811 -1078h754l-52 -145h-950z" />
<glyph unicode="[" horiz-adv-x="655" d="M121 -403l205 1943h477l-43 -133h-283l-178 -1679h313l-41 -131h-450z" />
<glyph unicode="\" horiz-adv-x="778" d="M102 1470h164l486 -1574l-148 -54z" />
<glyph unicode="]" horiz-adv-x="655" d="M-102 -403l43 133h282l176 1679h-311l41 131h451l-205 -1943h-477z" />
<glyph unicode="^" horiz-adv-x="884" d="M139 958l365 541l135 21l238 -562h-152l-131 308l-35 98q-36 -63 -79.5 -130.5t-98.5 -149.5t-84 -126h-158z" />
<glyph unicode="_" horiz-adv-x="786" d="M-53 -236l14 136h776l-51 -136h-739z" />
<glyph unicode="`" horiz-adv-x="843" d="M270 1393l123 125l289 -334l-98 -66z" />
<glyph unicode="a" horiz-adv-x="991" d="M119 483q16 150 60.5 258.5t112 169.5t146 89t172.5 28q45 0 111 -13t102 -32l99 33l-109 -1016h-158l9 133q-48 -81 -130.5 -120.5t-160.5 -39.5q-116 0 -179.5 60t-77.5 173.5t3 276.5zM297 496q-25 -198 -1.5 -295t112.5 -97q32 0 63.5 10t68.5 35t62 45t72 60l65 616 q-61 27 -143 27q-132 0 -203 -94.5t-96 -306.5z" />
<glyph unicode="b" horiz-adv-x="997" d="M133 59l148 1430l174 24l-70 -643q55 83 133 120.5t156 37.5q116 0 179.5 -60t77.5 -173.5t-3 -276.5q-16 -150 -60.5 -258.5t-112 -169.5t-146 -89t-173.5 -28q-103 0 -187.5 27.5t-115.5 58.5zM305 127q62 -23 154 -23q124 0 195.5 96t95.5 306q25 196 1.5 293.5 t-112.5 97.5q-63 0 -121 -37t-147 -117z" />
<glyph unicode="c" horiz-adv-x="847" d="M119 502q27 252 154.5 389t320.5 137q83 0 138 -15t104 -48l-27 -158q-74 48 -128 67t-118 19q-227 0 -268 -391q-22 -205 20 -298t164 -93q147 0 271 73l10 -121q-149 -90 -311 -90q-387 0 -330 529z" />
<glyph unicode="d" horiz-adv-x="997" d="M119 483q13 120 45.5 214.5t77.5 155.5t103.5 101.5t119 57t127.5 16.5q94 0 162 -33l51 498l170 20l-156 -1513h-160l9 141q-48 -87 -131 -127.5t-164 -40.5q-116 0 -179.5 60t-77.5 173.5t3 276.5zM297 496q-25 -198 -1.5 -295t112.5 -97q61 0 119.5 36.5t150.5 115.5 l63 614q-62 27 -145 27q-132 0 -203 -94.5t-96 -306.5z" />
<glyph unicode="e" horiz-adv-x="935" d="M123 508q15 133 56.5 234.5t102.5 163t133 92t154 30.5q145 0 220 -83.5t75 -235.5q0 -109 -22 -217h-551q-20 -211 31 -298.5t176 -87.5q62 0 144.5 18t158.5 60l10 -121q-139 -90 -338 -90q-112 0 -188.5 39t-114 109.5t-50.5 169t3 217.5zM307 608h398q14 165 -17 232 t-135 67q-100 0 -159 -71.5t-87 -227.5z" />
<glyph unicode="f" horiz-adv-x="565" d="M63 868l58 133h139l14 144q21 202 111 289.5t256 87.5q117 0 227 -35l-10 -139q-143 45 -250 45q-86 0 -119 -50.5t-47 -193.5l-14 -148h221l-18 -133h-219l-129 -1269l-168 -29l131 1298h-183z" />
<glyph unicode="g" horiz-adv-x="993" d="M20 -244q165 -57 291 -57q148 0 232 60t102 206l21 170q-48 -82 -131.5 -122t-161.5 -40q-116 0 -179.5 60t-77.5 173.5t3 276.5q13 120 45.5 214.5t77.5 155.5t103.5 101.5t119 57t127.5 16.5q55 0 124 -13t107 -32l99 33l-113 -1047q-43 -407 -481 -407q-162 0 -308 51 v143zM297 496q-25 -198 -1.5 -295t112.5 -97q32 0 63.5 10t68.5 35t62 45t72 60l65 616q-61 27 -143 27q-132 0 -203 -94.5t-96 -306.5z" />
<glyph unicode="h" d="M127 0l152 1493l174 20l-66 -606q63 50 146 85.5t167 35.5q239 0 203 -336l-69 -692h-175l72 690q4 56 4.5 98.5t-20 68.5t-64.5 26q-64 0 -139.5 -28t-134.5 -71l-80 -784h-170z" />
<glyph unicode="i" horiz-adv-x="475" d="M127 0l102 995l172 21l-104 -1016h-170zM231 1311q0 54 32.5 88.5t92.5 34.5q51 0 80 -32t29 -75q0 -57 -32.5 -89t-92.5 -32q-53 0 -81 29t-28 76z" />
<glyph unicode="j" horiz-adv-x="452" d="M61 -434l166 1429l172 21l-159 -1376zM231 1311q0 54 32.5 88.5t92.5 34.5q51 0 80 -32t29 -75q0 -57 -32.5 -89t-92.5 -32q-53 0 -81 29t-28 76z" />
<glyph unicode="k" horiz-adv-x="890" d="M127 0l152 1493l174 20l-156 -1513h-170zM387 512l367 485l209 17l-398 -502l266 -512h-200z" />
<glyph unicode="l" horiz-adv-x="475" d="M127 0l152 1493l174 20l-156 -1513h-170z" />
<glyph unicode="m" horiz-adv-x="1525" d="M127 0l102 995l166 21l-14 -115q154 127 315 127q142 0 185 -129q70 54 159.5 91.5t176.5 37.5q240 0 204 -336l-71 -692h-172l69 690q5 56 7 98.5t-21.5 68.5t-77.5 26q-56 0 -129.5 -27t-128.5 -68q0 -61 -4 -96l-72 -692h-172l70 690q5 56 7 98.5t-19.5 68.5t-71.5 26 q-57 0 -129 -28.5t-129 -70.5l-80 -784h-170z" />
<glyph unicode="n" d="M127 0l102 995l166 21l-14 -113q62 51 147 88t172 37q239 0 203 -336l-69 -692h-175l72 690q4 56 4.5 98.5t-20 68.5t-64.5 26q-64 0 -139.5 -28t-134.5 -71l-80 -784h-170z" />
<glyph unicode="o" horiz-adv-x="978" d="M119 502q28 254 154.5 390t293.5 136q398 0 340 -526q-28 -264 -148.5 -396.5t-301.5 -132.5q-89 0 -155 27t-104.5 75t-61 114.5t-24 145t6.5 167.5zM297 504q-23 -214 13 -307t155 -93q123 0 181.5 92.5t82.5 307.5q22 212 -15 301.5t-161 89.5q-118 0 -176 -91 t-80 -300z" />
<glyph unicode="p" horiz-adv-x="997" d="M82 -422l147 1417l170 21l-16 -150q54 84 134 123t157 39q116 0 179.5 -60t77.5 -173.5t-3 -276.5q-12 -120 -45 -214.5t-77 -155.5t-100.5 -101.5t-114.5 -57t-120 -16.5q-112 0 -176 47l-43 -413zM305 127q62 -23 164 -23q117 0 187 96.5t94 305.5q25 196 1.5 293.5 t-112.5 97.5q-43 0 -91.5 -23.5t-81 -49.5t-95.5 -81z" />
<glyph unicode="q" horiz-adv-x="991" d="M119 483q13 120 45.5 214.5t77.5 155.5t103.5 101.5t119 57t127.5 16.5q55 0 124 -13t107 -32l99 33l-148 -1409l-170 -29l62 559q-47 -83 -130.5 -123.5t-162.5 -40.5q-116 0 -179.5 60t-77.5 173.5t3 276.5zM297 496q-25 -198 -1.5 -295t112.5 -97q32 0 63.5 10 t68.5 35t62 45t72 60l65 616q-61 27 -143 27q-132 0 -203 -94.5t-96 -306.5z" />
<glyph unicode="r" horiz-adv-x="677" d="M121 0l104 995l168 21l-39 -289q108 127 175.5 189.5t164.5 107.5l41 -150q-230 -146 -379 -258l-75 -616h-160z" />
<glyph unicode="s" horiz-adv-x="749" d="M61 31v141q49 -28 123 -44.5t142 -16.5q94 0 141 30t47 76q0 17 -4 33t-14 33t-18 29.5t-25.5 32t-27 29t-32 31.5t-31.5 31q-8 8 -35.5 34t-38 37t-34 36t-34.5 40.5t-27 41t-23.5 47t-13.5 48.5t-6 54q0 107 88 180.5t247 73.5q76 0 150 -21t113 -57l-25 -147 q-147 92 -266 92q-70 0 -108 -29.5t-38 -83.5q0 -16 2 -29.5t10.5 -28.5t15 -25t25 -30t31 -32.5t42.5 -42t50 -49.5l36 -36l37 -37t31 -33.5t30.5 -37.5t23 -36t20.5 -42t10 -42.5t5 -49.5q0 -66 -30 -116t-80 -78t-107 -41.5t-119 -13.5q-179 0 -283 49z" />
<glyph unicode="t" horiz-adv-x="733" d="M70 868l57 133h129l41 263l156 55l-35 -318h305l-21 -133h-299l-65 -632q-7 -71 5 -96t48 -25q41 0 127 29t148 63l10 -115q-70 -53 -153 -84t-163 -31q-114 0 -159 64t-31 201l66 626h-166z" />
<glyph unicode="u" horiz-adv-x="989" d="M150 330l65 665l170 21l-68 -705q-11 -101 9 -153t80 -52q120 0 266 158l76 731l167 21l-104 -1016h-160l8 131q-108 -158 -292 -158q-114 0 -174.5 87.5t-42.5 269.5z" />
<glyph unicode="v" horiz-adv-x="847" d="M104 987l168 31l93 -707l12 -200l61 188l277 698l174 17l-420 -1014h-211z" />
<glyph unicode="w" horiz-adv-x="1314" d="M117 987l168 29l63 -672l14 -209q35 132 79 273.5t101.5 314t86.5 266.5l153 29l84 -699l17 -192q37 135 85.5 280t111 318t94.5 270l174 21l-385 -1016h-189l-76 627l-14 174l-43 -176l-205 -625h-188z" />
<glyph unicode="x" horiz-adv-x="823" d="M-45 0l393 508l-207 477l164 29l127 -320l21 -86l67 117l182 262l197 21l-383 -510l234 -498h-185l-123 291l-32 92q-35 -60 -78 -124t-96 -140t-82 -119h-199z" />
<glyph unicode="y" horiz-adv-x="993" d="M76 -248q145 -53 235 -53q147 0 231 57.5t103 208.5l19 166q-49 -71 -123 -114.5t-170 -43.5q-114 0 -174.5 87.5t-42.5 269.5l65 665l170 21l-67 -705q-11 -101 8.5 -153t79.5 -52q118 0 264 158l80 731l168 21l-113 -1047q-43 -407 -496 -407q-131 0 -237 49v141z" />
<glyph unicode="z" horiz-adv-x="835" d="M-2 0l55 139l473 641l72 86h-448l14 138h645l-23 -123l-479 -650l-82 -96h537l-41 -135h-723z" />
<glyph unicode="{" horiz-adv-x="659" d="M92 516l10 105q10 4 38 13.5t40 14.5t34.5 15.5t34 21.5t25.5 27.5t21 38.5t10 49q4 48 -10.5 202t-5.5 236q30 301 397 301h121l-43 -133h-109q-101 0 -148.5 -43t-55.5 -125q-6 -58 9 -213t9 -215q-18 -169 -170 -242q68 -35 98 -97.5t21 -145.5q-6 -60 -52.5 -211 t-52.5 -209q-9 -78 33 -128t150 -50h120l-41 -131h-94q-181 0 -265 78t-69 223q9 80 56.5 234.5t52.5 203.5q2 24 -1 44t-8 34t-16.5 27t-20.5 21t-27 17t-28.5 13t-32 12t-30.5 12z" />
<glyph unicode="|" horiz-adv-x="548" d="M106 -600l236 2240h162l-234 -2220z" />
<glyph unicode="}" horiz-adv-x="659" d="M-102 -403l43 133h108q101 0 149 43t56 125q6 58 -9 213t-9 215q18 168 167 241q-66 33 -95.5 97t-20.5 147q6 60 52 211t52 209q9 78 -32.5 128t-149.5 50h-121l41 131h94q181 0 265 -78t69 -223q-9 -80 -56 -234.5t-52 -203.5q-2 -24 1 -44t7.5 -34t16.5 -27t21 -21 t27 -17t28 -13t31.5 -12t30.5 -12l-10 -105q-10 -4 -38 -13.5t-40 -14.5t-34.5 -15.5t-34 -21.5t-25.5 -27.5t-21 -38.5t-10 -49q-4 -48 11 -202t6 -236q-30 -301 -398 -301h-120z" />
<glyph unicode="~" horiz-adv-x="1112" d="M80 569q124 199 299 199q51 0 113.5 -24.5t111 -53.5t102.5 -53.5t91 -24.5q20 0 39.5 8t32.5 16t30.5 28.5t25 30t26 37.5t22.5 34l139 -31q-134 -258 -313 -258q-49 0 -111.5 24t-112 53t-106.5 53t-96 24q-26 0 -54.5 -14t-48.5 -29t-46 -44t-35 -40.5t-27 -36.5z" />
<glyph unicode="&#xa1;" horiz-adv-x="589" d="M121 -348l143 999h148l-90 -977zM244 909q0 58 33.5 91.5t95.5 33.5q55 0 83.5 -30t28.5 -78q0 -56 -34 -91.5t-95 -35.5q-53 0 -82.5 32t-29.5 78z" />
<glyph unicode="&#xa2;" horiz-adv-x="868" d="M119 502q24 223 132.5 357t272.5 163l23 213h129l-23 -209q124 -6 203 -61l-27 -158q-109 69 -190 80l-82 -772q128 19 213 69l10 -121q-110 -65 -237 -83l-21 -207l-131 -21l23 223q-92 8 -156.5 51t-97 112t-44 162t2.5 202zM295 502q-19 -177 13 -271t122 -114l80 766 q-180 -51 -215 -381z" />
<glyph unicode="&#xa3;" horiz-adv-x="1148" d="M68 0l22 121q114 70 173 146.5t67 142.5q1 14 0 31t-5 40.5t-7.5 40.5t-10 50t-10.5 51h-193l15 122h160q-11 96 0 183q7 70 29 133.5t65 122t102 101t146.5 68t193.5 25.5q97 0 188.5 -19.5t155.5 -51.5l-33 -170q-174 98 -352 98q-155 0 -230 -77t-93 -236 q-9 -87 4 -177h491l-49 -122h-420q1 -5 3.5 -22t3.5 -22.5t3.5 -20.5t3 -21.5t2.5 -20.5t2 -21.5t1 -19t0.5 -20t-1 -18.5t-1.5 -19q-10 -67 -53 -131.5t-136 -139.5h764l-49 -147h-952z" />
<glyph unicode="&#xa4;" horiz-adv-x="1161" d="M29 150l256 313q-36 68 -40.5 151t17 157.5t62.5 131.5l-181 297h172l123 -190q90 55 219 55q120 0 203 -57l164 190h186l-254 -299q36 -70 40 -157.5t-19.5 -165.5t-65.5 -136l185 -288h-178l-123 190q-88 -43 -209 -43t-203 53l-174 -202h-180zM393 676 q-8 -114 45 -178t160 -64q115 0 179.5 70.5t70.5 183.5q6 114 -45.5 178t-157.5 64q-59 0 -105.5 -19.5t-77 -54t-47.5 -80t-22 -100.5z" />
<glyph unicode="&#xa5;" horiz-adv-x="1124" d="M109 338l12 123h350l8 86l-33 78h-307l13 123h245l-243 593l176 21l213 -553l37 -123l63 109l377 546l199 15l-428 -608h274l-45 -123h-315l-54 -74l-8 -90h391l-45 -123h-358l-35 -338h-174l35 338h-348z" />
<glyph unicode="&#xa6;" horiz-adv-x="548" d="M106 -600l103 973h162l-101 -953zM240 668l102 972h162l-101 -950z" />
<glyph unicode="&#xa7;" horiz-adv-x="1052" d="M90 63q178 -90 367 -90q107 0 170.5 36t72.5 100q4 23 -1.5 44.5t-14.5 38.5t-30.5 36.5t-38 32t-50.5 31.5t-53.5 29t-60.5 31q-47 24 -74 38.5t-69.5 40t-67 46.5t-53.5 51.5t-43 61t-21.5 69.5t-1.5 82q11 83 70 147t143 105q-102 99 -78 240q19 105 132.5 181.5 t309.5 76.5q199 0 344 -80l-30 -162q-99 50 -180 76.5t-173 26.5q-108 0 -172 -35.5t-73 -99.5q-5 -32 8 -61.5t31 -50t59.5 -47.5t68 -41.5t83.5 -43.5q67 -34 105 -54.5t92 -59t80.5 -74t44 -88t9.5 -111.5q-21 -158 -213 -258q102 -99 78 -236q-19 -105 -128 -181.5 t-296 -76.5q-89 0 -186 19t-160 55v155zM285 760q-4 -39 8 -73t31.5 -58.5t55 -50t66.5 -43t78 -42.5q18 -9 27 -14q17 -10 51.5 -28.5t61 -33.5t49.5 -30q108 84 118 178q4 48 -13 87t-62.5 75.5t-77.5 56t-102 56.5q-2 1 -3.5 2t-3.5 2l-4 2q-129 68 -164 92 q-108 -80 -116 -178z" />
<glyph unicode="&#xa8;" horiz-adv-x="843" d="M227 1303q0 51 30 82.5t87 31.5q47 0 73.5 -29t26.5 -69q0 -53 -30 -83t-86 -30q-49 0 -75 27t-26 70zM616 1303q0 51 30 82.5t87 31.5q47 0 74 -29t27 -69q0 -53 -30.5 -83t-86.5 -30q-49 0 -75 27t-26 70z" />
<glyph unicode="&#xa9;" horiz-adv-x="1687" d="M150 635q0 225 94 402.5t270.5 279.5t405.5 102q134 0 247 -38.5t191.5 -104.5t133.5 -154t81 -186.5t26 -202.5q0 -362 -201 -573t-558 -211q-138 0 -251.5 35t-194 97t-136 148t-82 188t-26.5 218zM295 641q0 -93 18 -175t59 -155.5t102.5 -126.5t154 -83.5 t207.5 -30.5q153 0 272 48t194.5 135t114.5 206t39 264q0 83 -17.5 162t-59 155t-102.5 132.5t-155 91t-209 34.5q-124 0 -227 -35t-174.5 -96t-121 -144.5t-72.5 -179.5t-23 -202zM526 670q24 214 133.5 330t298.5 116q109 0 205 -57l-26 -141q-120 75 -217 75 q-111 0 -170.5 -82.5t-77.5 -244.5q-9 -69 -4 -128t21.5 -102t55.5 -67.5t97 -24.5q127 0 229 57l8 -112q-103 -68 -243 -68q-360 0 -310 449z" />
<glyph unicode="&#xaa;" horiz-adv-x="811" d="M82 442l12 119h662l-37 -119h-637zM160 854q11 98 97.5 151.5t279.5 53.5h53l6 53q7 73 -24.5 108t-90.5 35q-115 0 -237 -67l-21 108q52 36 130.5 55t138.5 19q270 0 241 -266l-47 -442h-129l2 90q-76 -99 -213 -99q-90 0 -143 56.5t-43 144.5zM303 854q-5 -45 21 -74.5 t82 -29.5q80 0 155 53l19 166h-66q-116 0 -160.5 -27.5t-50.5 -87.5z" />
<glyph unicode="&#xab;" horiz-adv-x="952" d="M66 504l419 399l60 -131l-293 -278l229 -273l-86 -115zM451 504l419 399l60 -131l-293 -278l229 -273l-86 -115z" />
<glyph unicode="&#xac;" d="M119 713l16 145h844l-49 -467l-156 -18l35 340h-690z" />
<glyph unicode="&#xad;" horiz-adv-x="608" d="M106 455l15 143h461l-54 -143h-422z" />
<glyph unicode="&#xae;" horiz-adv-x="1286" d="M158 1114q0 177 74 318t213.5 222t320.5 81q106 0 195.5 -30.5t152 -83t106.5 -122t64.5 -147.5t20.5 -160q0 -287 -159 -454t-441 -167q-136 0 -242 42t-172 117t-99.5 172t-33.5 212zM279 1118q0 -92 23 -169.5t71 -140.5t131.5 -98.5t195.5 -35.5q238 0 362 138.5 t124 371.5q0 65 -14 127t-46 121t-80 103t-121 70.5t-163 26.5q-121 0 -215 -41.5t-151.5 -113.5t-87 -163t-29.5 -196zM467 838l68 632h237q115 0 167.5 -52t43.5 -146q-15 -135 -162 -174l160 -260h-133l-143 249h-97l-26 -249h-115zM618 1184h130q105 0 116 96 q5 47 -14.5 69.5t-67.5 22.5h-143z" />
<glyph unicode="&#xaf;" horiz-adv-x="843" d="M231 1221l15 133h600l-49 -133h-566z" />
<glyph unicode="&#xb0;" horiz-adv-x="698" d="M176 1186q0 126 82.5 206.5t220.5 80.5q118 0 185 -74t67 -176q0 -132 -80 -209.5t-209 -77.5q-130 0 -198 69.5t-68 180.5zM297 1192q0 -64 36 -108t107 -44q80 0 125 49.5t45 124.5q0 60 -38 107t-107 47q-82 0 -125 -50t-43 -126z" />
<glyph unicode="&#xb1;" d="M55 115l17 145h870l-53 -145h-834zM119 715l16 145h348l39 369h152l-39 -369h371l-54 -145h-334l-36 -355l-154 -18l39 373h-348z" />
<glyph unicode="&#xb4;" horiz-adv-x="843" d="M420 1186l342 330l100 -125l-354 -273z" />
<glyph unicode="&#xb5;" horiz-adv-x="1028" d="M141 -422q-31 308 11 713l73 704l166 21l-67 -674q-14 -125 22.5 -177t138.5 -52q199 0 224 258l-2 -33l69 657l170 21l-104 -1016h-162l8 121q-33 -73 -93 -110.5t-136 -37.5q-66 0 -113.5 25t-75.5 96q1 -52 3.5 -99t8.5 -99.5t9 -78.5t12.5 -91t11.5 -82z" />
<glyph unicode="&#xb6;" horiz-adv-x="1351" d="M164 958q40 392 475 392h156l-84 -797h-125q-92 0 -170.5 23.5t-140 70t-91.5 127t-20 184.5zM715 -254l170 1604h145l-168 -1586zM958 -254l170 1604h148l-168 -1586z" />
<glyph unicode="&#xb7;" horiz-adv-x="464" d="M111 498q0 59 36 97t101 38q55 0 87 -34.5t32 -82.5q0 -62 -35.5 -97.5t-102.5 -35.5q-58 0 -88 31.5t-30 83.5z" />
<glyph unicode="&#xb8;" horiz-adv-x="843" d="M166 -393l20 102q85 -33 154 -33q64 0 95.5 25t31.5 66q0 44 -35.5 59.5t-126.5 23.5l17 173h118l-10 -105q97 -6 138.5 -43.5t41.5 -107.5q0 -78 -69 -136.5t-181 -58.5q-125 0 -194 35z" />
<glyph unicode="&#xba;" horiz-adv-x="811" d="M82 442l12 119h662l-37 -119h-637zM158 1016q15 159 106.5 256.5t239.5 97.5q149 0 215.5 -96t50.5 -258q-16 -163 -102 -260t-244 -97q-75 0 -130.5 28.5t-87 78t-44 113t-4.5 137.5zM309 1016q-13 -130 18 -189t109 -59q81 0 125.5 58.5t56.5 189.5q13 125 -14 185.5 t-115 60.5q-87 0 -127 -61t-53 -185z" />
<glyph unicode="&#xbb;" horiz-adv-x="952" d="M82 238l293 276l-230 274l86 115l330 -397l-420 -400zM467 238l293 276l-230 274l86 115l330 -397l-420 -400z" />
<glyph unicode="&#xbc;" horiz-adv-x="1433" d="M127 47l1098 1303h186l-1175 -1395zM164 1253l344 95l125 12l-80 -637h-131l61 510l-315 -82zM780 152l23 84l375 387l133 12l-49 -389h129l-39 -94h-103l-18 -152h-123l18 152h-346zM930 244l53 2h156l22 176l15 80l-62 -78l-139 -143z" />
<glyph unicode="&#xbd;" horiz-adv-x="1433" d="M127 47l1098 1303h186l-1175 -1395zM164 1253l344 95l125 12l-80 -637h-131l61 510l-315 -82zM778 0l19 72q36 63 103 121.5t171 130.5q12 8 34.5 22.5t33 22t27 20t25 21t17.5 19.5t13 22.5t4 23.5q3 34 -28 49t-95 15q-49 0 -107.5 -15t-89.5 -32l-18 104 q44 22 112 33.5t129 11.5q117 0 178 -44.5t58 -115.5q-1 -32 -14 -60t-41.5 -54.5t-53.5 -45.5t-67 -47q-14 -9 -21 -14q-3 -2 -26 -17t-28.5 -18.5t-26 -17t-28.5 -20t-24.5 -19t-26 -21t-20.5 -20.5t-20 -23h370l-37 -104h-522z" />
<glyph unicode="&#xbe;" horiz-adv-x="1433" d="M121 752v112q40 -22 98.5 -35.5t116.5 -13.5q88 0 129.5 19t46.5 57q4 26 -7 44t-41.5 31t-85 19t-136.5 6l18 99q49 0 88 3t67.5 8.5t49.5 13.5t34 19t20 23.5t9 28.5q7 41 -28 59.5t-99 18.5q-44 0 -94.5 -11.5t-87.5 -31.5l-18 96q39 21 101 34t126 13q120 0 183 -45 t55 -125q-5 -37 -40.5 -73.5t-95.5 -55.5q-36 -13 -71 -16q84 -7 140 -50.5t52 -109.5q-8 -84 -88.5 -131t-224.5 -47q-156 0 -217 41zM127 47l1098 1303h186l-1175 -1395zM780 152l23 84l375 387l133 12l-49 -389h129l-39 -94h-103l-18 -152h-123l18 152h-346zM930 244 l53 2h156l22 176l15 80l-62 -78l-139 -143z" />
<glyph unicode="&#xbf;" horiz-adv-x="784" d="M31 39q14 155 129.5 261.5t357.5 156.5l4 194h160l-25 -305q-437 -52 -467 -315q-13 -110 44 -183t190 -73q141 0 258 61l31 -141q-133 -60 -299 -60q-107 0 -187 34t-124.5 91.5t-62.5 128.5t-9 150zM506 909q0 58 33.5 91.5t95.5 33.5q55 0 84 -30t29 -78 q0 -56 -34.5 -91.5t-95.5 -35.5q-53 0 -82.5 32t-29.5 78z" />
<glyph unicode="&#xc0;" horiz-adv-x="1132" d="M-53 0l659 1341l209 21l281 -1362h-176l-84 438h-504l-209 -438h-176zM395 571h414l-98 523l-17 125q-52 -134 -168 -374t-131 -274zM502 1638l73 144l412 -219l-74 -84z" />
<glyph unicode="&#xc1;" horiz-adv-x="1132" d="M-53 0l659 1341l209 21l281 -1362h-176l-84 438h-504l-209 -438h-176zM395 571h414l-98 523l-17 125q-52 -134 -168 -374t-131 -274zM600 1567l455 219l49 -154l-445 -155z" />
<glyph unicode="&#xc2;" horiz-adv-x="1132" d="M-53 0l659 1341l209 21l281 -1362h-176l-84 438h-504l-209 -438h-176zM395 571h414l-98 523l-17 125q-52 -134 -168 -374t-131 -274zM420 1561l266 198l150 25l251 -223l-92 -78l-229 176l-260 -182z" />
<glyph unicode="&#xc3;" horiz-adv-x="1132" d="M-53 0l659 1341l209 21l281 -1362h-176l-84 438h-504l-209 -438h-176zM395 571h414l-98 523l-17 125q-52 -134 -168 -374t-131 -274zM403 1544q60 97 113.5 130.5t118.5 33.5q38 0 88 -25t93.5 -50t66.5 -25q20 0 36.5 8t31.5 26t22.5 30t21.5 38l115 -27 q-101 -200 -240 -200q-42 0 -90.5 25t-90.5 50t-66 25q-35 0 -75.5 -35t-70.5 -78z" />
<glyph unicode="&#xc4;" horiz-adv-x="1132" d="M-53 0l659 1341l209 21l281 -1362h-176l-84 438h-504l-209 -438h-176zM395 571h414l-98 523l-17 125q-52 -134 -168 -374t-131 -274zM430 1593q0 51 30 83t87 32q47 0 73.5 -29t26.5 -69q0 -53 -30.5 -83t-86.5 -30q-49 0 -74.5 26.5t-25.5 69.5zM858 1593q0 51 30 83 t87 32q47 0 73.5 -29t26.5 -69q0 -53 -30.5 -83t-86.5 -30q-49 0 -74.5 26.5t-25.5 69.5z" />
<glyph unicode="&#xc5;" horiz-adv-x="1132" d="M-53 0l628 1278q-57 48 -57 137t59.5 147t157.5 58q86 0 134.5 -53t48.5 -127q0 -115 -84 -170l262 -1270h-176l-84 438h-504l-209 -438h-176zM395 571h414l-98 523l-17 125q-52 -134 -168 -374t-131 -274zM633 1419q0 -35 20 -58.5t58 -23.5q43 0 68.5 27.5t25.5 69.5 q0 33 -21.5 59.5t-58.5 26.5q-45 0 -68.5 -29t-23.5 -72z" />
<glyph unicode="&#xc6;" horiz-adv-x="1675" d="M-57 0l852 1350h884l-49 -140h-571l-49 -458h553l-47 -140h-521l-49 -473h606l-47 -139h-745l45 438h-406l-272 -438h-184zM481 571h338l70 670q-57 -103 -125 -215t-152.5 -246t-130.5 -209z" />
<glyph unicode="&#xc7;" horiz-adv-x="1064" d="M129 676q36 334 206.5 518t463.5 184q175 0 307 -80l-33 -170q-173 109 -332 109q-372 0 -432 -561q-14 -159 -4 -266.5t52 -173t103 -93.5t150 -28q202 0 361 78l8 -125q-136 -84 -334 -93l-4 -57q97 -6 138.5 -43.5t41.5 -107.5q0 -78 -69 -136.5t-181 -58.5 q-125 0 -194 35l20 102q85 -33 154 -33q64 0 95.5 25t31.5 66q0 44 -35.5 59.5t-126.5 23.5l12 127q-130 11 -217.5 64t-131 143t-56.5 214.5t6 277.5z" />
<glyph unicode="&#xc8;" horiz-adv-x="1089" d="M127 0l137 1350h830l-47 -144h-623l-47 -454h602l-49 -140h-568l-47 -469h654l-49 -143h-793zM461 1638l74 144l411 -219l-74 -84z" />
<glyph unicode="&#xc9;" horiz-adv-x="1089" d="M127 0l137 1350h830l-47 -144h-623l-47 -454h602l-49 -140h-568l-47 -469h654l-49 -143h-793zM559 1567l455 219l49 -154l-445 -155z" />
<glyph unicode="&#xca;" horiz-adv-x="1089" d="M127 0l137 1350h830l-47 -144h-623l-47 -454h602l-49 -140h-568l-47 -469h654l-49 -143h-793zM379 1561l266 198l150 25l252 -223l-93 -78l-229 176l-260 -182z" />
<glyph unicode="&#xcb;" horiz-adv-x="1089" d="M127 0l137 1350h830l-47 -144h-623l-47 -454h602l-49 -140h-568l-47 -469h654l-49 -143h-793zM389 1593q0 51 30 83t87 32q47 0 73.5 -29t26.5 -69q0 -53 -30.5 -83t-86.5 -30q-49 0 -74.5 26.5t-25.5 69.5zM817 1593q0 51 30 83t87 32q47 0 73.5 -29t26.5 -69 q0 -53 -30 -83t-86 -30q-49 0 -75 26.5t-26 69.5z" />
<glyph unicode="&#xcc;" horiz-adv-x="516" d="M127 0l135 1337l182 25l-141 -1362h-176zM131 1638l74 144l411 -219l-73 -84z" />
<glyph unicode="&#xcd;" horiz-adv-x="516" d="M127 0l135 1337l182 25l-141 -1362h-176zM229 1567l455 219l49 -154l-444 -155z" />
<glyph unicode="&#xce;" horiz-adv-x="516" d="M49 1561l266 198l150 25l252 -223l-92 -78l-230 176l-260 -182zM127 0l135 1337l182 25l-141 -1362h-176z" />
<glyph unicode="&#xcf;" horiz-adv-x="516" d="M59 1593q0 51 30 83t87 32q47 0 73.5 -29t26.5 -69q0 -53 -30 -83t-86 -30q-49 0 -75 26.5t-26 69.5zM127 0l135 1337l182 25l-141 -1362h-176zM487 1593q0 51 30 83t87 32q47 0 74 -29t27 -69q0 -53 -30.5 -83t-86.5 -30q-49 0 -75 26.5t-26 69.5z" />
<glyph unicode="&#xd0;" horiz-adv-x="1282" d="M70 612l14 140h152l61 598h432q297 0 408 -161.5t75 -512.5q-38 -358 -204.5 -517t-497.5 -159h-350l61 612h-151zM348 139h223q115 0 197.5 34.5t135 105t81.5 166.5t43 231q20 186 6 304.5t-97.5 174t-262.5 55.5h-215l-47 -458h268l-49 -140h-234z" />
<glyph unicode="&#xd1;" horiz-adv-x="1284" d="M127 0l139 1333l223 29l474 -1151v141l104 985l162 25l-142 -1362h-202l-490 1174l-2 -148l-106 -1026h-160zM461 1544q60 97 113.5 130.5t117.5 33.5q38 0 88 -25t93.5 -50t66.5 -25q20 0 37 8t31.5 26t22.5 30.5t22 37.5l114 -27q-55 -109 -114 -154.5t-125 -45.5 q-42 0 -91 25t-91 50t-66 25q-35 0 -74.5 -34.5t-70.5 -78.5z" />
<glyph unicode="&#xd2;" horiz-adv-x="1255" d="M127 676q75 702 600 702q142 0 240.5 -48.5t150.5 -139t69.5 -220.5t-1.5 -294q-36 -353 -182 -528t-424 -175q-141 0 -239 49t-149 140t-68 221t3 293zM311 676q-22 -211 1.5 -335.5t91.5 -177t190 -52.5q80 0 142 25.5t105.5 71.5t74.5 117.5t50 156t31 194.5 q21 212 -2.5 335.5t-91 176.5t-190.5 53q-82 0 -144.5 -25.5t-105.5 -71t-74 -117.5t-48.5 -155.5t-29.5 -195.5zM516 1638l74 144l411 -219l-73 -84z" />
<glyph unicode="&#xd3;" horiz-adv-x="1255" d="M127 676q75 702 600 702q142 0 240.5 -48.5t150.5 -139t69.5 -220.5t-1.5 -294q-36 -353 -182 -528t-424 -175q-141 0 -239 49t-149 140t-68 221t3 293zM311 676q-22 -211 1.5 -335.5t91.5 -177t190 -52.5q80 0 142 25.5t105.5 71.5t74.5 117.5t50 156t31 194.5 q21 212 -2.5 335.5t-91 176.5t-190.5 53q-82 0 -144.5 -25.5t-105.5 -71t-74 -117.5t-48.5 -155.5t-29.5 -195.5zM614 1567l455 219l49 -154l-444 -155z" />
<glyph unicode="&#xd4;" horiz-adv-x="1255" d="M127 676q75 702 600 702q142 0 240.5 -48.5t150.5 -139t69.5 -220.5t-1.5 -294q-36 -353 -182 -528t-424 -175q-141 0 -239 49t-149 140t-68 221t3 293zM311 676q-22 -211 1.5 -335.5t91.5 -177t190 -52.5q80 0 142 25.5t105.5 71.5t74.5 117.5t50 156t31 194.5 q21 212 -2.5 335.5t-91 176.5t-190.5 53q-82 0 -144.5 -25.5t-105.5 -71t-74 -117.5t-48.5 -155.5t-29.5 -195.5zM434 1561l266 198l150 25l252 -223l-92 -78l-230 176l-260 -182z" />
<glyph unicode="&#xd5;" horiz-adv-x="1255" d="M127 676q75 702 600 702q142 0 240.5 -48.5t150.5 -139t69.5 -220.5t-1.5 -294q-36 -353 -182 -528t-424 -175q-141 0 -239 49t-149 140t-68 221t3 293zM311 676q-22 -211 1.5 -335.5t91.5 -177t190 -52.5q80 0 142 25.5t105.5 71.5t74.5 117.5t50 156t31 194.5 q21 212 -2.5 335.5t-91 176.5t-190.5 53q-82 0 -144.5 -25.5t-105.5 -71t-74 -117.5t-48.5 -155.5t-29.5 -195.5zM418 1544q60 97 113.5 130.5t117.5 33.5q38 0 88 -25t93.5 -50t66.5 -25q20 0 37 8t31.5 26t22.5 30.5t22 37.5l114 -27q-55 -109 -114 -154.5t-125 -45.5 q-42 0 -91 25t-91 50t-66 25q-35 0 -74.5 -34.5t-70.5 -78.5z" />
<glyph unicode="&#xd6;" horiz-adv-x="1255" d="M127 676q75 702 600 702q142 0 240.5 -48.5t150.5 -139t69.5 -220.5t-1.5 -294q-36 -353 -182 -528t-424 -175q-141 0 -239 49t-149 140t-68 221t3 293zM311 676q-22 -211 1.5 -335.5t91.5 -177t190 -52.5q80 0 142 25.5t105.5 71.5t74.5 117.5t50 156t31 194.5 q21 212 -2.5 335.5t-91 176.5t-190.5 53q-82 0 -144.5 -25.5t-105.5 -71t-74 -117.5t-48.5 -155.5t-29.5 -195.5zM444 1593q0 51 30 83t87 32q47 0 74 -29t27 -69q0 -53 -30.5 -83t-86.5 -30q-49 0 -75 26.5t-26 69.5zM872 1593q0 51 30 83t87 32q47 0 74 -29t27 -69 q0 -53 -30.5 -83t-86.5 -30q-49 0 -75 26.5t-26 69.5z" />
<glyph unicode="&#xd7;" d="M102 360l342 320l-270 311l117 101l264 -310l336 316l104 -111l-342 -317l271 -316l-111 -100l-270 311l-342 -315z" />
<glyph unicode="&#xd8;" horiz-adv-x="1255" d="M98 -96l131 205q-147 172 -102 567q75 702 600 702q163 0 272 -67l109 168h160l-168 -260q125 -176 86 -543q-36 -353 -182 -528t-424 -175q-142 0 -246 52l-123 -191zM307 676q-30 -291 19 -418l592 926q-69 57 -205 57q-101 0 -174 -37.5t-119 -113.5t-72 -175 t-41 -239zM414 150q65 -39 180 -39q80 0 142.5 25.5t106.5 71.5t75.5 117.5t51 156t31.5 194.5q25 260 -8 377z" />
<glyph unicode="&#xd9;" horiz-adv-x="1249" d="M147 510l89 831l180 21l-94 -885q-12 -84 -6.5 -150.5t30 -113t84.5 -71.5t158 -25q161 0 240 86.5t102 310.5l88 827l180 21l-88 -842q-7 -69 -16 -121.5t-27 -112t-43.5 -103t-67 -85t-95 -67.5t-129.5 -42t-169 -16q-142 0 -232.5 35.5t-133 104t-54.5 168.5t4 229z M516 1638l74 144l411 -219l-73 -84z" />
<glyph unicode="&#xda;" horiz-adv-x="1249" d="M147 510l89 831l180 21l-94 -885q-12 -84 -6.5 -150.5t30 -113t84.5 -71.5t158 -25q161 0 240 86.5t102 310.5l88 827l180 21l-88 -842q-7 -69 -16 -121.5t-27 -112t-43.5 -103t-67 -85t-95 -67.5t-129.5 -42t-169 -16q-142 0 -232.5 35.5t-133 104t-54.5 168.5t4 229z M614 1567l455 219l49 -154l-444 -155z" />
<glyph unicode="&#xdb;" horiz-adv-x="1249" d="M147 510l89 831l180 21l-94 -885q-12 -84 -6.5 -150.5t30 -113t84.5 -71.5t158 -25q161 0 240 86.5t102 310.5l88 827l180 21l-88 -842q-7 -69 -16 -121.5t-27 -112t-43.5 -103t-67 -85t-95 -67.5t-129.5 -42t-169 -16q-142 0 -232.5 35.5t-133 104t-54.5 168.5t4 229z M434 1561l266 198l150 25l252 -223l-92 -78l-230 176l-260 -182z" />
<glyph unicode="&#xdc;" horiz-adv-x="1249" d="M147 510l89 831l180 21l-94 -885q-12 -84 -6.5 -150.5t30 -113t84.5 -71.5t158 -25q161 0 240 86.5t102 310.5l88 827l180 21l-88 -842q-7 -69 -16 -121.5t-27 -112t-43.5 -103t-67 -85t-95 -67.5t-129.5 -42t-169 -16q-142 0 -232.5 35.5t-133 104t-54.5 168.5t4 229z M444 1593q0 51 30 83t87 32q47 0 74 -29t27 -69q0 -53 -30.5 -83t-86.5 -30q-49 0 -75 26.5t-26 69.5zM872 1593q0 51 30 83t87 32q47 0 74 -29t27 -69q0 -53 -30.5 -83t-86.5 -30q-49 0 -75 26.5t-26 69.5z" />
<glyph unicode="&#xdd;" horiz-adv-x="1030" d="M94 1341l176 21l213 -553l37 -123l64 109l377 546l198 15l-567 -805l-55 -551h-175l58 547zM498 1567l454 219l49 -154l-444 -155z" />
<glyph unicode="&#xde;" horiz-adv-x="1138" d="M127 0l135 1337l178 25l-30 -285h327q111 0 191 -31t123 -87t58.5 -128.5t4.5 -162.5q-23 -190 -153.5 -288.5t-352.5 -98.5h-280l-29 -281h-172zM342 418h297q140 0 215.5 67.5t87.5 194.5q15 140 -45.5 201t-202.5 61h-299z" />
<glyph unicode="&#xdf;" horiz-adv-x="1030" d="M127 0l94 913q12 112 45.5 202t90.5 158.5t143.5 106t197.5 37.5q55 0 108 -14t101.5 -42.5t78.5 -81t30 -122.5q0 -48 -16 -90t-41.5 -72.5t-56.5 -57.5t-62.5 -52t-57 -49.5t-41.5 -55.5t-16 -65q0 -46 26 -94t97 -132q44 -51 69 -84t48.5 -88t23.5 -110 q0 -93 -85.5 -159t-213.5 -66q-149 0 -250 49v141q112 -61 248 -61q69 0 105 25t36 67q0 30 -16.5 64t-35 58.5t-60.5 75.5q-40 49 -55 68t-41 54.5t-35 56.5t-17 50.5t-8 59.5q0 49 17 91.5t53 81t68 66t86.5 69t82.5 65.5q21 219 -194 219q-73 0 -124.5 -25t-83.5 -76.5 t-49.5 -115.5t-27.5 -156l-96 -909h-166z" />
<glyph unicode="&#xe0;" horiz-adv-x="991" d="M119 483q16 150 60.5 258.5t112 169.5t146 89t172.5 28q45 0 111 -13t102 -32l99 33l-109 -1016h-158l9 133q-48 -81 -130.5 -120.5t-160.5 -39.5q-116 0 -179.5 60t-77.5 173.5t3 276.5zM297 496q-25 -198 -1.5 -295t112.5 -97q32 0 63.5 10t68.5 35t62 45t72 60l65 616 q-61 27 -143 27q-132 0 -203 -94.5t-96 -306.5zM383 1413l123 125l289 -334l-99 -65z" />
<glyph unicode="&#xe1;" horiz-adv-x="991" d="M119 483q16 150 60.5 258.5t112 169.5t146 89t172.5 28q45 0 111 -13t102 -32l99 33l-109 -1016h-158l9 133q-48 -81 -130.5 -120.5t-160.5 -39.5q-116 0 -179.5 60t-77.5 173.5t3 276.5zM297 496q-25 -198 -1.5 -295t112.5 -97q32 0 63.5 10t68.5 35t62 45t72 60l65 616 q-61 27 -143 27q-132 0 -203 -94.5t-96 -306.5zM532 1206l342 330l101 -125l-354 -272z" />
<glyph unicode="&#xe2;" horiz-adv-x="991" d="M119 483q16 150 60.5 258.5t112 169.5t146 89t172.5 28q45 0 111 -13t102 -32l99 33l-109 -1016h-158l9 133q-48 -81 -130.5 -120.5t-160.5 -39.5q-116 0 -179.5 60t-77.5 173.5t3 276.5zM297 496q-25 -198 -1.5 -295t112.5 -97q32 0 63.5 10t68.5 35t62 45t72 60l65 616 q-61 27 -143 27q-132 0 -203 -94.5t-96 -306.5zM315 1225l256 262l160 18l215 -280l-110 -64l-189 217l-233 -217z" />
<glyph unicode="&#xe3;" horiz-adv-x="991" d="M119 483q16 150 60.5 258.5t112 169.5t146 89t172.5 28q45 0 111 -13t102 -32l99 33l-109 -1016h-158l9 133q-48 -81 -130.5 -120.5t-160.5 -39.5q-116 0 -179.5 60t-77.5 173.5t3 276.5zM297 496q-25 -198 -1.5 -295t112.5 -97q32 0 63.5 10t68.5 35t62 45t72 60l65 616 q-61 27 -143 27q-132 0 -203 -94.5t-96 -306.5zM301 1260q60 97 112 131t115 34q43 0 91 -25t87 -50t62 -25q16 0 29 4t25.5 18t17.5 20t19.5 30.5t17.5 29.5l112 -28q-56 -110 -112 -155.5t-121 -45.5q-49 0 -96.5 25t-84.5 50t-61 25q-56 0 -139 -112z" />
<glyph unicode="&#xe4;" horiz-adv-x="991" d="M119 483q16 150 60.5 258.5t112 169.5t146 89t172.5 28q45 0 111 -13t102 -32l99 33l-109 -1016h-158l9 133q-48 -81 -130.5 -120.5t-160.5 -39.5q-116 0 -179.5 60t-77.5 173.5t3 276.5zM297 496q-25 -198 -1.5 -295t112.5 -97q32 0 63.5 10t68.5 35t62 45t72 60l65 616 q-61 27 -143 27q-132 0 -203 -94.5t-96 -306.5zM340 1323q0 51 30 83t87 32q47 0 73.5 -29.5t26.5 -69.5q0 -53 -30.5 -82.5t-86.5 -29.5q-49 0 -74.5 26.5t-25.5 69.5zM729 1323q0 51 30 83t87 32q47 0 73.5 -29.5t26.5 -69.5q0 -53 -30.5 -82.5t-86.5 -29.5 q-49 0 -74.5 26.5t-25.5 69.5z" />
<glyph unicode="&#xe5;" horiz-adv-x="991" d="M119 483q16 150 60.5 258.5t112 169.5t146 89t172.5 28q45 0 111 -13t102 -32l99 33l-109 -1016h-158l9 133q-48 -81 -130.5 -120.5t-160.5 -39.5q-116 0 -179.5 60t-77.5 173.5t3 276.5zM297 496q-25 -198 -1.5 -295t112.5 -97q32 0 63.5 10t68.5 35t62 45t72 60l65 616 q-61 27 -143 27q-132 0 -203 -94.5t-96 -306.5zM416 1335q0 100 67 166t179 66q96 0 150 -60t54 -143q0 -106 -64.5 -168.5t-168.5 -62.5q-106 0 -161.5 56t-55.5 146zM539 1341q0 -43 23.5 -71.5t70.5 -28.5q53 0 82.5 32t29.5 83q0 40 -26 71t-70 31q-54 0 -82 -33 t-28 -84z" />
<glyph unicode="&#xe6;" horiz-adv-x="1454" d="M74 281q28 264 458 270l136 2l12 109q11 108 -34.5 170.5t-149.5 62.5q-152 0 -303 -98l-27 129q150 102 358 102q210 0 271 -162q51 81 132 121.5t175 40.5q145 0 220 -83.5t75 -235.5q0 -105 -23 -217h-551q-20 -211 31 -298.5t176 -87.5q62 0 144.5 18t158.5 60 l10 -121q-139 -90 -337 -90q-234 0 -301 172q-111 -172 -343 -172q-138 0 -221 75.5t-67 232.5zM231 256q-7 -74 34 -114t118 -40q113 0 183 68.5t85 208.5l4 53q-133 0 -194 -4q-122 -7 -172 -49.5t-58 -122.5zM840 608h397q14 165 -17 232t-135 67q-100 0 -158.5 -71.5 t-86.5 -227.5z" />
<glyph unicode="&#xe7;" horiz-adv-x="847" d="M119 502q27 252 154.5 389t320.5 137q83 0 138 -15t104 -48l-27 -158q-74 48 -128 67t-118 19q-227 0 -268 -391q-22 -205 20 -298t164 -93q147 0 271 73l10 -121q-132 -80 -275 -88l-4 -57q97 -6 139 -43.5t42 -107.5q0 -78 -69 -136.5t-181 -58.5q-126 0 -195 35 l21 102q85 -33 153 -33q64 0 95.5 25t31.5 66q0 44 -35.5 59.5t-126.5 23.5l13 130q-303 53 -250 522z" />
<glyph unicode="&#xe8;" horiz-adv-x="935" d="M123 508q15 133 56.5 234.5t102.5 163t133 92t154 30.5q145 0 220 -83.5t75 -235.5q0 -109 -22 -217h-551q-20 -211 31 -298.5t176 -87.5q62 0 144.5 18t158.5 60l10 -121q-139 -90 -338 -90q-112 0 -188.5 39t-114 109.5t-50.5 169t3 217.5zM307 608h398q14 165 -17 232 t-135 67q-100 0 -159 -71.5t-87 -227.5zM350 1413l123 125l289 -334l-98 -65z" />
<glyph unicode="&#xe9;" horiz-adv-x="935" d="M123 508q15 133 56.5 234.5t102.5 163t133 92t154 30.5q145 0 220 -83.5t75 -235.5q0 -109 -22 -217h-551q-20 -211 31 -298.5t176 -87.5q62 0 144.5 18t158.5 60l10 -121q-139 -90 -338 -90q-112 0 -188.5 39t-114 109.5t-50.5 169t3 217.5zM307 608h398q14 165 -17 232 t-135 67q-100 0 -159 -71.5t-87 -227.5zM500 1206l342 330l100 -125l-354 -272z" />
<glyph unicode="&#xea;" horiz-adv-x="935" d="M123 508q15 133 56.5 234.5t102.5 163t133 92t154 30.5q145 0 220 -83.5t75 -235.5q0 -109 -22 -217h-551q-20 -211 31 -298.5t176 -87.5q62 0 144.5 18t158.5 60l10 -121q-139 -90 -338 -90q-112 0 -188.5 39t-114 109.5t-50.5 169t3 217.5zM283 1225l256 262l159 18 l215 -280l-110 -64l-189 217l-233 -217zM307 608h398q14 165 -17 232t-135 67q-100 0 -159 -71.5t-87 -227.5z" />
<glyph unicode="&#xeb;" horiz-adv-x="935" d="M123 508q15 133 56.5 234.5t102.5 163t133 92t154 30.5q145 0 220 -83.5t75 -235.5q0 -109 -22 -217h-551q-20 -211 31 -298.5t176 -87.5q62 0 144.5 18t158.5 60l10 -121q-139 -90 -338 -90q-112 0 -188.5 39t-114 109.5t-50.5 169t3 217.5zM307 608h398q14 165 -17 232 t-135 67q-100 0 -159 -71.5t-87 -227.5zM307 1323q0 51 30 83t87 32q47 0 73.5 -29.5t26.5 -69.5q0 -53 -30 -82.5t-86 -29.5q-49 0 -75 26.5t-26 69.5zM696 1323q0 51 30 83t87 32q47 0 73.5 -29.5t26.5 -69.5q0 -53 -30 -82.5t-86 -29.5q-49 0 -75 26.5t-26 69.5z" />
<glyph unicode="&#xec;" horiz-adv-x="475" d="M96 1413l123 125l289 -334l-98 -65zM127 0l102 995l172 21l-104 -1016h-170z" />
<glyph unicode="&#xed;" horiz-adv-x="475" d="M127 0l102 995l172 21l-104 -1016h-170zM246 1206l342 330l100 -125l-354 -272z" />
<glyph unicode="&#xee;" horiz-adv-x="475" d="M29 1225l256 262l159 18l215 -280l-110 -64l-189 217l-233 -217zM127 0l102 995l172 21l-104 -1016h-170z" />
<glyph unicode="&#xef;" horiz-adv-x="475" d="M53 1323q0 51 30 83t87 32q47 0 73.5 -29.5t26.5 -69.5q0 -53 -30 -82.5t-86 -29.5q-49 0 -75 26.5t-26 69.5zM127 0l102 995l172 21l-104 -1016h-170zM442 1323q0 51 30 83t87 32q47 0 73.5 -29.5t26.5 -69.5q0 -53 -30 -82.5t-86 -29.5q-49 0 -75 26.5t-26 69.5z" />
<glyph unicode="&#xf0;" horiz-adv-x="927" d="M100 428q23 211 140 338t272 127q113 0 190 -88q-12 187 -92 319l-243 -108v102l192 86q-85 119 -211 219l119 86q141 -101 238 -239l206 94l35 -92l-190 -84q142 -267 108 -623q-11 -108 -29.5 -193t-52.5 -162t-81.5 -127.5t-117.5 -80t-159 -29.5q-98 0 -167 33 t-106 95t-49 143t-2 184zM270 426q-11 -109 -4.5 -181.5t47 -109.5t121.5 -37q120 0 179 104.5t81 332.5q11 111 13 178q-39 32 -89.5 48.5t-93.5 16.5q-122 0 -178 -84t-76 -268z" />
<glyph unicode="&#xf1;" d="M127 0l102 995l166 21l-14 -113q62 51 147 88t172 37q239 0 203 -336l-69 -692h-175l72 690q4 56 4.5 98.5t-20 68.5t-64.5 26q-64 0 -139.5 -28t-134.5 -71l-80 -784h-170zM297 1260q60 97 112 131t115 34q43 0 91 -25t87 -50t62 -25q16 0 29 4.5t25 17.5t17.5 20t19 30 t17.5 30l113 -28q-56 -110 -112 -155.5t-121 -45.5q-49 0 -96.5 25t-84.5 50t-61 25q-56 0 -139 -112z" />
<glyph unicode="&#xf2;" horiz-adv-x="978" d="M119 502q28 254 154.5 390t293.5 136q398 0 340 -526q-28 -264 -148.5 -396.5t-301.5 -132.5q-89 0 -155 27t-104.5 75t-61 114.5t-24 145t6.5 167.5zM297 504q-23 -214 13 -307t155 -93q123 0 181.5 92.5t82.5 307.5q22 212 -15 301.5t-161 89.5q-118 0 -176 -91 t-80 -300zM371 1413l123 125l288 -334l-98 -65z" />
<glyph unicode="&#xf3;" horiz-adv-x="978" d="M119 502q28 254 154.5 390t293.5 136q398 0 340 -526q-28 -264 -148.5 -396.5t-301.5 -132.5q-89 0 -155 27t-104.5 75t-61 114.5t-24 145t6.5 167.5zM297 504q-23 -214 13 -307t155 -93q123 0 181.5 92.5t82.5 307.5q22 212 -15 301.5t-161 89.5q-118 0 -176 -91 t-80 -300zM520 1206l342 330l101 -125l-355 -272z" />
<glyph unicode="&#xf4;" horiz-adv-x="978" d="M119 502q28 254 154.5 390t293.5 136q398 0 340 -526q-28 -264 -148.5 -396.5t-301.5 -132.5q-89 0 -155 27t-104.5 75t-61 114.5t-24 145t6.5 167.5zM297 504q-23 -214 13 -307t155 -93q123 0 181.5 92.5t82.5 307.5q22 212 -15 301.5t-161 89.5q-118 0 -176 -91 t-80 -300zM303 1225l256 262l160 18l215 -280l-111 -64l-188 217l-234 -217z" />
<glyph unicode="&#xf5;" horiz-adv-x="978" d="M119 502q28 254 154.5 390t293.5 136q398 0 340 -526q-28 -264 -148.5 -396.5t-301.5 -132.5q-89 0 -155 27t-104.5 75t-61 114.5t-24 145t6.5 167.5zM289 1260q60 97 112 131t115 34q43 0 91 -25t87 -50t62 -25q16 0 29 4.5t25 17.5t17.5 20t19 30t17.5 30l113 -28 q-56 -110 -112.5 -155.5t-121.5 -45.5q-39 0 -77.5 15.5t-63.5 34.5t-52.5 34.5t-47.5 15.5q-57 0 -140 -112zM297 504q-23 -214 13 -307t155 -93q123 0 181.5 92.5t82.5 307.5q22 212 -15 301.5t-161 89.5q-118 0 -176 -91t-80 -300z" />
<glyph unicode="&#xf6;" horiz-adv-x="978" d="M119 502q28 254 154.5 390t293.5 136q398 0 340 -526q-28 -264 -148.5 -396.5t-301.5 -132.5q-89 0 -155 27t-104.5 75t-61 114.5t-24 145t6.5 167.5zM297 504q-23 -214 13 -307t155 -93q123 0 181.5 92.5t82.5 307.5q22 212 -15 301.5t-161 89.5q-118 0 -176 -91 t-80 -300zM328 1323q0 52 30 83.5t86 31.5q47 0 74 -29.5t27 -69.5q0 -53 -30.5 -82.5t-86.5 -29.5q-49 0 -74.5 26.5t-25.5 69.5zM717 1323q0 51 30 83t87 32q47 0 73.5 -29.5t26.5 -69.5q0 -53 -30.5 -82.5t-86.5 -29.5q-49 0 -74.5 26.5t-25.5 69.5z" />
<glyph unicode="&#xf7;" horiz-adv-x="985" d="M109 604l14 146h870l-51 -146h-833zM399 328q0 53 31.5 85.5t89.5 32.5q48 0 75.5 -30.5t27.5 -71.5q0 -55 -30.5 -86t-88.5 -31q-51 0 -78 28t-27 73zM473 1028q0 53 31.5 86t89.5 33q48 0 75 -30.5t27 -72.5q0 -55 -30 -85.5t-88 -30.5q-51 0 -78 27.5t-27 72.5z" />
<glyph unicode="&#xf8;" horiz-adv-x="978" d="M92 -109l107 181q-114 130 -80 430q28 254 154.5 390t293.5 136q99 0 178 -37l107 180h139l-153 -258q98 -125 69 -411q-28 -264 -148.5 -396.5t-301.5 -132.5q-87 0 -160 29l-100 -172zM291 227l381 639q-47 29 -119 29q-119 0 -178.5 -91.5t-81.5 -299.5 q-19 -195 -2 -277zM369 123q43 -19 96 -19q124 0 184 93t84 307q16 165 4 241z" />
<glyph unicode="&#xf9;" horiz-adv-x="989" d="M150 330l65 665l170 21l-68 -705q-11 -101 9 -153t80 -52q120 0 266 158l76 731l167 21l-104 -1016h-160l8 131q-108 -158 -292 -158q-114 0 -174.5 87.5t-42.5 269.5zM365 1413l122 125l289 -334l-98 -65z" />
<glyph unicode="&#xfa;" horiz-adv-x="989" d="M150 330l65 665l170 21l-68 -705q-11 -101 9 -153t80 -52q120 0 266 158l76 731l167 21l-104 -1016h-160l8 131q-108 -158 -292 -158q-114 0 -174.5 87.5t-42.5 269.5zM514 1206l342 330l100 -125l-354 -272z" />
<glyph unicode="&#xfb;" horiz-adv-x="989" d="M150 330l65 665l170 21l-68 -705q-11 -101 9 -153t80 -52q120 0 266 158l76 731l167 21l-104 -1016h-160l8 131q-108 -158 -292 -158q-114 0 -174.5 87.5t-42.5 269.5zM297 1225l256 262l160 18l215 -280l-111 -64l-188 217l-234 -217z" />
<glyph unicode="&#xfc;" horiz-adv-x="989" d="M150 330l65 665l170 21l-68 -705q-11 -101 9 -153t80 -52q120 0 266 158l76 731l167 21l-104 -1016h-160l8 131q-108 -158 -292 -158q-114 0 -174.5 87.5t-42.5 269.5zM322 1323q0 52 30 83.5t86 31.5q47 0 74 -29.5t27 -69.5q0 -53 -30.5 -82.5t-86.5 -29.5 q-49 0 -74.5 26.5t-25.5 69.5zM711 1323q0 52 30 83.5t86 31.5q47 0 74 -29.5t27 -69.5q0 -53 -30.5 -82.5t-86.5 -29.5q-49 0 -74.5 26.5t-25.5 69.5z" />
<glyph unicode="&#xfd;" horiz-adv-x="993" d="M76 -248q145 -53 235 -53q147 0 231 57.5t103 208.5l19 166q-49 -71 -123 -114.5t-170 -43.5q-114 0 -174.5 87.5t-42.5 269.5l65 665l170 21l-67 -705q-11 -101 8.5 -153t79.5 -52q118 0 264 158l80 731l168 21l-113 -1047q-43 -407 -496 -407q-131 0 -237 49v141z M520 1206l342 330l101 -125l-355 -272z" />
<glyph unicode="&#xfe;" horiz-adv-x="997" d="M82 -422l197 1915l172 20l-70 -649q55 85 135.5 124.5t157.5 39.5q116 0 179.5 -60t77.5 -173.5t-3 -276.5q-12 -120 -45 -214.5t-77 -155.5t-100.5 -101.5t-114.5 -57t-120 -16.5q-112 0 -176 47l-43 -413zM305 127q62 -23 164 -23q117 0 187 96.5t94 305.5 q25 196 1.5 293.5t-112.5 97.5q-43 0 -91.5 -23.5t-81.5 -50t-97 -82.5z" />
<glyph unicode="&#xff;" horiz-adv-x="993" d="M76 -248q145 -53 235 -53q147 0 231 57.5t103 208.5l19 166q-49 -71 -123 -114.5t-170 -43.5q-114 0 -174.5 87.5t-42.5 269.5l65 665l170 21l-67 -705q-11 -101 8.5 -153t79.5 -52q118 0 264 158l80 731l168 21l-113 -1047q-43 -407 -496 -407q-131 0 -237 49v141z M328 1323q0 52 30 83.5t86 31.5q47 0 74 -29.5t27 -69.5q0 -53 -30.5 -82.5t-86.5 -29.5q-49 0 -74.5 26.5t-25.5 69.5zM717 1323q0 51 30 83t87 32q47 0 73.5 -29.5t26.5 -69.5q0 -53 -30.5 -82.5t-86.5 -29.5q-49 0 -74.5 26.5t-25.5 69.5z" />
<glyph unicode="&#x152;" horiz-adv-x="1695" d="M131 676q38 345 206.5 509.5t479.5 164.5h883l-49 -140h-572l-49 -458h553l-47 -140h-520l-49 -473h606l-47 -139h-862q-607 0 -533 676zM315 676q-9 -106 -8 -187t20.5 -140.5t48 -100t76 -64.5t103 -34.5t129.5 -10.5h111l112 1071h-119q-121 0 -206 -32.5 t-139.5 -102.5t-84 -165.5t-43.5 -233.5z" />
<glyph unicode="&#x153;" horiz-adv-x="1533" d="M119 502q28 254 154.5 390t293.5 136q239 0 295 -184q48 92 133 138t187 46q145 0 220 -83.5t75 -235.5q0 -105 -23 -217h-551q-20 -211 31 -298.5t176 -87.5q62 0 144.5 18t158.5 60l10 -121q-139 -90 -338 -90q-125 0 -198.5 45.5t-106.5 135.5q-50 -93 -134.5 -137 t-188.5 -44q-89 0 -155 27t-104.5 75t-61 114.5t-24 145t6.5 167.5zM297 504q-23 -214 13 -307t155 -93q123 0 181.5 92.5t82.5 307.5q22 212 -15 301.5t-161 89.5q-118 0 -176 -91t-80 -300zM920 608h397q14 165 -17 232t-135 67q-100 0 -158.5 -71.5t-86.5 -227.5z" />
<glyph unicode="&#x178;" horiz-adv-x="1030" d="M94 1341l176 21l213 -553l37 -123l64 109l377 546l198 15l-567 -805l-55 -551h-175l58 547zM328 1593q0 52 30 83.5t86 31.5q47 0 74 -29t27 -69q0 -53 -30.5 -83t-86.5 -30q-49 0 -74.5 26.5t-25.5 69.5zM756 1593q0 52 30 83.5t86 31.5q47 0 74 -29t27 -69 q0 -53 -30.5 -83t-86.5 -30q-49 0 -74.5 26.5t-25.5 69.5z" />
<glyph unicode="&#x2c6;" horiz-adv-x="843" d="M203 1204l256 262l159 19l216 -281l-111 -63l-188 217l-234 -217z" />
<glyph unicode="&#x2dc;" horiz-adv-x="843" d="M188 1239q60 97 112.5 131.5t115.5 34.5q43 0 90.5 -25t86.5 -50t62 -25q16 0 29 4t25.5 18t17.5 20t19.5 30.5t17.5 29.5l113 -29q-56 -110 -112 -155t-122 -45q-49 0 -96.5 25t-84.5 50t-61 25q-55 0 -139 -113z" />
<glyph unicode="&#x2000;" horiz-adv-x="893" />
<glyph unicode="&#x2001;" horiz-adv-x="1786" />
<glyph unicode="&#x2002;" horiz-adv-x="893" />
<glyph unicode="&#x2003;" horiz-adv-x="1786" />
<glyph unicode="&#x2004;" horiz-adv-x="595" />
<glyph unicode="&#x2005;" horiz-adv-x="446" />
<glyph unicode="&#x2006;" horiz-adv-x="297" />
<glyph unicode="&#x2007;" horiz-adv-x="297" />
<glyph unicode="&#x2008;" horiz-adv-x="223" />
<glyph unicode="&#x2009;" horiz-adv-x="357" />
<glyph unicode="&#x200a;" horiz-adv-x="99" />
<glyph unicode="&#x2010;" horiz-adv-x="608" d="M106 455l15 143h461l-54 -143h-422z" />
<glyph unicode="&#x2011;" horiz-adv-x="608" d="M106 455l15 143h461l-54 -143h-422z" />
<glyph unicode="&#x2012;" horiz-adv-x="608" d="M106 455l15 143h461l-54 -143h-422z" />
<glyph unicode="&#x2013;" horiz-adv-x="935" d="M106 457l15 137h786l-51 -137h-750z" />
<glyph unicode="&#x2014;" horiz-adv-x="1865" d="M106 457l15 137h1716l-51 -137h-1680z" />
<glyph unicode="&#x2018;" horiz-adv-x="464" d="M141 993l252 541h154l-221 -541h-185z" />
<glyph unicode="&#x2019;" horiz-adv-x="464" d="M150 981l221 541h184l-252 -541h-153z" />
<glyph unicode="&#x201a;" horiz-adv-x="464" d="M-68 -344l222 541h184l-252 -541h-154z" />
<glyph unicode="&#x201c;" horiz-adv-x="794" d="M141 993l254 541h152l-223 -541h-183zM475 993l252 541h150l-222 -541h-180z" />
<glyph unicode="&#x201d;" horiz-adv-x="794" d="M150 981l221 541h180l-252 -541h-149zM479 981l223 541h183l-254 -541h-152z" />
<glyph unicode="&#x201e;" horiz-adv-x="794" d="M-68 -344l222 541h180l-252 -541h-150zM262 -344l223 541h183l-254 -541h-152z" />
<glyph unicode="&#x2022;" horiz-adv-x="727" d="M59 504q0 128 78 210.5t219 82.5q120 0 188 -75t68 -179q0 -135 -76 -212t-221 -77q-125 0 -190.5 69t-65.5 181z" />
<glyph unicode="&#x2026;" horiz-adv-x="1402" d="M86 86q0 56 33.5 91.5t95.5 35.5q52 0 81.5 -32t29.5 -77q0 -59 -32.5 -91.5t-96.5 -32.5q-55 0 -83 29t-28 77zM563 86q0 56 33.5 91.5t95.5 35.5q52 0 81.5 -32t29.5 -77q0 -59 -32.5 -91.5t-96.5 -32.5q-55 0 -83 29t-28 77zM1040 86q0 56 33.5 91.5t95.5 35.5 q52 0 81.5 -32t29.5 -77q0 -59 -32.5 -91.5t-96.5 -32.5q-55 0 -83 29t-28 77z" />
<glyph unicode="&#x202f;" horiz-adv-x="357" />
<glyph unicode="&#x2039;" horiz-adv-x="569" d="M66 504l419 399l62 -135l-289 -274l225 -269l-88 -119z" />
<glyph unicode="&#x203a;" horiz-adv-x="569" d="M82 242l289 272l-226 270l88 119l330 -397l-420 -400z" />
<glyph unicode="&#x205f;" horiz-adv-x="446" />
<glyph unicode="&#x20ac;" horiz-adv-x="1275" d="M61 444l15 123h174q0 100 20 197h-174l13 123h190q73 236 238.5 363.5t410.5 127.5q196 0 328 -80l-33 -170q-173 109 -352 109q-304 0 -412 -350h596l-45 -123h-579q-3 -12 -13 -88q-8 -78 -8 -109h488l-48 -123h-438q18 -176 103 -252.5t237 -76.5q94 0 195.5 21.5 t173.5 56.5l8 -125q-71 -44 -178 -69.5t-211 -25.5q-249 0 -371.5 120.5t-136.5 350.5h-191z" />
<glyph unicode="&#x2122;" horiz-adv-x="1400" d="M119 1362l12 108h545l-31 -108h-196l-56 -524h-127l56 524h-203zM719 838l67 624l136 15l127 -355l202 336l150 17l-68 -637h-116l34 321l27 162l-188 -322l-101 -12l-112 326l-7 -158l-34 -317h-117z" />
<glyph unicode="&#xe000;" horiz-adv-x="1013" d="M0 0v1014h1014v-1014h-1014z" />
</font>
</defs>
</svg>
