<?xml version="1.0" encoding="utf-8"?>
<!-- Generator: Adobe Illustrator 15.0.0, SVG Export Plug-In . SVG Version: 6.00 Build 0)  -->
<!DOCTYPE svg PUBLIC "-//W3C//DTD SVG 1.1//EN" "http://www.w3.org/Graphics/SVG/1.1/DTD/svg11.dtd">
<svg version="1.1" id="Ebene_1" xmlns="http://www.w3.org/2000/svg" xmlns:xlink="http://www.w3.org/1999/xlink" x="0px" y="0px"
	 width="16px" height="16px" viewBox="0 0 16 16" enable-background="new 0 0 16 16" xml:space="preserve">
<g>
	<path d="M1.184,2.99C1.204,2.97,1.229,2.96,1.261,2.96c0.025,0,0.05,0.009,0.076,0.026c0.025,0.019,0.051,0.027,0.076,0.027
		c0.016-0.062,0.027-0.104,0.035-0.13c0.007-0.025,0.018-0.041,0.03-0.046S1.506,2.83,1.524,2.83c0.018,0,0.047-0.008,0.087-0.022
		v0.099h0.1c0.025-0.071,0.047-0.115,0.065-0.134C1.794,2.755,1.839,2.733,1.91,2.708V2.86h0.053
		c0.051-0.025,0.08-0.044,0.088-0.057s0.011-0.045,0.011-0.096h0.1c0.025,0.051,0.042,0.08,0.049,0.088s0.024,0.012,0.05,0.012
		c0.03-0.031,0.066-0.047,0.107-0.047c0.046,0,0.093,0.019,0.142,0.054c0.048,0.036,0.094,0.078,0.137,0.127
		C2.691,2.989,2.727,3.039,2.754,3.09s0.047,0.092,0.058,0.122C2.914,3.263,2.985,3.31,3.026,3.35
		c0.041,0.041,0.086,0.112,0.137,0.215c0.056,0,0.084,0.061,0.084,0.183c0,0.031-0.001,0.065-0.004,0.104S3.24,3.926,3.24,3.961
		c0,0.071,0.008,0.134,0.023,0.188c0.015,0.054,0.048,0.091,0.099,0.11c0,0.077,0.002,0.142,0.008,0.195
		C3.375,4.508,3.39,4.56,3.416,4.611v0.55c0,0.025-0.01,0.041-0.03,0.046C3.38,5.212,3.372,5.215,3.362,5.215
		c-0.016,0.168-0.027,0.281-0.034,0.34C3.32,5.613,3.316,5.655,3.316,5.681v0.031l0.046,0.053L3.316,6.163H3.263
		c-0.026,0.061-0.046,0.11-0.062,0.148S3.171,6.384,3.156,6.415c-0.015,0.03-0.033,0.06-0.053,0.088
		C3.082,6.53,3.054,6.567,3.018,6.613C2.942,6.654,2.845,6.699,2.728,6.747C2.61,6.796,2.501,6.819,2.399,6.819
		c-0.087,0-0.148-0.018-0.184-0.053C2.19,6.817,2.167,6.856,2.147,6.885c-0.021,0.028-0.031,0.055-0.031,0.08
		c-0.051,0-0.091-0.01-0.122-0.03S1.936,6.891,1.91,6.865c0,0.025-0.018,0.049-0.054,0.069s-0.066,0.03-0.091,0.03
		C1.688,6.889,1.62,6.847,1.558,6.839C1.498,6.831,1.441,6.826,1.391,6.823C1.339,6.821,1.295,6.806,1.257,6.777
		C1.218,6.75,1.187,6.68,1.161,6.567H1.115v0.046c0,0.306,0.007,0.605,0.023,0.898c0.016,0.292,0.023,0.577,0.023,0.852
		C1.059,8.389,0.96,8.413,0.863,8.436C0.766,8.459,0.667,8.471,0.565,8.471C0.514,8.414,0.472,8.361,0.438,8.313
		S0.363,8.216,0.312,8.165c0-0.102,0.001-0.19,0.004-0.264c0.002-0.074,0.017-0.137,0.042-0.188
		c-0.071-0.087-0.12-0.212-0.145-0.375c-0.025-0.162-0.038-0.336-0.038-0.52c0-0.224,0.011-0.447,0.034-0.672
		s0.039-0.402,0.05-0.535C0.234,5.541,0.22,5.466,0.217,5.387C0.215,5.308,0.213,5.218,0.213,5.115
		c0.005-0.071,0.007-0.14,0.007-0.206s0-0.135,0-0.207V4.52L0.206,3.893V3.717c0-0.179,0.008-0.352,0.023-0.52
		s0.043-0.331,0.084-0.489c0.077,0,0.132,0.032,0.168,0.096c0.035,0.063,0.079,0.134,0.13,0.21V2.906
		c0.035,0,0.069-0.004,0.099-0.012c0.031-0.007,0.063-0.011,0.1-0.011c0.036,0,0.069,0.008,0.099,0.022
		c0-0.051,0.009-0.09,0.027-0.118c0.018-0.027,0.026-0.055,0.026-0.08h0.153v0.068c0,0.041,0.001,0.079,0.004,0.115
		c0.002,0.035,0.016,0.076,0.042,0.122L1.184,2.99z M0.465,4.733c0.005-0.005,0.005-0.011,0-0.016V4.733z M0.665,8.119
		C0.69,8.094,0.723,8.07,0.764,8.05s0.074-0.03,0.099-0.03l0.046-0.55C0.878,7.5,0.85,7.54,0.825,7.592L0.764,7.736
		C0.743,7.788,0.721,7.839,0.698,7.89C0.676,7.94,0.646,7.984,0.611,8.02c0,0.016,0.002,0.025,0.007,0.03
		C0.624,8.081,0.639,8.104,0.665,8.119z M1.062,4.16l0.054-0.046C1.09,4.089,1.075,4.062,1.069,4.034
		c-0.005-0.028-0.007-0.07-0.007-0.126c-0.041,0.087-0.076,0.167-0.107,0.24c-0.03,0.074-0.059,0.139-0.084,0.195
		C0.85,4.395,0.831,4.444,0.813,4.492C0.795,4.541,0.779,4.591,0.764,4.642c0.005-0.005,0.01-0.009,0.016-0.012
		c0.005-0.003,0.01-0.006,0.015-0.012c0.005-0.005,0.028-0.007,0.068-0.007c0-0.052,0.008-0.101,0.023-0.149
		c0.015-0.049,0.022-0.098,0.022-0.149h0.153V4.16z M0.764,5.413h0.099v-0.1c-0.025,0-0.042,0.004-0.05,0.012
		C0.806,5.333,0.789,5.362,0.764,5.413z M0.764,6.361c0.025-0.051,0.052-0.099,0.08-0.142s0.067-0.077,0.118-0.104V5.811h0.054
		V5.666H0.962C0.921,5.777,0.89,5.865,0.867,5.93c-0.023,0.063-0.04,0.117-0.05,0.16S0.798,6.174,0.791,6.212S0.773,6.3,0.764,6.361
		z M1.062,3.357V3.158C1.036,3.235,1.009,3.31,0.981,3.38C0.954,3.452,0.914,3.513,0.863,3.564l0.046,0.045
		C0.934,3.559,0.96,3.511,0.985,3.464C1.011,3.419,1.036,3.383,1.062,3.357z M0.863,5.161C0.939,5.11,0.985,5.081,1,5.073
		s0.036-0.012,0.061-0.012V4.779C1.056,4.789,1.053,4.802,1.05,4.817c-0.002,0.015-0.009,0.03-0.019,0.046
		c-0.011,0.02-0.022,0.039-0.035,0.058C0.984,4.938,0.973,4.952,0.962,4.962H0.909L0.863,5.161z M1.864,6.361
		c0.021-0.021,0.042-0.033,0.064-0.038c0.023-0.005,0.085-0.008,0.188-0.008V6.262c0-0.01,0.003-0.016,0.008-0.016H2.14l0.023,0.016
		V6.163h0.053c0.026-0.072,0.048-0.136,0.069-0.192c0.02-0.056,0.03-0.109,0.03-0.16c0-0.03,0.015-0.046,0.046-0.046
		c0-0.051-0.001-0.109-0.004-0.176C2.354,5.523,2.341,5.465,2.315,5.413c0.026-0.051,0.042-0.109,0.05-0.176s0.024-0.125,0.05-0.176
		c-0.031-0.097-0.046-0.193-0.046-0.29c0-0.092,0.008-0.183,0.023-0.271s0.023-0.185,0.023-0.286
		c-0.025-0.077-0.042-0.153-0.05-0.229s-0.024-0.15-0.05-0.222C2.29,3.737,2.267,3.721,2.247,3.713
		c-0.021-0.008-0.031-0.024-0.031-0.05V3.511C2.16,3.495,2.11,3.482,2.067,3.472C2.023,3.462,1.981,3.457,1.94,3.457
		c-0.071,0-0.14,0.014-0.206,0.042c-0.066,0.027-0.141,0.065-0.222,0.11c0,0.148-0.02,0.299-0.058,0.451
		C1.417,4.214,1.385,4.364,1.36,4.512c0,0.076,0.002,0.144,0.008,0.202c0.004,0.059,0.02,0.124,0.045,0.195
		C1.368,5.026,1.337,5.132,1.321,5.226C1.306,5.32,1.298,5.419,1.298,5.521c0,0.071,0.003,0.147,0.008,0.229
		c0.005,0.081,0.008,0.171,0.008,0.268H1.36C1.385,6.043,1.4,6.076,1.406,6.116c0.005,0.041,0.007,0.074,0.007,0.1l0.1,0.046V6.163
		h0.053v-0.1h0.1c0,0.035,0.015,0.053,0.046,0.053l0.054,0.047v0.152c0.025,0,0.042,0.001,0.049,0.004
		C1.822,6.321,1.839,6.336,1.864,6.361z M2.163,6.613c0.051-0.025,0.08-0.042,0.087-0.05c0.008-0.008,0.012-0.024,0.012-0.05
		L2.163,6.613z M2.491,6.124c0.005-0.005,0.012-0.008,0.022-0.008V5.979L2.491,6.048C2.476,6.073,2.468,6.109,2.468,6.155
		C2.468,6.145,2.476,6.135,2.491,6.124z M2.613,4.764l0.053-0.152H2.613V4.764z M2.712,6.468c0.102-0.102,0.179-0.186,0.229-0.252
		s0.076-0.15,0.076-0.252C2.993,6.015,2.952,6.076,2.896,6.147S2.812,6.29,2.812,6.361H2.766L2.712,6.468z M2.911,4.764
		c0.051-0.062,0.092-0.11,0.123-0.149c0.03-0.038,0.053-0.072,0.069-0.103C3.118,4.48,3.129,4.446,3.137,4.408
		C3.145,4.37,3.153,4.32,3.164,4.259H3.118v0.054H3.064c0,0.052-0.008,0.101-0.023,0.149C3.026,4.511,3.018,4.56,3.018,4.611H2.965
		L2.911,4.764z M3.018,5.161c0.025-0.025,0.038-0.043,0.038-0.054C3.062,5.103,3.064,5.08,3.064,5.039
		c-0.01,0.025-0.021,0.047-0.03,0.064C3.023,5.122,3.018,5.141,3.018,5.161z M3.041,5.796c0.01-0.031,0.017-0.059,0.019-0.084
		C3.063,5.687,3.064,5.66,3.064,5.635V5.513C3.039,5.568,3.023,5.635,3.018,5.712v0.176C3.023,5.842,3.031,5.811,3.041,5.796z"/>
	<path d="M4.493,1.248C4.549,1.324,4.602,1.39,4.65,1.443C4.699,1.496,4.748,1.549,4.799,1.6c0,0.076-0.009,0.152-0.026,0.229
		C4.754,1.905,4.746,1.981,4.746,2.058C4.817,2.14,4.865,2.26,4.891,2.417C4.916,2.575,4.929,2.746,4.929,2.93
		c0,0.209-0.01,0.419-0.03,0.631C4.878,3.771,4.863,3.943,4.853,4.076c0.025,0.076,0.048,0.151,0.069,0.226
		C4.942,4.375,4.952,4.45,4.952,4.526C4.947,4.583,4.943,4.639,4.94,4.695C4.938,4.751,4.937,4.808,4.937,4.863
		c0,0.188,0.006,0.381,0.019,0.577c0.013,0.195,0.02,0.391,0.02,0.584c0,0.164-0.008,0.324-0.023,0.482
		c-0.016,0.157-0.049,0.306-0.1,0.442c-0.051,0-0.092-0.009-0.122-0.026C4.7,6.905,4.673,6.882,4.65,6.854
		C4.627,6.826,4.604,6.794,4.581,6.759C4.558,6.723,4.529,6.685,4.493,6.644v0.107c-0.051,0-0.101,0.008-0.149,0.023
		C4.296,6.789,4.246,6.797,4.195,6.797c0,0.025-0.01,0.051-0.031,0.076S4.122,6.924,4.096,6.949H3.989
		c0-0.025-0.007-0.061-0.022-0.106C3.951,6.797,3.943,6.748,3.943,6.697c0.051-0.102,0.093-0.202,0.126-0.302
		c0.034-0.099,0.075-0.2,0.126-0.302V6.04c-0.051,0.128-0.1,0.218-0.146,0.271s-0.132,0.08-0.26,0.08
		C3.765,6.244,3.741,6.077,3.721,5.891c-0.021-0.186-0.03-0.355-0.03-0.508c0.035-0.016,0.054-0.056,0.054-0.122
		c0-0.046-0.007-0.092-0.02-0.138S3.701,5.047,3.691,5.031C3.732,4.965,3.76,4.846,3.775,4.672C3.79,4.499,3.798,4.323,3.798,4.145
		c0-0.112-0.001-0.215-0.004-0.31C3.792,3.741,3.79,3.668,3.79,3.617C3.815,3.566,3.841,3.514,3.867,3.46
		c0.025-0.053,0.051-0.118,0.076-0.194c0-0.306-0.017-0.616-0.049-0.933C3.86,2.018,3.844,1.707,3.844,1.4l0.306-0.076
		c0.051-0.01,0.104-0.022,0.16-0.038C4.366,1.271,4.427,1.258,4.493,1.248z M4.348,5.031c-0.025,0.025-0.043,0.042-0.054,0.05
		s-0.028,0.024-0.053,0.05c0,0.025-0.011,0.06-0.031,0.103C4.19,5.277,4.167,5.312,4.142,5.337c0,0.025-0.011,0.04-0.031,0.042
		C4.091,5.382,4.068,5.383,4.042,5.383c0-0.025-0.002-0.059-0.007-0.1C4.029,5.243,4.014,5.21,3.989,5.185H3.943
		c0,0.102,0.004,0.201,0.012,0.298c0.007,0.097,0.037,0.184,0.087,0.26C4.093,5.589,4.15,5.458,4.214,5.349
		C4.278,5.238,4.323,5.133,4.348,5.031z M4.195,4.526C4.17,4.553,4.15,4.571,4.138,4.584C4.125,4.597,4.112,4.608,4.1,4.618
		c-0.013,0.011-0.027,0.02-0.042,0.027S4.02,4.665,3.989,4.68v0.306c0.025-0.056,0.043-0.099,0.053-0.13
		c0.011-0.03,0.028-0.071,0.054-0.122h0.046L4.195,4.526z M4.294,3.365c-0.025,0.056-0.052,0.105-0.08,0.148
		C4.187,3.558,4.147,3.592,4.096,3.617v0.306H4.042v0.1h0.054C4.131,3.921,4.16,3.841,4.18,3.781
		c0.021-0.059,0.035-0.108,0.045-0.148c0.011-0.041,0.021-0.08,0.031-0.119C4.267,3.476,4.279,3.426,4.294,3.365z M4.394,1.653
		c-0.025,0.025-0.062,0.04-0.107,0.046C4.241,1.704,4.193,1.707,4.142,1.707v0.604c0.051-0.102,0.095-0.21,0.134-0.325
		c0.038-0.114,0.095-0.207,0.171-0.278C4.412,1.707,4.394,1.688,4.394,1.653z M4.241,4.274v0.153l0.053-0.153H4.241z"/>
	<path d="M6.732,7.003c-0.035-0.01-0.071-0.021-0.107-0.03S6.552,6.952,6.511,6.941C6.5,6.937,6.488,6.929,6.473,6.919
		C6.447,6.898,6.427,6.863,6.411,6.812c-0.01-0.005-0.021-0.008-0.03-0.008c-0.01,0-0.025-0.003-0.046-0.008
		c-0.01,0.025-0.027,0.041-0.05,0.046C6.263,6.848,6.237,6.85,6.209,6.847S6.155,6.84,6.133,6.835c-0.023-0.005-0.042-0.005-0.058,0
		C6.05,6.861,6.004,6.859,5.938,6.831C5.872,6.803,5.8,6.776,5.724,6.751C5.713,6.716,5.701,6.68,5.685,6.644
		C5.67,6.608,5.657,6.573,5.647,6.537C5.601,6.404,5.55,6.256,5.494,6.09C5.438,5.924,5.397,5.739,5.372,5.535
		c0.016-0.111,0.041-0.201,0.077-0.267c0.045-0.077,0.14-0.181,0.283-0.313c0.153-0.138,0.231-0.209,0.237-0.214l0.039,0.03
		c0.132-0.127,0.27-0.208,0.412-0.24C6.562,4.497,6.735,4.48,6.939,4.48c0.05-0.025,0.081-0.043,0.088-0.053
		c0.007-0.011,0.011-0.028,0.011-0.054c0.051-0.025,0.101-0.049,0.149-0.068c0.048-0.021,0.101-0.031,0.156-0.031V4.122
		C7.329,4.045,7.32,3.977,7.317,3.915C7.315,3.854,7.311,3.802,7.306,3.759C7.301,3.716,7.29,3.681,7.275,3.655
		C7.26,3.63,7.231,3.612,7.191,3.602C7.115,3.581,7.04,3.564,6.966,3.549C6.892,3.533,6.799,3.508,6.687,3.472
		c-0.025,0-0.051,0.008-0.076,0.023C6.584,3.511,6.559,3.518,6.534,3.518c-0.005,0.026-0.01,0.05-0.015,0.073
		c-0.005,0.022-0.01,0.047-0.015,0.072C6.493,3.709,6.485,3.764,6.48,3.827C6.476,3.892,6.46,3.975,6.435,4.076
		c-0.021,0-0.047,0-0.08,0c-0.033,0-0.078,0.002-0.134,0.007c0.035-0.005,0.025-0.025-0.031-0.061
		C6.164,4.007,6.119,4.002,6.052,4.007C5.986,4.048,5.902,4.067,5.8,4.064C5.698,4.062,5.573,4.048,5.425,4.022
		c0-0.112,0.009-0.209,0.027-0.29C5.47,3.65,5.497,3.575,5.533,3.507C5.568,3.438,5.612,3.369,5.663,3.3
		c0.05-0.068,0.107-0.146,0.168-0.232C5.902,2.99,5.979,2.926,6.06,2.872c0.082-0.053,0.173-0.105,0.275-0.157
		C6.478,2.69,6.624,2.658,6.774,2.62s0.299-0.058,0.447-0.058c0.056,0,0.109,0.003,0.161,0.008c0.051,0.005,0.104,0.018,0.16,0.038
		v0.054l0.558,0.252c0.01,0.051,0.024,0.091,0.042,0.119C8.161,3.061,8.18,3.088,8.2,3.113c0.01,0.01,0.023,0.021,0.038,0.034
		s0.028,0.023,0.038,0.034c0.015,0.016-0.041,0.021-0.168,0.016c0.188,0.117,0.27,0.206,0.244,0.267
		c0.057,0.123,0.079,0.235,0.069,0.337c0,0.046-0.008,0.125-0.023,0.237c-0.01,0.117-0.036,0.171-0.076,0.16
		c0,0.26-0.007,0.354-0.023,0.282c0.016,0.148,0.026,0.273,0.034,0.375s0.014,0.188,0.019,0.26C8.358,5.187,8.36,5.244,8.36,5.287
		c0,0.044,0,0.08,0,0.111c0,0.071-0.013,0.137-0.038,0.198c-0.005,0,0.008,0.008,0.038,0.023C8.35,5.782,8.337,5.816,8.322,5.719
		C8.307,5.908,8.282,6.022,8.246,6.063l0.046,0.129l0.061,0.153h0.1c0,0.102,0.001,0.203,0.004,0.302
		c0.002,0.1,0.016,0.2,0.042,0.302H8.177c-0.081,0-0.163-0.005-0.244-0.015C7.851,6.924,7.773,6.905,7.699,6.877
		C7.625,6.85,7.562,6.809,7.508,6.755S7.416,6.632,7.39,6.545H7.237C7.186,6.596,7.143,6.643,7.107,6.686
		C7.071,6.729,7.037,6.77,7.004,6.809C6.971,6.847,6.933,6.882,6.889,6.915C6.846,6.948,6.793,6.978,6.732,7.003z M6.022,4.978
		C5.971,5.004,5.921,5.035,5.873,5.073C5.824,5.111,5.772,5.131,5.716,5.131L5.617,5.383L6.022,4.978z M5.983,5.391L5.93,5.337
		H5.876C5.841,5.438,5.813,5.52,5.792,5.578C5.772,5.636,5.757,5.687,5.747,5.727c-0.01,0.041-0.021,0.081-0.031,0.119
		S5.693,5.934,5.678,5.994c0.051-0.051,0.084-0.099,0.1-0.146c0.015-0.046,0.048-0.081,0.099-0.106V5.437h0.107V5.391z M6.587,6.292
		C6.618,6.277,6.646,6.27,6.671,6.27c0.026,0,0.049,0.004,0.073,0.012c0.023,0.008,0.055,0.011,0.095,0.011
		c0.026-0.025,0.06-0.059,0.103-0.1c0.043-0.04,0.093-0.073,0.149-0.099C7.153,5.991,7.2,5.891,7.233,5.792
		c0.033-0.1,0.058-0.203,0.076-0.31c0.018-0.107,0.028-0.218,0.03-0.333c0.003-0.114,0.004-0.238,0.004-0.37
		c-0.01,0-0.02-0.002-0.03-0.004C7.303,4.772,7.29,4.771,7.275,4.771c-0.056,0-0.123,0.009-0.199,0.026
		C7,4.815,6.923,4.842,6.847,4.875C6.771,4.907,6.703,4.951,6.645,5.004C6.586,5.058,6.549,5.118,6.534,5.185
		c-0.117,0.061-0.19,0.123-0.218,0.187S6.274,5.521,6.274,5.627c0,0.036,0.001,0.075,0.004,0.119
		c0.002,0.043,0.004,0.09,0.004,0.142c0.025,0,0.042,0.002,0.049,0.008C6.339,5.9,6.355,5.915,6.381,5.94
		C6.355,5.991,6.333,6.031,6.312,6.06s-0.03,0.055-0.03,0.08l0.053,0.053c0.097,0.026,0.157,0.044,0.18,0.054
		C6.538,6.257,6.562,6.271,6.587,6.292z M6.839,3.166l0.046-0.099c-0.051,0-0.091,0.001-0.119,0.004
		C6.739,3.073,6.712,3.088,6.687,3.113v0.053H6.839z M7.237,2.968c0.056,0,0.099-0.021,0.126-0.065
		c0.028-0.043,0.055-0.09,0.08-0.142c-0.051,0-0.1-0.007-0.146-0.022C7.252,2.723,7.217,2.715,7.191,2.715v0.077
		c0,0.041,0.001,0.07,0.004,0.088S7.211,2.927,7.237,2.968z M7.741,6.644c0.025,0,0.051-0.008,0.077-0.022
		c0.025-0.016,0.051-0.022,0.076-0.022c-0.025-0.025-0.04-0.053-0.042-0.081C7.85,6.49,7.848,6.447,7.848,6.392
		C7.792,6.417,7.75,6.433,7.722,6.438c-0.028,0.005-0.055,0.008-0.08,0.008v0.1c0,0.025,0.01,0.042,0.03,0.049
		C7.693,6.602,7.716,6.618,7.741,6.644z M7.794,4.832c0.026-0.024,0.051-0.04,0.077-0.045c0.025-0.006,0.051-0.008,0.076-0.008
		c0-0.051,0.021-0.12,0.065-0.207c0.043-0.086,0.08-0.219,0.11-0.396C8.037,4.303,7.967,4.404,7.913,4.48
		C7.86,4.558,7.828,4.608,7.818,4.634s-0.023,0.05-0.039,0.072C7.765,4.729,7.751,4.754,7.741,4.779c0.01,0,0.018,0.002,0.023,0.008
		C7.785,4.792,7.794,4.808,7.794,4.832z M7.94,5.712h0.1l-0.046-0.1c-0.026,0-0.041,0.004-0.046,0.012
		C7.942,5.632,7.94,5.66,7.94,5.712z M8.047,6.697V6.644c-0.02-0.02-0.04-0.032-0.057-0.038C7.972,6.601,7.958,6.588,7.948,6.567
		v0.13H8.047z M7.994,5.513C8.07,5.437,8.116,5.392,8.131,5.379s0.036-0.02,0.061-0.02L8.23,5.031c0-0.148-0.022-0.15-0.069-0.008
		C8.116,5.161,8.093,5.256,8.093,5.307h-0.1V5.513z"/>
	<path d="M9.354,3.533c0,0.025-0.011,0.04-0.031,0.042C9.303,3.578,9.28,3.579,9.255,3.579c-0.051-0.025-0.109-0.05-0.177-0.072
		C9.013,3.483,8.954,3.459,8.903,3.434C8.877,3.332,8.854,3.223,8.834,3.105C8.814,2.988,8.804,2.879,8.804,2.776
		c0.071-0.021,0.145-0.036,0.218-0.05c0.074-0.013,0.146-0.019,0.218-0.019c0.066,0,0.122,0.007,0.168,0.022
		c0-0.229,0.004-0.451,0.012-0.665s0.036-0.41,0.088-0.588c0.071,0,0.117,0.029,0.138,0.088C9.664,1.624,9.7,1.679,9.751,1.729v-0.1
		h0.253c0-0.025,0.009-0.059,0.026-0.099c0.018-0.041,0.027-0.074,0.027-0.1h0.099c0.025,0.051,0.039,0.101,0.042,0.148
		c0.003,0.049,0.004,0.099,0.004,0.149c-0.025,0.103-0.059,0.201-0.099,0.298c-0.041,0.097-0.074,0.196-0.1,0.299
		c0.051-0.103,0.096-0.185,0.134-0.249c0.038-0.063,0.093-0.096,0.163-0.096c0.026,0.122,0.044,0.255,0.054,0.397
		c0.011,0.143,0.029,0.275,0.054,0.397c0.057-0.021,0.12-0.033,0.191-0.038s0.146-0.008,0.222-0.008h0.139
		c-0.041,0.041-0.067,0.071-0.078,0.092c-0.01,0.021-0.017,0.03-0.022,0.03V2.83l-0.152,0.152c-0.015,0.011-0.021,0.018-0.02,0.02
		c0.002,0.003,0.014,0.004,0.03,0.004c0.019,0,0.04,0.001,0.066,0.004c0.024,0.003,0.05,0.009,0.075,0.02
		c0-0.011,0.006-0.029,0.016-0.058s0.022-0.057,0.038-0.084c0.016-0.028,0.031-0.054,0.05-0.076
		c0.018-0.023,0.031-0.035,0.042-0.035c0.016,0.052,0.027,0.112,0.034,0.184c0.008,0.071,0.012,0.143,0.012,0.214
		s-0.004,0.136-0.012,0.191c-0.007,0.056-0.019,0.094-0.034,0.114h-0.451c-0.025-0.025-0.052-0.042-0.08-0.049
		c-0.027-0.008-0.067-0.024-0.119-0.051c-0.015,0.072-0.027,0.186-0.037,0.341c-0.011,0.155-0.017,0.314-0.017,0.478v0.581
		c0,0.076,0.01,0.144,0.028,0.202c0.018,0.059,0.025,0.126,0.025,0.203v0.45c0.072,0.025,0.107,0.066,0.107,0.122
		c0,0.052-0.018,0.101-0.054,0.149c-0.035,0.049-0.054,0.091-0.054,0.126c0.021,0.021,0.05,0.042,0.089,0.065
		c0.038,0.022,0.107,0.034,0.21,0.034c0.081,0,0.199-0.016,0.352-0.046c0.016,0.092,0.023,0.166,0.023,0.222
		c0,0.057-0.006,0.097-0.015,0.122c-0.012,0.025-0.026,0.046-0.047,0.062l-0.061,0.046l0.099,0.244
		c-0.041,0.026-0.071,0.062-0.092,0.111c-0.021,0.048-0.051,0.072-0.092,0.072c-0.025,0-0.049-0.01-0.068-0.03v-0.1
		c-0.071,0.026-0.137,0.075-0.195,0.149c-0.059,0.073-0.126,0.123-0.203,0.148V6.935c-0.051,0-0.082-0.011-0.095-0.03
		c-0.014-0.021-0.032-0.043-0.058-0.069c0,0.026-0.008,0.051-0.022,0.076c-0.016,0.025-0.023,0.052-0.023,0.077
		c-0.04,0-0.072,0.002-0.095,0.007c-0.024,0.006-0.048,0.008-0.073,0.008c-0.057,0-0.117-0.022-0.184-0.068V6.881H9.751V6.835
		L9.705,6.781V6.735C9.681,6.71,9.653,6.685,9.625,6.659S9.558,6.608,9.507,6.583c-0.011,0.01-0.028,0.016-0.054,0.016
		c-0.035,0-0.061-0.022-0.076-0.065S9.354,6.445,9.354,6.399c0-0.03,0.003-0.058,0.012-0.08c0.007-0.022,0.021-0.034,0.041-0.034
		c0.031,0,0.046-0.019,0.046-0.054H9.301v-0.1H9.255c0-0.051,0.011-0.092,0.03-0.122c0.021-0.031,0.043-0.074,0.069-0.13
		c0-0.051,0.002-0.12,0.007-0.206c0.006-0.087,0.012-0.182,0.02-0.283s0.015-0.202,0.022-0.302s0.012-0.188,0.012-0.264
		c0-0.082-0.002-0.13-0.008-0.146c0.016-0.107,0.023-0.214,0.023-0.321c0-0.132-0.008-0.268-0.023-0.404
		C9.393,3.816,9.375,3.676,9.354,3.533z M9.606,4.733c0.051-0.103,0.08-0.202,0.088-0.302s0.011-0.2,0.011-0.303
		c0.077,0,0.129-0.036,0.157-0.11s0.042-0.137,0.042-0.188H9.858v0.046C9.803,3.902,9.761,3.931,9.732,3.961
		c-0.028,0.031-0.055,0.071-0.08,0.122H9.606V4.58H9.553c0,0.026,0.002,0.051,0.007,0.077C9.565,4.682,9.581,4.708,9.606,4.733z
		 M9.599,4.887c-0.005,0.04-0.021,0.089-0.046,0.145l0.054-0.046V4.802L9.599,4.887z M9.652,3.533c-0.025,0-0.039,0.005-0.039,0.016
		c0,0.016,0.014,0.043,0.039,0.084V3.533z M9.751,6.384v0.1C9.771,6.463,9.787,6.44,9.798,6.415c0-0.005,0.001-0.01,0.003-0.012
		c0.003-0.003,0.004-0.01,0.004-0.02H9.751z M9.912,3.255c0.005-0.023,0.02-0.048,0.046-0.073H9.904v0.076
		c0,0.041-0.002,0.074-0.007,0.1c-0.006,0.025-0.02,0.066-0.039,0.122c0.071-0.025,0.117-0.052,0.138-0.08
		c0.021-0.027,0.056-0.067,0.107-0.118c0-0.025-0.002-0.049-0.004-0.069c-0.003-0.021-0.017-0.03-0.042-0.03h-0.054v0.1
		c-0.011,0-0.022,0.002-0.034,0.008c-0.013,0.005-0.024,0.01-0.035,0.015L9.919,3.319L9.904,3.327
		C9.904,3.302,9.907,3.277,9.912,3.255z M10.202,2.982c0-0.076-0.008-0.141-0.022-0.194c-0.016-0.054-0.023-0.105-0.023-0.156
		c-0.025,0.051-0.051,0.101-0.076,0.148c-0.025,0.049-0.051,0.099-0.076,0.149L10.202,2.982z M10.301,6.537
		c-0.024,0.025-0.045,0.039-0.061,0.042c-0.015,0.003-0.033,0.004-0.054,0.004h-0.03v0.198L10.301,6.537z"/>
	<path d="M11.425,6.254l0.206-0.046c-0.004-0.005-0.01-0.009-0.015-0.012c-0.005-0.002-0.01-0.008-0.015-0.019
		c-0.016-0.015-0.023-0.038-0.023-0.068c0.051-0.052,0.093-0.103,0.126-0.153c0.032-0.051,0.075-0.102,0.126-0.153l-0.053-0.046
		c-0.006,0.006-0.011,0.008-0.016,0.008c0-0.015,0.016-0.056,0.05-0.122c0.032-0.066,0.069-0.137,0.11-0.21
		c0.041-0.074,0.081-0.141,0.123-0.199c0.041-0.058,0.065-0.088,0.075-0.088c0.006,0,0.008,0.003,0.008,0.008
		c0.052-0.071,0.107-0.135,0.168-0.191c0.062-0.056,0.105-0.108,0.13-0.16c0.026-0.051,0.044-0.101,0.054-0.148
		c0.011-0.049,0.028-0.099,0.054-0.149c0.103-0.127,0.195-0.272,0.278-0.436c0.085-0.163,0.19-0.318,0.318-0.467
		c-0.123,0-0.255,0.011-0.397,0.031c-0.144,0.021-0.285,0.03-0.429,0.03c-0.092,0-0.182-0.008-0.271-0.022
		c-0.09-0.016-0.175-0.044-0.256-0.084c-0.052,0.035-0.098,0.053-0.139,0.053c-0.071,0-0.106-0.051-0.106-0.152V3.403
		c0.021,0,0.043-0.008,0.069-0.023l0.029-0.03c0.016-0.035,0.024-0.076,0.024-0.122v-0.1c0-0.02,0.001-0.04,0.003-0.061
		c0.003-0.021,0.009-0.041,0.019-0.062c0.047-0.016,0.085-0.023,0.115-0.023c0.036,0,0.066,0.007,0.092,0.02s0.056,0.029,0.092,0.05
		V2.853h0.054L12.082,2.8h0.046V2.754c0.077,0,0.152,0.004,0.226,0.012c0.074,0.007,0.15,0.036,0.226,0.087
		c0.025-0.024,0.049-0.051,0.069-0.076s0.03-0.051,0.03-0.076c0.076,0,0.124,0.004,0.146,0.012c0.02,0.007,0.056,0.037,0.107,0.088
		c0.05,0,0.1,0.009,0.147,0.026c0.05,0.018,0.098,0.026,0.149,0.026c0.026-0.024,0.041-0.041,0.046-0.049s0.008-0.024,0.008-0.05
		h0.199V2.8c0.025,0,0.048,0.01,0.068,0.03c0.005,0.005,0.011,0.009,0.016,0.012c0.005,0.002,0.011,0.006,0.015,0.011
		c0-0.024,0.009-0.051,0.027-0.076c0.018-0.025,0.026-0.051,0.026-0.076h0.451c0.051,0.051,0.094,0.083,0.13,0.096
		c0.035,0.013,0.092,0.032,0.168,0.057c0.025,0.026,0.042,0.052,0.05,0.077s0.023,0.051,0.05,0.076
		c-0.026,0.071-0.051,0.134-0.076,0.188c-0.025,0.053-0.051,0.105-0.077,0.156v0.054h-0.1l0.1,0.1c-0.025,0-0.039,0.003-0.042,0.008
		s-0.004,0.02-0.004,0.046h0.046c-0.025,0.071-0.06,0.155-0.103,0.252c-0.044,0.097-0.091,0.195-0.142,0.298
		c-0.057,0-0.095,0.026-0.119,0.08c-0.022,0.054-0.034,0.093-0.034,0.119c-0.051,0.025-0.107,0.073-0.172,0.145
		c-0.063,0.071-0.124,0.148-0.184,0.229c-0.058,0.081-0.11,0.158-0.156,0.229s-0.076,0.119-0.093,0.146
		c-0.05,0.051-0.091,0.09-0.121,0.118c-0.031,0.028-0.071,0.055-0.123,0.08c-0.076,0.127-0.143,0.251-0.202,0.371
		c-0.058,0.119-0.126,0.23-0.202,0.332h0.1l-0.046,0.1c0.03,0.015,0.062,0.025,0.095,0.03s0.063,0.008,0.089,0.008
		c0.061,0,0.116-0.013,0.167-0.038c0.123,0,0.246,0.002,0.371,0.008c0.125,0.005,0.251,0.021,0.379,0.046
		c0.07-0.025,0.137-0.053,0.199-0.08c0.06-0.028,0.127-0.07,0.197-0.127c0.026,0.057,0.051,0.099,0.077,0.127
		c0.025,0.027,0.051,0.055,0.076,0.08c-0.025,0.076-0.039,0.117-0.039,0.122c0,0.025,0.029,0.066,0.085,0.122V6.46
		c-0.035,0.026-0.059,0.06-0.068,0.1c-0.011,0.041-0.021,0.083-0.031,0.126c-0.01,0.044-0.023,0.084-0.042,0.123
		c-0.018,0.038-0.053,0.069-0.104,0.096l-0.306-0.047c-0.061,0-0.137,0.012-0.229,0.035c-0.092,0.022-0.18,0.034-0.268,0.034
		c-0.097,0-0.162-0.022-0.198-0.069c-0.117,0.016-0.228,0.041-0.333,0.077c-0.104,0.035-0.212,0.054-0.324,0.054
		c-0.075,0-0.143-0.011-0.198-0.031c-0.025,0-0.096,0.011-0.21,0.031c-0.115,0.02-0.261,0.043-0.44,0.068v-0.1h-0.198l0.1-0.1
		l0.152-0.099V6.705h-0.152c0,0.025-0.02,0.067-0.058,0.126s-0.07,0.101-0.096,0.126c-0.01-0.051-0.018-0.11-0.022-0.18
		c-0.005-0.068-0.008-0.136-0.008-0.202C11.395,6.417,11.404,6.311,11.425,6.254z M12.281,3.35c0.025,0.025,0.046,0.043,0.062,0.054
		c0.015,0.01,0.061,0.028,0.137,0.054l0.054-0.054c-0.056,0-0.1-0.009-0.13-0.026C12.372,3.359,12.332,3.35,12.281,3.35z
		 M12.426,5.956l0.107-0.153c-0.122,0.057-0.206,0.107-0.252,0.153H12.426z M12.679,6.659v-0.1c-0.005,0-0.014,0.004-0.027,0.012
		c-0.013,0.008-0.019,0.02-0.019,0.034L12.679,6.659z M12.778,6.308c-0.021-0.021-0.04-0.033-0.058-0.038
		c-0.019-0.005-0.032-0.018-0.042-0.038v0.022c0,0.025,0.01,0.041,0.03,0.046C12.729,6.306,12.752,6.308,12.778,6.308z
		 M12.732,5.207c0.051-0.025,0.101-0.051,0.148-0.076c0.049-0.025,0.098-0.051,0.149-0.076l0.1-0.153h0.053l0.046-0.046h-0.046
		c-0.057,0.041-0.104,0.074-0.142,0.1c-0.037,0.025-0.069,0.047-0.095,0.064s-0.049,0.035-0.068,0.05
		c-0.021,0.015-0.041,0.033-0.062,0.054L12.732,5.207z M12.932,4.351l0.099-0.099c-0.052,0.025-0.08,0.042-0.088,0.05
		S12.932,4.325,12.932,4.351z M13.083,4.702h0.047l0.053-0.099L13.083,4.702z M13.282,4.558c0.051-0.025,0.088-0.041,0.111-0.046
		c0.022-0.005,0.047-0.008,0.072-0.008h0.069l0.099-0.198c-0.025,0.025-0.052,0.051-0.08,0.076s-0.07,0.051-0.126,0.076h-0.047
		L13.282,4.558z M13.327,4.252h0.101c0.025-0.025,0.051-0.05,0.076-0.073c0.025-0.022,0.051-0.047,0.076-0.072h0.153
		c0,0.025-0.003,0.042-0.007,0.05c-0.006,0.008-0.021,0.024-0.047,0.05h0.054c0.097-0.097,0.145-0.199,0.145-0.306
		c-0.122,0.076-0.231,0.142-0.328,0.194C13.453,4.148,13.379,4.201,13.327,4.252z M13.833,3.701v0.054l0.045-0.054H13.833z
		 M14.229,6.254h-0.1v0.054L14.229,6.254z"/>
	<path d="M2.292,13.719c-0.015,0.006-0.038,0.022-0.069,0.054c-0.025,0-0.051-0.01-0.076-0.027
		c-0.026-0.017-0.051-0.026-0.077-0.026c-0.01,0.051-0.019,0.088-0.027,0.11c-0.007,0.023-0.018,0.038-0.03,0.046
		C2,13.883,1.982,13.89,1.96,13.895c-0.023,0.005-0.053,0.013-0.088,0.022c0-0.025-0.003-0.042-0.008-0.05
		c-0.005-0.007-0.021-0.023-0.046-0.049H1.772c-0.026,0.051-0.054,0.089-0.084,0.114s-0.072,0.038-0.123,0.038v-0.1L1.52,13.818
		c-0.056,0.051-0.089,0.083-0.099,0.095c-0.01,0.014-0.028,0.032-0.053,0.058H1.314l-0.1-0.1c-0.036,0.036-0.076,0.054-0.122,0.054
		c-0.045,0-0.093-0.016-0.142-0.046c-0.048-0.03-0.094-0.068-0.138-0.11c-0.043-0.043-0.083-0.088-0.118-0.135
		c-0.036-0.045-0.064-0.083-0.084-0.113c-0.102-0.052-0.173-0.099-0.214-0.143c-0.041-0.042-0.087-0.115-0.138-0.218
		c-0.051,0-0.077-0.043-0.077-0.13c0-0.045,0.004-0.101,0.012-0.164c0.007-0.064,0.011-0.126,0.011-0.188
		c0-0.051-0.006-0.097-0.019-0.138c-0.013-0.04-0.04-0.068-0.08-0.083c0-0.103-0.004-0.174-0.012-0.214
		c-0.008-0.041-0.037-0.088-0.088-0.138c0-0.072,0.004-0.14,0.012-0.204c0.008-0.063,0.011-0.127,0.011-0.193
		s-0.008-0.136-0.023-0.207h0.046c0.015-0.127,0.026-0.226,0.034-0.295c0.008-0.068,0.014-0.117,0.02-0.148
		c0.005-0.03,0.011-0.048,0.019-0.053C0.133,11,0.142,10.997,0.152,10.997l-0.046-0.054V10.54h0.099
		c0.025-0.062,0.046-0.112,0.062-0.15c0.015-0.038,0.03-0.071,0.045-0.099c0.016-0.028,0.033-0.056,0.054-0.084
		s0.051-0.068,0.091-0.119c0.041-0.02,0.089-0.043,0.146-0.068c0.056-0.025,0.115-0.05,0.176-0.073
		C0.84,9.924,0.901,9.904,0.962,9.886c0.062-0.019,0.12-0.026,0.176-0.026c0.045,0,0.089,0.008,0.13,0.022
		c0-0.025,0.01-0.05,0.03-0.072c0.021-0.023,0.044-0.048,0.069-0.073c0.102,0,0.152,0.033,0.152,0.1
		c0.025-0.025,0.059-0.048,0.1-0.069c0.041-0.02,0.074-0.03,0.099-0.03c0.062,0.077,0.12,0.119,0.176,0.127
		C1.951,9.87,2.003,9.875,2.051,9.878C2.1,9.88,2.143,9.896,2.181,9.924c0.039,0.028,0.07,0.098,0.096,0.21h0.046v-0.1h0.054
		c0-0.274-0.009-0.56-0.027-0.856c-0.018-0.295-0.027-0.58-0.027-0.855c0.102-0.025,0.201-0.051,0.298-0.076
		c0.097-0.025,0.184-0.051,0.26-0.076c0.051,0.076,0.1,0.142,0.149,0.195c0.048,0.053,0.098,0.105,0.149,0.156
		c0,0.076-0.008,0.152-0.023,0.229C3.141,8.827,3.133,8.904,3.133,8.979c0.056,0.093,0.093,0.22,0.111,0.383
		C3.261,9.525,3.271,9.701,3.271,9.89c0,0.229-0.006,0.453-0.019,0.673c-0.013,0.219-0.02,0.396-0.02,0.534
		c0,0.076,0.009,0.151,0.027,0.227c0.018,0.073,0.027,0.147,0.027,0.226c-0.01,0.086-0.015,0.17-0.015,0.252
		c0,0.081,0,0.165,0,0.252c0,0.127,0.001,0.256,0.004,0.386c0.002,0.13,0.004,0.259,0.004,0.387c0,0.214-0.009,0.422-0.027,0.626
		c-0.018,0.204-0.057,0.395-0.119,0.573c-0.077-0.025-0.131-0.063-0.164-0.115c-0.033-0.051-0.062-0.114-0.088-0.19
		c0,0.025-0.009,0.041-0.027,0.05c-0.018,0.007-0.027,0.023-0.027,0.05H2.575c-0.025,0.051-0.042,0.091-0.049,0.122
		c-0.007,0.03-0.024,0.059-0.05,0.084H2.376c0-0.057-0.009-0.108-0.027-0.157c-0.018-0.048-0.027-0.098-0.027-0.148v-0.038
		C2.317,13.7,2.308,13.713,2.292,13.719z M0.511,11.952c-0.041,0.062-0.071,0.111-0.092,0.15c-0.021,0.038-0.038,0.072-0.053,0.103
		S0.335,12.27,0.32,12.309c-0.015,0.038-0.036,0.088-0.061,0.149h0.046v-0.054h0.053c0.026-0.051,0.042-0.101,0.05-0.149
		c0.007-0.048,0.023-0.099,0.049-0.148c0.011,0,0.019-0.004,0.023-0.008c0.02-0.005,0.03-0.021,0.03-0.046V11.952z M0.458,10.792
		c-0.041,0.071-0.067,0.126-0.08,0.163c-0.013,0.038-0.019,0.081-0.019,0.127v0.114c0.051-0.051,0.08-0.118,0.088-0.203
		C0.454,10.909,0.458,10.842,0.458,10.792z M0.71,10.241c-0.076,0.102-0.138,0.186-0.183,0.252c-0.046,0.066-0.069,0.15-0.069,0.252
		c0.026-0.056,0.065-0.118,0.119-0.187c0.054-0.068,0.081-0.143,0.081-0.218H0.71V10.241z M0.81,11.898v0.208h0.053
		c0-0.025-0.002-0.054-0.008-0.08C0.85,11.997,0.835,11.955,0.81,11.898z M0.962,10.745v-0.151c-0.01,0.015-0.02,0.026-0.03,0.037
		l-0.007,0.016L0.962,10.745z M2.223,12.71c0,0.025,0.008,0.037,0.023,0.037c0.02,0,0.03-0.012,0.03-0.037
		c0.005-0.006,0.008-0.013,0.008-0.023v-0.008L2.27,12.656c-0.011-0.031-0.015-0.038-0.015-0.023c0-0.005,0.007-0.012,0.022-0.022
		l-0.054-0.099c0.011-0.006,0.02-0.008,0.027-0.008c0.008,0,0.017-0.003,0.027-0.008v-0.345h0.046v-0.099
		c0.03-0.047,0.046-0.139,0.046-0.275c0-0.077-0.004-0.159-0.012-0.249C2.35,11.439,2.341,11.35,2.33,11.257
		c-0.01-0.091-0.02-0.182-0.03-0.271s-0.018-0.169-0.023-0.241c-0.035,0.021-0.071,0.031-0.107,0.031
		c-0.03,0-0.046-0.028-0.046-0.085H2.07v-0.038c0-0.03-0.002-0.062-0.008-0.099c-0.005-0.036-0.018-0.074-0.038-0.115H1.971v0.101
		l-0.053-0.047v0.145H1.772c0.016-0.015,0.023-0.027,0.023-0.037s-0.003-0.019-0.011-0.023c-0.008-0.006-0.012-0.018-0.012-0.037
		H1.719c0-0.026-0.002-0.052-0.007-0.078c-0.005-0.024-0.021-0.051-0.046-0.076c-0.026,0-0.04-0.002-0.042-0.007
		c-0.003-0.005-0.004-0.036-0.004-0.092c-0.051,0.025-0.087,0.041-0.107,0.046c-0.021,0.005-0.069,0.008-0.145,0.008l-0.054,0.099
		H1.268v0.101H1.214c0,0.051-0.009,0.109-0.027,0.175c-0.018,0.066-0.026,0.124-0.026,0.176c-0.026,0.026-0.043,0.038-0.054,0.038
		c-0.005,0-0.02-0.012-0.046-0.038c0.026,0.077,0.041,0.144,0.046,0.203c0.005,0.058,0.008,0.126,0.008,0.202
		c0,0.051-0.009,0.104-0.027,0.16s-0.027,0.119-0.027,0.191c0.015,0.086,0.023,0.171,0.023,0.251c0,0.098-0.006,0.198-0.019,0.303
		s-0.029,0.208-0.05,0.311c0.025,0.07,0.05,0.145,0.073,0.221c0.023,0.077,0.047,0.153,0.073,0.229c0.025,0,0.043,0.011,0.053,0.032
		c0.01,0.02,0.028,0.043,0.054,0.068l0.1,0.099c0.102,0.026,0.201,0.039,0.298,0.039c0.076,0,0.154-0.006,0.233-0.02
		c0.079-0.013,0.154-0.034,0.225-0.064l0.099-0.101L2.17,12.908H2.124c0.025-0.025,0.042-0.053,0.05-0.079
		C2.181,12.8,2.198,12.761,2.223,12.71z M1.268,10.034c-0.026,0.026-0.041,0.045-0.046,0.058c-0.005,0.013-0.008,0.032-0.008,0.058
		c0-0.011,0.008-0.023,0.023-0.038C1.257,10.091,1.268,10.065,1.268,10.034z M2.376,13.367v0.199
		c0.051-0.077,0.09-0.152,0.118-0.226c0.028-0.074,0.055-0.15,0.08-0.226l-0.045-0.054C2.529,13.209,2.478,13.311,2.376,13.367z
		 M2.422,12.259c-0.016,0.046-0.023,0.097-0.023,0.152c0,0.052,0.004,0.105,0.011,0.161c0.008,0.056,0.012,0.119,0.012,0.191
		c0.056-0.153,0.115-0.285,0.176-0.394c0.061-0.11,0.104-0.216,0.129-0.317c-0.025,0.025-0.042,0.041-0.049,0.046
		c-0.008,0.004-0.024,0.008-0.05,0.008c-0.025,0.05-0.042,0.099-0.05,0.145c-0.007,0.047-0.024,0.081-0.049,0.106
		c0,0.026-0.011,0.041-0.035,0.043c-0.023,0.003-0.047,0.004-0.072,0.004V12.259z M2.479,11.682
		c-0.013,0.019-0.021,0.029-0.027,0.034c-0.01,0.01-0.017,0.018-0.019,0.022c-0.002,0.006-0.006,0.011-0.011,0.016
		c0,0.031,0.018,0.047,0.053,0.047V11.7h0.054l0.045-0.198c-0.015,0.016-0.028,0.038-0.038,0.069c-0.006,0.01-0.008,0.02-0.008,0.03
		C2.509,11.637,2.492,11.664,2.479,11.682z M2.827,8.574C2.802,8.601,2.766,8.617,2.72,8.625C2.674,8.633,2.625,8.648,2.575,8.674
		v0.559C2.625,9.13,2.67,9.03,2.708,8.934c0.039-0.096,0.096-0.184,0.172-0.26c0-0.025-0.009-0.041-0.027-0.049
		S2.827,8.601,2.827,8.574z M2.674,11.296L2.628,11.25v0.146c0.025,0,0.04-0.003,0.042-0.009
		C2.673,11.383,2.674,11.352,2.674,11.296z M2.98,11.854v0.198c0.025-0.062,0.038-0.095,0.038-0.101c0-0.01-0.003-0.022-0.011-0.038
		C3,11.898,2.99,11.88,2.98,11.854z"/>
	<path d="M5.135,14.017c-0.076-0.076-0.146-0.118-0.207-0.126s-0.116-0.016-0.164-0.023c-0.048-0.007-0.092-0.028-0.13-0.064
		s-0.07-0.115-0.096-0.236H4.485v0.099c-0.148,0-0.261-0.035-0.34-0.106c-0.079-0.072-0.131-0.172-0.157-0.299
		c-0.036,0-0.065-0.026-0.088-0.08c-0.022-0.054-0.042-0.125-0.057-0.215c-0.016-0.088-0.025-0.188-0.031-0.297
		s-0.008-0.221-0.008-0.332c0-0.148,0.002-0.285,0.008-0.409c0.005-0.126,0.013-0.213,0.023-0.264
		c0.005-0.01,0.01-0.023,0.016-0.038c0.005-0.016,0.01-0.031,0.015-0.047l0.015-0.068c0.005-0.005,0.007-0.031,0.007-0.076v-0.123
		c-0.025-0.025-0.05-0.048-0.076-0.068c-0.025-0.021-0.051-0.031-0.076-0.031c0-0.05,0.01-0.092,0.03-0.125s0.043-0.075,0.069-0.127
		c0-0.086,0.025-0.19,0.077-0.312c0.05-0.123,0.113-0.244,0.187-0.363c0.074-0.12,0.154-0.229,0.241-0.324
		C4.427,9.861,4.509,9.795,4.585,9.76c0.051,0,0.092,0.007,0.122,0.022c0.031,0.016,0.059,0.023,0.084,0.023
		c0-0.061,0.002-0.104,0.007-0.127C4.804,9.656,4.814,9.643,4.83,9.638C4.845,9.632,4.865,9.63,4.891,9.63S4.949,9.622,4.99,9.606
		v0.1h0.1c0.025-0.071,0.052-0.115,0.08-0.134c0.028-0.018,0.068-0.039,0.119-0.065V9.66h0.1c0.051-0.025,0.08-0.045,0.088-0.057
		c0.008-0.013,0.011-0.045,0.011-0.097h0.099c0.026,0.052,0.042,0.084,0.05,0.097C5.644,9.615,5.66,9.635,5.686,9.66
		C5.736,9.609,5.79,9.584,5.846,9.584c0.051,0,0.102,0.017,0.153,0.05C6.05,9.666,6.097,9.706,6.141,9.752
		c0.043,0.046,0.083,0.093,0.118,0.141c0.036,0.05,0.064,0.088,0.084,0.119c0.102,0.051,0.178,0.104,0.229,0.161
		c0.051,0.056,0.089,0.135,0.114,0.235c0.046,0,0.077,0.018,0.092,0.051s0.023,0.078,0.023,0.135c0,0.04-0.001,0.08-0.003,0.121
		c-0.003,0.041-0.004,0.081-0.004,0.122c0,0.072,0.009,0.137,0.027,0.195c0.018,0.059,0.058,0.101,0.119,0.125
		c0,0.078,0.002,0.143,0.008,0.196c0.005,0.053,0.02,0.104,0.046,0.156v0.604l-0.054,0.046c-0.01,0.127-0.018,0.226-0.023,0.295
		c-0.005,0.068-0.011,0.12-0.019,0.156c-0.008,0.035-0.015,0.059-0.023,0.068C6.867,12.689,6.855,12.7,6.84,12.71h0.053v0.45H6.84
		c-0.041,0.062-0.073,0.111-0.096,0.15c-0.023,0.037-0.043,0.071-0.061,0.103c-0.018,0.029-0.037,0.064-0.057,0.104
		c-0.021,0.038-0.049,0.087-0.084,0.148c-0.056,0.01-0.115,0.026-0.176,0.05s-0.125,0.047-0.191,0.073
		c-0.066,0.025-0.131,0.048-0.195,0.068c-0.064,0.02-0.124,0.03-0.18,0.03c-0.045,0-0.084-0.008-0.114-0.023
		C5.66,13.89,5.629,13.914,5.594,13.94c-0.036,0.024-0.054,0.051-0.054,0.076c-0.051,0-0.09-0.012-0.118-0.034
		c-0.028-0.023-0.055-0.047-0.08-0.073c0,0.026-0.028,0.05-0.084,0.073C5.202,14.005,5.161,14.017,5.135,14.017z M4.134,13.26
		c0.025-0.024,0.051-0.048,0.076-0.069c0.025-0.02,0.051-0.03,0.077-0.03c0-0.07,0.002-0.135,0.007-0.19s0.021-0.109,0.046-0.16
		c-0.036-0.021-0.066-0.03-0.091-0.03c-0.021,0-0.038,0.006-0.05,0.019c-0.012,0.013-0.034,0.034-0.064,0.064V13.26z M4.386,11.157
		c0.025-0.05,0.042-0.1,0.05-0.148c0.007-0.048,0.024-0.098,0.049-0.148h0.1c0.026-0.051,0.042-0.091,0.05-0.119
		c0.007-0.028,0.024-0.054,0.049-0.08H4.639c0-0.051-0.009-0.093-0.027-0.126c-0.018-0.032-0.027-0.075-0.027-0.127
		c-0.025,0.042-0.04,0.069-0.042,0.085c-0.003,0.016-0.004,0.044-0.004,0.084v0.084c-0.051,0.077-0.09,0.135-0.119,0.176
		s-0.049,0.077-0.064,0.106c-0.016,0.031-0.027,0.062-0.035,0.093s-0.019,0.071-0.034,0.121H4.386z M4.539,11.464v-0.106
		c-0.026,0-0.042,0.004-0.049,0.011c-0.008,0.008-0.024,0.04-0.05,0.096H4.539z M5.235,13.413c0.01-0.011,0.02-0.017,0.03-0.02
		c0.01-0.002,0.02-0.007,0.03-0.012l0.054-0.015c0.005-0.005,0.027-0.008,0.068-0.008H5.54v-0.1h0.1v-0.1h0.046
		c0-0.07,0.012-0.137,0.034-0.199c0.023-0.061,0.047-0.126,0.073-0.197h0.046c0-0.077-0.007-0.145-0.023-0.202
		c-0.016-0.06-0.023-0.128-0.023-0.204c0-0.05,0.01-0.107,0.03-0.171c0.021-0.064,0.043-0.121,0.069-0.172
		c-0.031-0.097-0.046-0.198-0.046-0.306c0-0.103,0.008-0.201,0.023-0.299c0.015-0.097,0.023-0.196,0.023-0.298
		c-0.026-0.102-0.051-0.191-0.077-0.271c-0.025-0.078-0.051-0.156-0.076-0.232l-0.1-0.1v-0.153c-0.107-0.03-0.201-0.046-0.283-0.046
		c-0.148,0-0.303,0.051-0.466,0.152c0,0.148-0.021,0.307-0.061,0.475c-0.041,0.168-0.089,0.326-0.146,0.474
		c0.026,0.076,0.041,0.145,0.046,0.202c0.004,0.06,0.007,0.124,0.007,0.195c0.025,0,0.041,0.003,0.046,0.009
		c0.005,0.004,0.008,0.02,0.008,0.045c-0.057,0.106-0.092,0.205-0.107,0.294c-0.015,0.09-0.023,0.181-0.023,0.271
		c0,0.087,0.004,0.176,0.012,0.268c0.007,0.092,0.011,0.198,0.011,0.32h0.054c0,0.026,0.009,0.061,0.027,0.104
		c0.018,0.044,0.027,0.091,0.027,0.142h0.099v-0.046h0.045v-0.152h0.153v0.099h0.046c0,0.026,0.002,0.052,0.008,0.077
		c0.005,0.025,0.02,0.051,0.045,0.076c0.026,0.025,0.04,0.042,0.042,0.05C5.233,13.37,5.235,13.387,5.235,13.413z M5.64,13.665
		c0.025-0.025,0.04-0.042,0.042-0.05c0.003-0.008,0.004-0.024,0.004-0.049c-0.005,0.005-0.009,0.01-0.012,0.015
		c-0.002,0.005-0.006,0.01-0.011,0.016C5.647,13.611,5.64,13.634,5.64,13.665z M5.991,13.115v-0.154
		c-0.025,0.026-0.041,0.053-0.046,0.082c-0.005,0.026-0.008,0.066-0.008,0.117L5.991,13.115z M6.137,11.51H6.09v0.199L6.137,11.51z
		 M6.236,13.467l0.053-0.054H6.236V13.467z M6.366,13.336c0.061-0.056,0.106-0.113,0.134-0.172c0.028-0.058,0.042-0.144,0.042-0.256
		c-0.025,0.077-0.068,0.153-0.126,0.233c-0.059,0.078-0.101,0.169-0.126,0.271c0.01-0.005,0.018-0.012,0.023-0.02
		c0.005-0.008,0.013-0.017,0.023-0.026L6.366,13.336z M6.442,11.663c0.05-0.062,0.09-0.11,0.118-0.146
		c0.028-0.036,0.051-0.07,0.069-0.104c0.018-0.033,0.035-0.068,0.05-0.106s0.035-0.088,0.061-0.15H6.687v0.054H6.587
		c0,0.052-0.008,0.101-0.023,0.15c-0.015,0.048-0.023,0.097-0.023,0.148H6.488L6.442,11.663z M6.584,12.053
		c0.002-0.006,0.003-0.028,0.003-0.069c-0.005,0.006-0.008,0.01-0.008,0.016L6.564,12.03l-0.015,0.015L6.542,12.06
		C6.567,12.06,6.581,12.057,6.584,12.053z M6.564,12.764c0.015-0.057,0.026-0.097,0.03-0.123c0.005-0.025,0.021-0.068,0.046-0.129
		c-0.036,0.024-0.062,0.068-0.077,0.129c-0.015,0.062-0.023,0.12-0.023,0.176V12.9C6.546,12.85,6.554,12.804,6.564,12.764z"/>
	<path d="M8.773,14.056c-0.025-0.026-0.059-0.051-0.1-0.073c-0.041-0.023-0.074-0.034-0.099-0.034c0-0.051,0.003-0.081,0.008-0.092
		s0.021-0.027,0.046-0.054v-0.054c-0.051,0.026-0.082,0.049-0.092,0.069s-0.016,0.042-0.016,0.068v0.015
		c-0.071,0-0.118-0.012-0.141-0.038c-0.023-0.024-0.06-0.063-0.111-0.114H8.07v-0.1c-0.051,0-0.097,0.004-0.138,0.012
		c-0.041,0.008-0.074,0.012-0.099,0.012c-0.031,0-0.054-0.008-0.068-0.023l0.053-0.252c-0.214-0.035-0.321-0.13-0.321-0.282
		c0-0.072,0.022-0.146,0.068-0.223c-0.041-0.214-0.079-0.415-0.115-0.604s-0.053-0.382-0.053-0.58c0-0.046,0.001-0.093,0.004-0.138
		c0.002-0.047,0.006-0.095,0.011-0.146H7.367c0.025-0.07,0.05-0.134,0.072-0.189c0.023-0.057,0.047-0.11,0.073-0.16
		c0-0.012-0.008-0.024-0.023-0.039c-0.005-0.005-0.013-0.008-0.023-0.008v-0.206h0.046c0.015-0.062,0.041-0.131,0.076-0.21
		s0.08-0.153,0.134-0.223c0.053-0.068,0.115-0.128,0.184-0.18c0.069-0.05,0.141-0.081,0.218-0.091c0-0.026,0.007-0.061,0.023-0.104
		c0.015-0.044,0.022-0.077,0.022-0.104c0.036,0,0.069-0.007,0.1-0.022l0.1-0.046c0.061-0.026,0.107-0.038,0.138-0.038
		c0.035,0,0.058,0.002,0.068,0.008c0,0.025,0.009,0.051,0.027,0.076C8.619,9.915,8.628,9.94,8.628,9.966
		C8.653,9.89,8.683,9.837,8.716,9.81C8.749,9.781,8.804,9.767,8.88,9.767v0.199h0.099C9.005,9.89,9.031,9.824,9.06,9.771
		s0.067-0.105,0.118-0.156h0.406l0.29,0.16c0.065,0.036,0.124,0.072,0.176,0.107c0.051,0.036,0.096,0.078,0.137,0.127
		c0.041,0.047,0.078,0.105,0.111,0.171c0.033,0.066,0.065,0.146,0.096,0.236h0.1c-0.026,0.057-0.049,0.109-0.069,0.157
		c-0.021,0.049-0.03,0.099-0.03,0.149c0.025,0.061,0.038,0.13,0.038,0.206c0,0.087-0.015,0.173-0.042,0.26
		c-0.028,0.087-0.062,0.166-0.104,0.236h-0.146c-0.024-0.061-0.064-0.102-0.118-0.121c-0.053-0.021-0.11-0.032-0.171-0.034
		c-0.062-0.003-0.122-0.005-0.181-0.005s-0.105-0.013-0.141-0.038c-0.011-0.086-0.026-0.177-0.046-0.271
		c-0.021-0.094-0.05-0.179-0.089-0.255c-0.038-0.077-0.088-0.141-0.148-0.191c-0.062-0.051-0.135-0.077-0.222-0.077
		c-0.03,0-0.062,0.003-0.096,0.008c-0.033,0.006-0.068,0.016-0.103,0.03c-0.041,0.041-0.084,0.08-0.13,0.115
		S8.609,10.659,8.571,10.7c-0.039,0.04-0.072,0.083-0.1,0.129s-0.042,0.095-0.042,0.146s0.015,0.103,0.046,0.153
		c0,0.025-0.009,0.061-0.027,0.107c-0.018,0.045-0.027,0.094-0.027,0.145c0.025,0.086,0.045,0.184,0.058,0.29
		c0.012,0.107,0.019,0.212,0.019,0.313c0,0.103-0.007,0.203-0.019,0.302c-0.013,0.1-0.032,0.186-0.058,0.256H8.376
		c-0.026,0.026-0.041,0.05-0.046,0.073c-0.005,0.022-0.007,0.048-0.007,0.072H8.269c0,0.056,0.021,0.111,0.065,0.168
		s0.09,0.085,0.142,0.085c0,0.056,0.01,0.11,0.031,0.163c0.02,0.054,0.043,0.119,0.068,0.195h0.054v0.047
		c0.025,0,0.042,0.01,0.05,0.029c0.007,0.021,0.024,0.044,0.049,0.068c0.179,0,0.315-0.033,0.409-0.102
		c0.095-0.069,0.192-0.168,0.295-0.295c0-0.127,0.003-0.244,0.008-0.349c0.004-0.104,0.02-0.207,0.046-0.309l0.1-0.1
		c0.015,0,0.028,0.002,0.041,0.005c0.014,0.002,0.027,0.004,0.042,0.004c0.102,0,0.191-0.012,0.268-0.031
		c0.077-0.021,0.143-0.031,0.199-0.031c0.071,0,0.123,0.029,0.156,0.088c0.033,0.06,0.05,0.181,0.05,0.363
		c0.03,0.071,0.046,0.143,0.046,0.214c0,0.127-0.027,0.252-0.081,0.371c-0.053,0.12-0.092,0.228-0.118,0.325
		c-0.01,0-0.032,0.007-0.068,0.022c-0.035,0.015-0.075,0.034-0.118,0.058c-0.043,0.022-0.089,0.046-0.138,0.068
		c-0.049,0.023-0.091,0.043-0.126,0.058h-0.1c-0.062,0-0.122,0.002-0.184,0.008c-0.061,0.005-0.119,0.019-0.176,0.038
		c-0.102,0.025-0.192,0.053-0.271,0.08C8.927,13.957,8.85,13.999,8.773,14.056z M7.887,11.602c-0.026,0-0.042,0.003-0.05,0.008
		s-0.024,0.02-0.05,0.046v0.199c-0.026,0.025-0.051,0.04-0.076,0.044c-0.025,0.007-0.051,0.009-0.077,0.009
		c0-0.025-0.009-0.061-0.027-0.103c-0.018-0.044-0.027-0.079-0.027-0.104H7.535c0.025,0.103,0.045,0.196,0.061,0.283
		c0.015,0.087,0.061,0.181,0.137,0.283c0.025-0.153,0.058-0.283,0.096-0.39C7.868,11.77,7.887,11.678,7.887,11.602z M7.695,11.135
		C7.645,11.211,7.612,11.256,7.6,11.27c-0.013,0.013-0.032,0.02-0.057,0.02l0.054,0.305v-0.038c0-0.031,0.001-0.063,0.003-0.1
		c0.003-0.035,0.017-0.073,0.042-0.114h0.053V11.135z M7.971,12.878c0.025-0.026,0.046-0.061,0.061-0.103
		c0.015-0.044,0.048-0.075,0.099-0.097l-0.03-0.306h0.046l0.007-0.153l-0.099-0.007c-0.031,0.147-0.05,0.254-0.058,0.317
		c-0.007,0.063-0.014,0.126-0.019,0.188L7.971,12.878z M8.383,10.333l0.053,0.153H8.383v0.099h0.053
		c0.041-0.147,0.067-0.252,0.081-0.313c0.013-0.062,0.019-0.117,0.019-0.168v-0.076C8.485,10.078,8.434,10.18,8.383,10.333z
		 M9.186,9.736V9.89c0.026-0.025,0.039-0.046,0.039-0.062c0-0.011-0.004-0.021-0.012-0.034S9.196,9.762,9.186,9.736z M9.774,12.381
		c-0.025,0-0.053,0.026-0.08,0.077c-0.028,0.051-0.067,0.076-0.119,0.076l0.1,0.412c0.025-0.056,0.042-0.119,0.05-0.19
		s0.024-0.146,0.05-0.222V12.381z M10.24,11.051h-0.054v0.153c0.026,0,0.041-0.007,0.047-0.02
		C10.238,11.172,10.24,11.128,10.24,11.051z"/>
	<path d="M11.67,8.254c0.051,0.051,0.102,0.109,0.152,0.176c0.052,0.066,0.103,0.125,0.153,0.176c0,0.076-0.01,0.152-0.027,0.229
		c-0.017,0.077-0.026,0.154-0.026,0.23c0.057,0.076,0.1,0.183,0.13,0.32s0.046,0.288,0.046,0.451c0,0.112-0.008,0.225-0.023,0.337
		c0.026-0.036,0.053-0.069,0.08-0.1c0.028-0.031,0.056-0.062,0.082-0.093v0.031c0.024-0.01,0.046-0.021,0.063-0.031
		c0.019-0.01,0.037-0.02,0.058-0.03v0.054c0.021-0.016,0.043-0.036,0.064-0.065c0.023-0.027,0.049-0.056,0.077-0.083
		c0.027-0.029,0.056-0.054,0.083-0.077c0.029-0.022,0.058-0.033,0.089-0.033c0.024,0,0.04,0.002,0.047,0.007v0.145
		c0.07-0.025,0.145-0.077,0.221-0.156s0.153-0.144,0.229-0.194v0.206c0.052,0,0.09,0.018,0.115,0.054
		c0.026,0.035,0.038,0.065,0.038,0.091c0.031-0.029,0.046-0.066,0.046-0.106V9.752c0.041-0.01,0.074-0.02,0.1-0.027
		s0.051-0.012,0.076-0.012c0.026,0,0.053,0.004,0.081,0.012c0.027,0.008,0.062,0.018,0.104,0.027v0.046
		c0.024,0,0.041,0.003,0.049,0.008s0.023,0.02,0.049,0.046v0.045h0.047V9.95c0.056,0.097,0.125,0.164,0.205,0.199l0.062-0.016
		c0.04,0,0.072,0.021,0.095,0.061c0.024,0.041,0.035,0.082,0.035,0.123c0,0.091-0.031,0.138-0.092,0.138v0.1h0.1
		c0,0.015,0.002,0.025,0.007,0.03c0.005,0.03,0.021,0.053,0.046,0.068h0.046c-0.025,0.057-0.048,0.101-0.068,0.13
		c-0.021,0.031-0.03,0.072-0.03,0.122c0,0.052-0.004,0.118-0.012,0.199c-0.007,0.082-0.019,0.171-0.031,0.268
		s-0.022,0.196-0.029,0.298c-0.009,0.103-0.012,0.197-0.012,0.282c0,0.057,0.002,0.108,0.008,0.157
		c0.005,0.049,0.015,0.086,0.029,0.11c-0.01,0.057-0.018,0.119-0.021,0.188c-0.006,0.068-0.008,0.138-0.008,0.21
		c0,0.178,0.01,0.357,0.029,0.538c0.021,0.182,0.032,0.361,0.032,0.539c0,0.158-0.012,0.288-0.032,0.391
		c-0.029,0-0.056,0.01-0.075,0.029c-0.006,0.006-0.011,0.01-0.016,0.012c-0.006,0.003-0.011,0.007-0.016,0.012l-0.902-0.099
		c0-0.199,0.006-0.41,0.016-0.635c0.011-0.224,0.016-0.451,0.016-0.68c0-0.185-0.007-0.366-0.019-0.547
		c-0.014-0.182-0.035-0.353-0.066-0.516v-0.506c-0.07-0.024-0.106-0.065-0.106-0.121c0-0.052,0.019-0.101,0.053-0.149
		c0.037-0.049,0.054-0.091,0.054-0.126c-0.02-0.021-0.037-0.035-0.054-0.042c-0.015-0.008-0.05-0.012-0.106-0.012h-0.145
		c-0.025-0.092-0.068-0.157-0.126-0.198c-0.06-0.041-0.121-0.062-0.188-0.062c-0.076,0-0.15,0.028-0.222,0.084
		c-0.041,0.031-0.072,0.072-0.091,0.122c-0.072,0.103-0.108,0.261-0.108,0.475l-0.054,0.054c0,0.075,0.003,0.152,0.008,0.229
		c0.006,0.076,0.021,0.15,0.046,0.222c-0.016,0.138-0.023,0.282-0.023,0.437c0,0.025,0.002,0.053,0.004,0.083
		c0.003,0.03,0.004,0.059,0.004,0.084l0.016,0.635v0.176c0,0.178-0.008,0.354-0.023,0.528c-0.015,0.173-0.043,0.333-0.083,0.481
		c-0.052,0-0.09-0.01-0.119-0.027c-0.027-0.018-0.051-0.041-0.068-0.069c-0.018-0.027-0.034-0.06-0.05-0.096
		c-0.015-0.034-0.035-0.071-0.061-0.106c0,0.025-0.003,0.048-0.008,0.069c-0.005,0.02-0.021,0.03-0.046,0.03
		c-0.051,0.026-0.095,0.039-0.13,0.042c-0.036,0.003-0.077,0.003-0.123,0.003c-0.024,0.026-0.042,0.052-0.05,0.077
		s-0.023,0.051-0.049,0.077h-0.1c-0.025-0.026-0.042-0.062-0.05-0.107c-0.008-0.047-0.023-0.095-0.05-0.146
		c0.052-0.103,0.102-0.203,0.149-0.302c0.048-0.1,0.098-0.2,0.148-0.302l-0.046-0.054c-0.051,0.102-0.098,0.187-0.141,0.256
		c-0.044,0.069-0.116,0.104-0.218,0.104c-0.025-0.153-0.049-0.322-0.069-0.509c-0.021-0.186-0.03-0.353-0.03-0.5
		c0.03-0.021,0.046-0.057,0.046-0.107s-0.008-0.104-0.023-0.16c-0.015-0.057-0.022-0.103-0.022-0.138
		c0.021-0.031,0.038-0.079,0.054-0.146c0.016-0.065,0.026-0.141,0.034-0.226c0.008-0.084,0.013-0.173,0.016-0.268
		s0.004-0.185,0.004-0.271c0-0.118-0.001-0.221-0.004-0.311c-0.003-0.089-0.004-0.154-0.004-0.195
		c0.025-0.075,0.042-0.141,0.054-0.194c0.01-0.054,0.027-0.105,0.053-0.156c0-0.337-0.012-0.665-0.034-0.985
		c-0.022-0.322-0.047-0.65-0.072-0.986c0.127,0,0.243-0.01,0.347-0.031C11.465,8.303,11.567,8.279,11.67,8.254z M11.517,12.137
		c-0.015,0-0.025,0.003-0.03,0.007c-0.025,0.011-0.049,0.026-0.069,0.047c0,0.051-0.008,0.092-0.022,0.126
		c-0.016,0.033-0.023,0.075-0.023,0.126h-0.152v-0.198h-0.1c0.026,0.126,0.042,0.233,0.05,0.321c0.008,0.086,0.024,0.18,0.05,0.282
		c0.077-0.179,0.139-0.323,0.188-0.433C11.454,12.306,11.491,12.213,11.517,12.137z M11.371,11.586
		c-0.056,0.051-0.088,0.083-0.099,0.096s-0.028,0.032-0.054,0.057l-0.054,0.299c0.025-0.051,0.048-0.093,0.069-0.126
		c0.02-0.033,0.03-0.075,0.03-0.126h0.106V11.586z M11.471,10.424c-0.024,0.026-0.052,0.06-0.076,0.1
		c-0.025,0.041-0.051,0.074-0.076,0.1v0.306c-0.025,0.025-0.042,0.041-0.05,0.046c-0.008,0.006-0.024,0.008-0.05,0.008v0.1h0.046
		c0.051-0.112,0.091-0.2,0.118-0.264c0.028-0.063,0.049-0.117,0.062-0.161c0.013-0.043,0.021-0.081,0.022-0.114
		C11.47,10.51,11.471,10.47,11.471,10.424z M11.57,8.659c-0.025,0-0.061,0.009-0.107,0.026c-0.046,0.018-0.094,0.027-0.145,0.027
		v0.604c0.051-0.102,0.095-0.21,0.134-0.325c0.038-0.114,0.096-0.208,0.171-0.278c0-0.011-0.002-0.018-0.007-0.023
		C11.611,8.669,11.596,8.659,11.57,8.659z M11.471,11.334h-0.054v0.152c0.026,0,0.041-0.006,0.046-0.019
		C11.469,11.455,11.471,11.41,11.471,11.334z M13.221,10.202c0.026-0.024,0.05-0.04,0.073-0.046
		c0.022-0.004,0.047-0.007,0.072-0.007c0-0.025,0.003-0.059,0.008-0.1c0.005-0.04,0.021-0.074,0.046-0.1
		c-0.025,0-0.047,0.011-0.064,0.03C13.337,10.002,13.293,10.075,13.221,10.202z M13.673,13.833v-0.084
		c0-0.04,0.002-0.077,0.007-0.111c0.006-0.032,0.021-0.085,0.047-0.156c-0.078,0.025-0.135,0.055-0.173,0.089
		c-0.037,0.032-0.083,0.087-0.134,0.164c0.025,0,0.043,0.01,0.05,0.03c0.008,0.021,0.023,0.043,0.05,0.068H13.673z M13.727,13.13
		v-0.053c0.05-0.026,0.09-0.053,0.117-0.081c0.028-0.028,0.056-0.066,0.081-0.118h0.054V12.32h0.098
		c-0.024-0.025-0.04-0.052-0.044-0.076c-0.007-0.026-0.009-0.052-0.009-0.078c-0.076,0.103-0.12,0.204-0.133,0.307
		c-0.013,0.102-0.02,0.204-0.02,0.307c-0.072,0.024-0.122,0.076-0.153,0.156c-0.03,0.078-0.045,0.144-0.045,0.194H13.727z
		 M13.727,10.401c0.024,0,0.041-0.008,0.049-0.022c0.008-0.016,0.023-0.023,0.049-0.023v-0.1c-0.025,0.026-0.041,0.05-0.049,0.074
		C13.768,10.352,13.751,10.376,13.727,10.401z M13.925,13.481c0.025-0.024,0.038-0.041,0.038-0.046c0-0.01-0.004-0.018-0.012-0.022
		s-0.017-0.016-0.026-0.031V13.481z M14.001,11.983c0.016-0.05,0.022-0.089,0.022-0.114h-0.045v0.237
		c0.004-0.021,0.008-0.041,0.012-0.062C13.992,12.024,13.996,12.004,14.001,11.983z"/>
	<path d="M15.499,8.254c0.051,0.051,0.093,0.1,0.126,0.145c0.032,0.047,0.075,0.082,0.127,0.107c0,0.076-0.003,0.142-0.008,0.195
		c-0.006,0.053-0.021,0.107-0.046,0.164c0.065,0.066,0.11,0.152,0.132,0.26c0.024,0.107,0.035,0.227,0.035,0.359
		c0,0.179-0.013,0.356-0.042,0.535c-0.027,0.178-0.053,0.318-0.071,0.42c0.024,0.076,0.04,0.142,0.045,0.195
		s0.008,0.105,0.008,0.157c-0.011,0.117-0.03,0.221-0.057,0.312c-0.029,0.092-0.057,0.183-0.085,0.271
		c-0.027,0.089-0.054,0.181-0.076,0.274c-0.023,0.095-0.035,0.204-0.035,0.326s0.016,0.27,0.046,0.442
		c-0.05,0-0.088,0.008-0.11,0.023s-0.044,0.022-0.064,0.022c-0.021,0-0.046-0.015-0.077-0.046c0,0.026-0.003,0.042-0.008,0.05
		c-0.004,0.008-0.02,0.024-0.045,0.05H15.04c-0.005,0.006-0.011,0.008-0.015,0.008v-0.008c0-0.015,0.004-0.041,0.015-0.076
		s0.016-0.059,0.016-0.069l-0.016-0.007l-0.153,0.053V12.22c0.036-0.05,0.059-0.079,0.066-0.087c0.007-0.008,0.019-0.03,0.034-0.064
		l0.053-0.107c-0.041,0.056-0.068,0.084-0.084,0.084c-0.031,0-0.067-0.023-0.11-0.068c-0.044-0.047-0.084-0.101-0.122-0.165
		c-0.038-0.063-0.072-0.129-0.101-0.195c-0.027-0.065-0.041-0.119-0.041-0.16c0.041-0.025,0.061-0.069,0.061-0.13
		c0-0.035-0.006-0.069-0.02-0.1c-0.013-0.03-0.026-0.056-0.041-0.076c0.035-0.035,0.064-0.104,0.088-0.207
		c0.022-0.102,0.038-0.21,0.045-0.324c0.009-0.114,0.013-0.223,0.016-0.324c0.003-0.103,0.005-0.173,0.005-0.214
		c0.05-0.098,0.102-0.199,0.151-0.307c0-0.111-0.007-0.22-0.022-0.325c-0.015-0.104-0.033-0.207-0.054-0.309
		c-0.02-0.102-0.037-0.204-0.053-0.307c-0.016-0.102-0.022-0.211-0.022-0.328c0.102-0.031,0.228-0.074,0.378-0.13
		C15.263,8.32,15.392,8.279,15.499,8.254z M14.934,13.895c-0.052-0.051-0.093-0.074-0.127-0.068
		c-0.033,0.005-0.075-0.006-0.125-0.031c0.024-0.025,0.04-0.06,0.045-0.104c0.005-0.043,0.009-0.076,0.009-0.103
		c-0.026-0.071-0.039-0.161-0.039-0.268c0-0.056,0.002-0.116,0.008-0.18c0.005-0.063,0.016-0.134,0.031-0.21
		c0.075,0.025,0.149,0.036,0.221,0.029c0.071-0.004,0.132,0.02,0.183,0.069v-0.053h0.307l0.099-0.1h0.107
		c0.025,0.025,0.04,0.052,0.043,0.076c0.002,0.026,0.004,0.051,0.004,0.076c-0.026,0.016-0.039,0.025-0.039,0.031l0.023,0.022v0.008
		c0,0.005-0.011,0.018-0.031,0.038l-0.054,0.152c0.021-0.02,0.034-0.04,0.043-0.061c0.008-0.021,0.017-0.037,0.026-0.05
		s0.028-0.022,0.054-0.03s0.068-0.012,0.13-0.012c0.025,0.077,0.04,0.161,0.046,0.256c0.005,0.095,0.008,0.181,0.008,0.256
		c-0.041,0-0.062,0.021-0.062,0.062c0,0.062,0.021,0.092,0.062,0.092c-0.031,0.01-0.044,0.016-0.039,0.016
		c-0.02,0-0.037-0.016-0.05-0.046c-0.012-0.03-0.022-0.066-0.03-0.107c-0.008-0.04-0.015-0.083-0.019-0.13
		c-0.005-0.046-0.011-0.082-0.015-0.106v-0.039l-0.154,0.153c0,0.076,0.008,0.124,0.023,0.142s0.033,0.03,0.054,0.038
		s0.038,0.021,0.054,0.038s0.023,0.065,0.023,0.142c-0.072,0-0.158-0.004-0.261-0.012c-0.102-0.008-0.204-0.012-0.306-0.012
		c-0.051,0-0.098,0.002-0.138,0.004C15.007,13.878,14.969,13.885,14.934,13.895z M15.04,10.792c0,0.056-0.009,0.098-0.026,0.126
		c-0.019,0.027-0.026,0.055-0.026,0.079h-0.153v-0.151h-0.046c0,0.056-0.003,0.102-0.008,0.141
		c-0.005,0.038-0.007,0.077-0.007,0.118c0,0.062,0.02,0.128,0.061,0.199c0.071-0.117,0.131-0.214,0.18-0.291
		c0.049-0.076,0.085-0.152,0.11-0.229l-0.015,0.009H15.04z M14.887,13.237c0.052-0.025,0.085-0.04,0.101-0.047
		c0.016-0.004,0.048-0.007,0.098-0.007V13.03c-0.024,0.025-0.041,0.049-0.049,0.069c-0.008,0.02-0.023,0.03-0.049,0.03h-0.054
		L14.887,13.237z M15.392,8.56c-0.025,0-0.062,0.008-0.106,0.022c-0.046,0.016-0.095,0.023-0.146,0.023l-0.054,0.412
		c0.078-0.055,0.138-0.124,0.181-0.206c0.043-0.081,0.104-0.149,0.18-0.206C15.409,8.605,15.392,8.59,15.392,8.56z M15.192,10.594
		h-0.054v0.098L15.192,10.594z M15.346,11.556c-0.056,0.051-0.091,0.08-0.106,0.088c-0.016,0.007-0.049,0.012-0.101,0.012v0.259
		c0.026-0.056,0.043-0.098,0.051-0.126c0.008-0.027,0.024-0.055,0.05-0.079h0.054L15.346,11.556z M15.192,13.436
		c0.051-0.024,0.085-0.049,0.101-0.068c0.015-0.021,0.048-0.031,0.099-0.031l0.054-0.152h0.054V13.13h-0.054
		c-0.052,0.052-0.091,0.09-0.118,0.119c-0.028,0.027-0.051,0.052-0.069,0.072s-0.03,0.038-0.037,0.053
		C15.213,13.389,15.203,13.411,15.192,13.436z M15.698,8.965c-0.052,0.025-0.085,0.06-0.101,0.104
		c-0.015,0.043-0.048,0.077-0.099,0.103v0.198h-0.107v0.1h0.054c0.051-0.076,0.091-0.135,0.118-0.176
		c0.028-0.04,0.051-0.077,0.068-0.111c0.019-0.032,0.031-0.064,0.038-0.095C15.679,9.057,15.688,9.016,15.698,8.965z"/>
</g>
</svg>
