<?xml version="1.0" encoding="utf-8"?>
<!-- Generator: Adobe Illustrator 15.0.0, SVG Export Plug-In . SVG Version: 6.00 Build 0)  -->
<!DOCTYPE svg PUBLIC "-//W3C//DTD SVG 1.1//EN" "http://www.w3.org/Graphics/SVG/1.1/DTD/svg11.dtd">
<svg version="1.1" id="Ebene_1" xmlns="http://www.w3.org/2000/svg" xmlns:xlink="http://www.w3.org/1999/xlink" x="0px" y="0px"
	 width="32px" height="32px" viewBox="0 0 32 32" enable-background="new 0 0 32 32" xml:space="preserve">
<g>
	<path d="M2.438,5.92c0.041-0.042,0.092-0.061,0.154-0.061c0.05,0,0.101,0.018,0.153,0.053c0.051,0.037,0.102,0.055,0.152,0.055
		c0.032-0.124,0.054-0.209,0.07-0.261c0.014-0.05,0.035-0.083,0.061-0.092c0.025-0.01,0.055-0.016,0.093-0.016
		c0.035,0,0.094-0.016,0.175-0.045v0.198h0.2c0.05-0.143,0.094-0.23,0.13-0.268c0.035-0.035,0.125-0.078,0.268-0.129v0.305H4
		c0.103-0.05,0.161-0.088,0.176-0.113c0.016-0.025,0.022-0.09,0.022-0.192H4.4C4.452,5.456,4.484,5.515,4.499,5.53
		c0.016,0.016,0.048,0.023,0.1,0.023C4.66,5.491,4.732,5.459,4.814,5.459c0.091,0,0.187,0.038,0.284,0.108
		C5.193,5.64,5.287,5.724,5.373,5.821C5.46,5.918,5.531,6.018,5.587,6.12c0.056,0.102,0.096,0.184,0.116,0.245
		C5.906,6.466,6.05,6.56,6.132,6.64c0.082,0.083,0.173,0.225,0.275,0.431c0.112,0,0.168,0.122,0.168,0.366
		c0,0.063-0.002,0.132-0.007,0.208C6.563,7.722,6.561,7.796,6.561,7.867c0,0.143,0.015,0.268,0.047,0.375
		c0.03,0.108,0.095,0.183,0.199,0.221c0,0.155,0.004,0.284,0.016,0.392c0.009,0.108,0.04,0.211,0.091,0.316v1.103
		c0,0.05-0.021,0.082-0.061,0.091c-0.01,0.01-0.026,0.016-0.045,0.016c-0.032,0.336-0.054,0.563-0.069,0.682
		c-0.016,0.117-0.023,0.202-0.023,0.252v0.063l0.092,0.105l-0.092,0.799H6.608c-0.053,0.122-0.093,0.221-0.124,0.298
		c-0.03,0.077-0.061,0.145-0.092,0.208c-0.031,0.061-0.067,0.12-0.107,0.176c-0.041,0.055-0.097,0.129-0.169,0.221
		c-0.153,0.083-0.347,0.172-0.583,0.269c-0.234,0.098-0.454,0.145-0.658,0.145c-0.174,0-0.298-0.036-0.369-0.106
		C4.456,13.595,4.41,13.674,4.37,13.73c-0.042,0.057-0.063,0.109-0.063,0.16c-0.102,0-0.183-0.02-0.245-0.061
		C4,13.789,3.944,13.742,3.894,13.691c0,0.051-0.036,0.098-0.108,0.139c-0.072,0.042-0.132,0.061-0.183,0.061
		c-0.153-0.153-0.292-0.237-0.415-0.252c-0.122-0.017-0.234-0.026-0.336-0.032c-0.103-0.004-0.192-0.035-0.269-0.092
		c-0.077-0.055-0.141-0.196-0.192-0.421H2.3v0.092c0,0.613,0.014,1.215,0.046,1.802c0.031,0.585,0.045,1.158,0.045,1.708
		c-0.205,0.051-0.403,0.1-0.598,0.145C1.6,16.888,1.4,16.911,1.196,16.911c-0.102-0.114-0.187-0.22-0.253-0.316
		C0.876,16.5,0.792,16.4,0.69,16.298c0-0.204,0.003-0.382,0.008-0.529c0.005-0.149,0.033-0.275,0.084-0.376
		c-0.144-0.174-0.24-0.425-0.292-0.752c-0.05-0.325-0.076-0.674-0.076-1.042c0-0.449,0.023-0.897,0.068-1.347
		c0.046-0.451,0.079-0.807,0.1-1.074c-0.05-0.143-0.079-0.294-0.085-0.453c-0.003-0.159-0.007-0.338-0.007-0.544
		c0.01-0.143,0.015-0.281,0.015-0.413c0-0.134,0-0.271,0-0.416V8.987l-0.03-1.257V7.377c0-0.359,0.015-0.705,0.046-1.042
		S0.609,5.671,0.69,5.354c0.154,0,0.265,0.065,0.338,0.192c0.07,0.127,0.158,0.269,0.26,0.421V5.751c0.07,0,0.138-0.007,0.199-0.023
		c0.062-0.014,0.127-0.021,0.2-0.021c0.072,0,0.139,0.016,0.199,0.045c0-0.102,0.019-0.18,0.054-0.236
		c0.036-0.055,0.052-0.109,0.052-0.161H2.3v0.137c0,0.082,0.002,0.159,0.007,0.231c0.005,0.07,0.033,0.152,0.084,0.245L2.438,5.92z
		 M0.997,9.416c0.011-0.01,0.011-0.021,0-0.031V9.416z M1.396,16.206c0.05-0.051,0.117-0.098,0.198-0.139
		c0.082-0.041,0.149-0.061,0.199-0.061l0.092-1.103c-0.061,0.061-0.118,0.141-0.168,0.246l-0.123,0.29
		c-0.041,0.104-0.084,0.205-0.13,0.307c-0.046,0.103-0.105,0.19-0.176,0.261c0,0.032,0.005,0.051,0.015,0.061
		C1.314,16.13,1.344,16.174,1.396,16.206z M2.192,8.267L2.3,8.174C2.249,8.123,2.219,8.07,2.207,8.013
		C2.197,7.957,2.192,7.872,2.192,7.761C2.11,7.935,2.039,8.096,1.978,8.242C1.917,8.391,1.86,8.52,1.809,8.634
		c-0.041,0.102-0.08,0.202-0.116,0.298C1.658,9.03,1.626,9.13,1.594,9.231c0.011-0.009,0.02-0.018,0.032-0.023
		c0.01-0.006,0.019-0.012,0.03-0.023c0.009-0.01,0.056-0.014,0.137-0.014c0-0.104,0.016-0.202,0.047-0.3
		c0.03-0.098,0.045-0.196,0.045-0.299h0.306V8.267z M1.594,10.779h0.199v-0.2c-0.05,0-0.084,0.008-0.1,0.023
		C1.679,10.618,1.646,10.677,1.594,10.779z M1.594,12.68c0.051-0.102,0.105-0.198,0.161-0.284c0.056-0.086,0.135-0.155,0.237-0.208
		v-0.613H2.1v-0.29H1.992c-0.081,0.223-0.145,0.399-0.191,0.529c-0.046,0.127-0.08,0.235-0.1,0.321
		c-0.021,0.086-0.037,0.168-0.053,0.245C1.633,12.458,1.614,12.557,1.594,12.68z M2.192,6.656V6.256
		c-0.05,0.155-0.104,0.304-0.16,0.445c-0.056,0.145-0.137,0.267-0.238,0.37l0.092,0.09C1.937,7.06,1.989,6.964,2.039,6.869
		C2.09,6.78,2.142,6.707,2.192,6.656z M1.793,10.274c0.154-0.103,0.246-0.161,0.276-0.177c0.03-0.015,0.072-0.023,0.122-0.023V9.508
		c-0.01,0.02-0.017,0.045-0.022,0.076c-0.005,0.03-0.019,0.061-0.038,0.092C2.11,9.715,2.087,9.755,2.062,9.792
		c-0.026,0.035-0.048,0.062-0.07,0.083H1.886L1.793,10.274z M3.802,12.68c0.041-0.041,0.084-0.066,0.13-0.076
		c0.046-0.01,0.171-0.016,0.375-0.016v-0.107c0-0.02,0.006-0.031,0.016-0.031h0.031L4.4,12.481v-0.198h0.107
		c0.052-0.145,0.096-0.272,0.139-0.386c0.039-0.112,0.061-0.22,0.061-0.321c0-0.061,0.03-0.092,0.092-0.092
		c0-0.102-0.002-0.219-0.008-0.353C4.785,11,4.758,10.882,4.706,10.779c0.052-0.102,0.084-0.22,0.099-0.353
		c0.017-0.133,0.049-0.25,0.1-0.352C4.844,9.879,4.814,9.686,4.814,9.492c0-0.185,0.016-0.367,0.045-0.545
		c0.03-0.178,0.046-0.37,0.046-0.573c-0.051-0.155-0.083-0.308-0.1-0.461C4.79,7.761,4.758,7.612,4.706,7.469
		c-0.051-0.05-0.097-0.084-0.138-0.1c-0.041-0.016-0.062-0.049-0.062-0.1V6.964C4.395,6.932,4.294,6.907,4.209,6.885
		c-0.088-0.02-0.172-0.03-0.254-0.03c-0.143,0-0.281,0.027-0.413,0.084C3.408,6.995,3.26,7.071,3.097,7.161
		c0,0.298-0.039,0.6-0.116,0.905C2.906,8.374,2.841,8.675,2.79,8.971c0,0.152,0.005,0.288,0.016,0.405
		c0.01,0.117,0.041,0.249,0.091,0.392c-0.091,0.235-0.152,0.446-0.185,0.634c-0.03,0.19-0.045,0.387-0.045,0.591
		c0,0.143,0.006,0.296,0.016,0.46c0.009,0.163,0.016,0.343,0.016,0.537H2.79c0.051,0.05,0.082,0.117,0.092,0.198
		c0.01,0.082,0.015,0.148,0.015,0.2l0.2,0.092v-0.198h0.106v-0.199h0.2c0,0.07,0.031,0.105,0.092,0.105l0.107,0.094v0.306
		c0.051,0,0.083,0.002,0.099,0.008C3.717,12.6,3.751,12.63,3.802,12.68z M4.4,13.186c0.102-0.051,0.161-0.084,0.175-0.1
		c0.016-0.015,0.024-0.049,0.024-0.099L4.4,13.186z M5.059,12.205c0.011-0.01,0.025-0.016,0.045-0.016v-0.276l-0.045,0.139
		c-0.031,0.051-0.046,0.123-0.046,0.215C5.013,12.246,5.028,12.226,5.059,12.205z M5.304,9.476l0.107-0.305H5.304V9.476z
		 M5.503,12.894c0.205-0.204,0.358-0.372,0.46-0.505s0.153-0.302,0.153-0.505c-0.052,0.102-0.133,0.225-0.245,0.369
		c-0.113,0.143-0.168,0.286-0.168,0.428H5.611L5.503,12.894z M5.901,9.476c0.102-0.124,0.184-0.221,0.246-0.299
		C6.208,9.1,6.254,9.031,6.285,8.971C6.316,8.908,6.339,8.84,6.354,8.764c0.016-0.077,0.034-0.177,0.054-0.3H6.316v0.108H6.208
		c0,0.104-0.017,0.202-0.046,0.299s-0.046,0.195-0.046,0.3H6.009L5.901,9.476z M6.116,10.274c0.051-0.051,0.076-0.086,0.076-0.108
		c0.011-0.01,0.017-0.055,0.017-0.138c-0.02,0.051-0.042,0.094-0.061,0.129C6.125,10.195,6.116,10.232,6.116,10.274z M6.162,11.547
		c0.021-0.063,0.033-0.118,0.038-0.169c0.006-0.051,0.009-0.104,0.009-0.155v-0.245c-0.052,0.112-0.083,0.245-0.092,0.399v0.352
		C6.125,11.639,6.142,11.576,6.162,11.547z"/>
	<path d="M9.074,2.426C9.187,2.579,9.292,2.71,9.39,2.817c0.097,0.106,0.195,0.212,0.297,0.313c0,0.153-0.017,0.306-0.052,0.46
		C9.598,3.744,9.581,3.896,9.581,4.049c0.143,0.165,0.24,0.405,0.291,0.72c0.051,0.318,0.077,0.66,0.077,1.029
		c0,0.419-0.02,0.84-0.061,1.265C9.846,7.486,9.815,7.832,9.795,8.097C9.846,8.25,9.892,8.401,9.933,8.55
		C9.974,8.696,9.995,8.848,9.995,9C9.984,9.114,9.976,9.226,9.971,9.339C9.966,9.451,9.963,9.564,9.963,9.676
		c0,0.378,0.013,0.763,0.039,1.157c0.025,0.392,0.039,0.784,0.039,1.171c0,0.329-0.015,0.649-0.046,0.968
		c-0.032,0.314-0.098,0.613-0.199,0.887c-0.104,0-0.185-0.018-0.246-0.053c-0.062-0.035-0.115-0.082-0.16-0.137
		c-0.047-0.057-0.092-0.122-0.139-0.192c-0.046-0.072-0.104-0.149-0.177-0.231v0.215c-0.102,0-0.202,0.016-0.298,0.046
		c-0.097,0.03-0.196,0.046-0.298,0.046c0,0.051-0.021,0.102-0.062,0.152c-0.042,0.051-0.086,0.102-0.139,0.153H8.062
		c0-0.051-0.015-0.122-0.044-0.213c-0.032-0.092-0.048-0.191-0.048-0.292c0.102-0.204,0.187-0.405,0.253-0.605
		c0.067-0.198,0.15-0.401,0.253-0.605v-0.108c-0.103,0.257-0.2,0.437-0.292,0.545c-0.092,0.107-0.265,0.161-0.521,0.161
		c-0.051-0.296-0.098-0.63-0.138-1.005c-0.041-0.372-0.061-0.713-0.061-1.019c0.071-0.031,0.108-0.111,0.108-0.245
		c0-0.092-0.014-0.184-0.039-0.276c-0.026-0.092-0.049-0.152-0.069-0.184c0.083-0.133,0.139-0.372,0.169-0.72
		C7.664,8.945,7.68,8.593,7.68,8.234c0-0.225-0.003-0.43-0.008-0.621C7.667,7.426,7.664,7.279,7.664,7.177
		c0.051-0.102,0.102-0.208,0.154-0.315C7.869,6.756,7.92,6.625,7.97,6.472c0-0.613-0.032-1.236-0.099-1.871
		c-0.067-0.632-0.1-1.255-0.1-1.871l0.613-0.152c0.103-0.02,0.209-0.045,0.322-0.077C8.818,2.471,8.941,2.445,9.074,2.426z
		 M8.783,10.013c-0.051,0.051-0.087,0.084-0.108,0.1c-0.021,0.016-0.056,0.049-0.106,0.1c0,0.05-0.021,0.119-0.062,0.205
		c-0.041,0.088-0.087,0.157-0.137,0.208c0,0.051-0.021,0.081-0.062,0.084c-0.041,0.005-0.087,0.007-0.139,0.007
		c0-0.051-0.004-0.117-0.015-0.2c-0.011-0.08-0.041-0.146-0.092-0.198H7.97c0,0.204,0.008,0.404,0.023,0.597
		c0.015,0.194,0.074,0.368,0.176,0.521c0.103-0.308,0.217-0.57,0.346-0.789C8.643,10.429,8.732,10.217,8.783,10.013z M8.477,9
		c-0.051,0.052-0.09,0.09-0.115,0.116C8.336,9.142,8.311,9.165,8.286,9.185C8.261,9.206,8.232,9.224,8.201,9.239
		c-0.032,0.016-0.077,0.04-0.139,0.068V9.92c0.051-0.111,0.087-0.197,0.107-0.26C8.191,9.6,8.226,9.518,8.277,9.416H8.37L8.477,9z
		 M8.675,6.672c-0.05,0.111-0.104,0.211-0.16,0.297C8.459,7.058,8.38,7.126,8.277,7.177V7.79H8.169v0.2h0.107
		c0.072-0.204,0.128-0.365,0.169-0.484c0.042-0.118,0.071-0.218,0.091-0.298C8.559,7.126,8.579,7.048,8.6,6.969
		C8.62,6.894,8.646,6.793,8.675,6.672z M8.875,3.239c-0.051,0.05-0.123,0.081-0.215,0.092C8.569,3.341,8.472,3.346,8.37,3.346v1.21
		c0.102-0.203,0.191-0.421,0.269-0.651C8.714,3.676,8.83,3.489,8.982,3.346C8.911,3.346,8.875,3.309,8.875,3.239z M8.569,8.496
		v0.307l0.106-0.307H8.569z"/>
	<path d="M13.564,13.967c-0.07-0.02-0.143-0.041-0.214-0.061c-0.072-0.02-0.148-0.042-0.229-0.063
		c-0.022-0.009-0.047-0.025-0.078-0.045c-0.051-0.041-0.092-0.111-0.123-0.213c-0.02-0.01-0.041-0.016-0.061-0.016
		c-0.021,0-0.051-0.006-0.092-0.015c-0.021,0.051-0.053,0.082-0.1,0.092c-0.045,0.009-0.097,0.014-0.152,0.007
		c-0.056-0.006-0.108-0.014-0.153-0.024c-0.046-0.009-0.085-0.009-0.115,0c-0.051,0.053-0.144,0.049-0.276-0.008
		c-0.132-0.057-0.276-0.109-0.429-0.16c-0.021-0.07-0.046-0.143-0.078-0.215c-0.03-0.07-0.056-0.141-0.075-0.214
		c-0.094-0.266-0.195-0.564-0.308-0.897c-0.111-0.333-0.194-0.703-0.245-1.112c0.031-0.223,0.081-0.404,0.154-0.535
		c0.091-0.155,0.281-0.362,0.566-0.628c0.307-0.276,0.464-0.419,0.476-0.429l0.077,0.061c0.265-0.255,0.541-0.417,0.827-0.482
		c0.287-0.068,0.633-0.102,1.043-0.102c0.101-0.051,0.161-0.086,0.176-0.106c0.015-0.021,0.023-0.056,0.023-0.107
		c0.102-0.051,0.201-0.098,0.3-0.137c0.096-0.042,0.201-0.062,0.313-0.062V8.189c-0.031-0.155-0.049-0.292-0.054-0.415
		c-0.004-0.123-0.012-0.228-0.023-0.313c-0.01-0.087-0.031-0.157-0.061-0.208c-0.031-0.051-0.088-0.086-0.169-0.108
		c-0.153-0.041-0.304-0.074-0.452-0.106c-0.149-0.031-0.335-0.082-0.561-0.154c-0.051,0-0.102,0.016-0.152,0.047
		c-0.052,0.032-0.103,0.045-0.154,0.045c-0.009,0.053-0.021,0.1-0.03,0.146c-0.011,0.045-0.021,0.094-0.03,0.145
		c-0.021,0.092-0.037,0.202-0.047,0.329c-0.009,0.129-0.04,0.295-0.091,0.499c-0.041,0-0.095,0-0.161,0
		c-0.067,0-0.156,0.004-0.269,0.014c0.071-0.009,0.051-0.05-0.062-0.121c-0.051-0.032-0.142-0.042-0.275-0.032
		c-0.133,0.082-0.302,0.121-0.507,0.116C11.491,8.07,11.24,8.041,10.943,7.99c0-0.226,0.019-0.419,0.054-0.582
		c0.037-0.165,0.09-0.315,0.161-0.452c0.072-0.14,0.159-0.276,0.261-0.416c0.101-0.137,0.215-0.292,0.337-0.466
		c0.143-0.155,0.297-0.284,0.46-0.392c0.163-0.106,0.347-0.212,0.551-0.316c0.286-0.049,0.58-0.114,0.881-0.189
		c0.302-0.077,0.6-0.116,0.897-0.116c0.112,0,0.22,0.005,0.322,0.016c0.102,0.01,0.209,0.035,0.322,0.076v0.107l1.119,0.506
		c0.02,0.102,0.048,0.182,0.084,0.239c0.036,0.055,0.074,0.109,0.115,0.161c0.021,0.019,0.046,0.042,0.076,0.068
		c0.031,0.026,0.055,0.047,0.076,0.069c0.031,0.031-0.082,0.041-0.337,0.031c0.378,0.235,0.541,0.413,0.49,0.534
		c0.114,0.247,0.159,0.473,0.139,0.676c0,0.092-0.016,0.251-0.047,0.476c-0.02,0.235-0.071,0.343-0.153,0.321
		c0,0.521-0.015,0.71-0.046,0.566c0.031,0.298,0.053,0.548,0.068,0.752c0.017,0.204,0.029,0.378,0.039,0.521
		c0.011,0.143,0.016,0.258,0.016,0.344c0,0.088,0,0.161,0,0.224c0,0.143-0.025,0.274-0.076,0.397c-0.01,0,0.016,0.016,0.076,0.047
		c-0.021,0.325-0.045,0.394-0.076,0.198c-0.03,0.379-0.081,0.608-0.154,0.691l0.092,0.258l0.122,0.308h0.2
		c0,0.203,0.002,0.407,0.008,0.605c0.005,0.199,0.032,0.401,0.085,0.604h-0.645c-0.163,0-0.326-0.01-0.489-0.03
		c-0.164-0.021-0.319-0.059-0.468-0.115c-0.148-0.054-0.277-0.137-0.383-0.244c-0.106-0.108-0.186-0.248-0.237-0.421h-0.307
		c-0.102,0.102-0.189,0.195-0.26,0.282c-0.072,0.088-0.142,0.168-0.208,0.247c-0.067,0.077-0.143,0.147-0.23,0.213
		C13.793,13.857,13.688,13.917,13.564,13.967z M12.14,9.905c-0.103,0.053-0.202,0.115-0.299,0.191
		c-0.098,0.077-0.203,0.116-0.315,0.116l-0.199,0.505L12.14,9.905z M12.062,10.733l-0.107-0.107h-0.106
		c-0.072,0.204-0.127,0.366-0.169,0.483c-0.041,0.116-0.071,0.218-0.091,0.298c-0.021,0.083-0.042,0.163-0.062,0.239
		c-0.021,0.076-0.046,0.176-0.077,0.297c0.102-0.102,0.168-0.198,0.2-0.291c0.03-0.092,0.097-0.163,0.199-0.214v-0.613h0.214V10.733
		z M13.273,12.542c0.062-0.03,0.119-0.045,0.169-0.045c0.052,0,0.099,0.008,0.146,0.023c0.046,0.016,0.109,0.022,0.19,0.022
		c0.052-0.051,0.12-0.118,0.207-0.2c0.087-0.08,0.188-0.146,0.3-0.197c0.122-0.206,0.217-0.408,0.284-0.605
		c0.065-0.2,0.116-0.408,0.152-0.622c0.037-0.215,0.056-0.436,0.061-0.668c0.006-0.229,0.009-0.478,0.009-0.742
		c-0.021,0-0.041-0.004-0.061-0.008c-0.021-0.006-0.047-0.008-0.077-0.008c-0.112,0-0.246,0.017-0.399,0.052
		c-0.152,0.036-0.307,0.089-0.459,0.155c-0.153,0.065-0.289,0.153-0.406,0.259c-0.118,0.108-0.192,0.229-0.224,0.362
		c-0.235,0.122-0.38,0.247-0.437,0.374c-0.056,0.127-0.084,0.3-0.084,0.513c0,0.072,0.003,0.151,0.008,0.239
		c0.005,0.086,0.008,0.18,0.008,0.283c0.051,0,0.084,0.004,0.099,0.016c0.016,0.01,0.049,0.039,0.1,0.09
		c-0.051,0.103-0.097,0.183-0.138,0.239c-0.041,0.057-0.061,0.11-0.061,0.16l0.106,0.106c0.194,0.053,0.314,0.088,0.361,0.108
		C13.174,12.471,13.223,12.5,13.273,12.542z M13.779,6.272l0.093-0.198c-0.103,0-0.182,0.001-0.238,0.008
		c-0.057,0.003-0.109,0.033-0.162,0.084v0.105H13.779z M14.577,5.875c0.112,0,0.198-0.042,0.253-0.131
		c0.056-0.086,0.11-0.18,0.161-0.284c-0.103,0-0.199-0.014-0.292-0.045c-0.091-0.031-0.163-0.047-0.214-0.047v0.155
		c0,0.083,0.003,0.141,0.007,0.176C14.497,5.733,14.524,5.792,14.577,5.875z M15.588,13.247c0.051,0,0.103-0.016,0.153-0.045
		c0.051-0.032,0.102-0.045,0.153-0.045c-0.052-0.051-0.08-0.106-0.083-0.163c-0.006-0.055-0.009-0.141-0.009-0.252
		c-0.112,0.051-0.196,0.082-0.253,0.092c-0.056,0.01-0.109,0.016-0.161,0.016v0.2c0,0.05,0.021,0.084,0.061,0.097
		C15.491,13.163,15.537,13.195,15.588,13.247z M15.695,9.614c0.052-0.05,0.102-0.081,0.154-0.091
		c0.05-0.011,0.102-0.015,0.153-0.015c0-0.102,0.043-0.241,0.131-0.416c0.086-0.172,0.161-0.438,0.222-0.795
		c-0.174,0.254-0.314,0.458-0.422,0.611c-0.107,0.155-0.17,0.257-0.191,0.308s-0.046,0.1-0.078,0.145
		c-0.029,0.047-0.056,0.096-0.076,0.147c0.02,0,0.036,0.004,0.047,0.015C15.675,9.533,15.695,9.564,15.695,9.614z M15.987,11.378
		h0.2l-0.092-0.2c-0.052,0-0.082,0.008-0.092,0.023C15.991,11.217,15.987,11.274,15.987,11.378z M16.201,13.354v-0.107
		c-0.041-0.04-0.079-0.065-0.114-0.077c-0.035-0.01-0.063-0.035-0.084-0.076v0.26H16.201z M16.094,10.979
		c0.153-0.153,0.246-0.243,0.276-0.268c0.03-0.025,0.072-0.039,0.122-0.039l0.077-0.659c0-0.297-0.045-0.301-0.138-0.015
		c-0.091,0.276-0.137,0.466-0.137,0.568h-0.2V10.979z"/>
	<path d="M18.823,7.009c0,0.051-0.021,0.08-0.062,0.084c-0.041,0.006-0.087,0.008-0.139,0.008c-0.101-0.051-0.219-0.1-0.354-0.145
		c-0.131-0.047-0.248-0.096-0.351-0.147c-0.052-0.204-0.098-0.424-0.137-0.659c-0.041-0.235-0.062-0.454-0.062-0.66
		c0.143-0.041,0.29-0.072,0.438-0.099c0.147-0.026,0.294-0.038,0.437-0.038c0.133,0,0.244,0.014,0.337,0.045
		c0-0.46,0.008-0.905,0.023-1.334c0.015-0.428,0.071-0.822,0.177-1.178c0.143,0,0.233,0.059,0.274,0.176
		c0.04,0.117,0.113,0.227,0.214,0.329V3.192h0.508c0-0.052,0.018-0.118,0.053-0.198c0.036-0.083,0.055-0.149,0.055-0.199h0.198
		c0.052,0.102,0.079,0.201,0.084,0.297c0.005,0.097,0.009,0.197,0.009,0.299c-0.052,0.206-0.118,0.403-0.198,0.598
		c-0.082,0.194-0.149,0.394-0.2,0.599c0.103-0.206,0.191-0.37,0.268-0.499c0.077-0.127,0.188-0.192,0.327-0.192
		c0.053,0.245,0.089,0.511,0.108,0.797c0.022,0.286,0.059,0.552,0.107,0.797c0.114-0.041,0.24-0.067,0.385-0.076
		c0.143-0.009,0.293-0.016,0.444-0.016h0.277c-0.082,0.082-0.135,0.143-0.156,0.184c-0.02,0.041-0.034,0.061-0.046,0.061V5.599
		l-0.305,0.306c-0.028,0.021-0.042,0.035-0.039,0.039c0.003,0.006,0.027,0.008,0.06,0.008c0.038,0,0.081,0.002,0.135,0.008
		c0.049,0.005,0.1,0.017,0.149,0.039c0-0.021,0.012-0.059,0.032-0.116c0.02-0.057,0.045-0.113,0.076-0.168
		c0.031-0.057,0.062-0.108,0.101-0.152c0.034-0.047,0.062-0.071,0.084-0.071c0.03,0.104,0.055,0.225,0.067,0.368
		c0.017,0.143,0.024,0.286,0.024,0.429s-0.008,0.272-0.024,0.384c-0.013,0.111-0.037,0.188-0.067,0.229h-0.905
		c-0.052-0.051-0.104-0.084-0.16-0.098c-0.055-0.015-0.136-0.049-0.239-0.102c-0.029,0.145-0.056,0.372-0.074,0.684
		c-0.022,0.312-0.034,0.63-0.034,0.958v1.166c0,0.153,0.021,0.288,0.057,0.405c0.036,0.118,0.052,0.253,0.052,0.407v0.903
		c0.145,0.051,0.215,0.134,0.215,0.245c0,0.104-0.034,0.202-0.107,0.3c-0.07,0.097-0.107,0.182-0.107,0.252
		c0.043,0.042,0.1,0.084,0.178,0.132c0.077,0.044,0.217,0.068,0.422,0.068c0.163,0,0.398-0.031,0.705-0.092
		c0.03,0.185,0.047,0.333,0.047,0.445c0,0.114-0.012,0.194-0.03,0.245c-0.022,0.051-0.052,0.092-0.094,0.124l-0.121,0.092
		l0.198,0.49c-0.083,0.053-0.143,0.125-0.185,0.223c-0.041,0.096-0.102,0.145-0.184,0.145c-0.052,0-0.098-0.02-0.138-0.061v-0.2
		c-0.143,0.053-0.274,0.151-0.391,0.3c-0.118,0.146-0.253,0.246-0.408,0.297V13.83c-0.102,0-0.165-0.021-0.189-0.06
		c-0.028-0.042-0.065-0.086-0.115-0.14c0,0.053-0.018,0.102-0.047,0.153c-0.03,0.051-0.046,0.103-0.046,0.155
		c-0.081,0-0.145,0.004-0.189,0.014c-0.05,0.012-0.096,0.015-0.147,0.015c-0.114,0-0.235-0.045-0.368-0.137v-0.107h-0.108V13.63
		l-0.093-0.107v-0.092c-0.048-0.051-0.103-0.103-0.159-0.153c-0.058-0.051-0.135-0.102-0.236-0.153
		c-0.022,0.02-0.057,0.032-0.108,0.032c-0.07,0-0.122-0.045-0.153-0.131c-0.031-0.086-0.045-0.176-0.045-0.268
		c0-0.061,0.007-0.117,0.024-0.161c0.014-0.045,0.041-0.068,0.082-0.068c0.062,0,0.092-0.038,0.092-0.109h-0.306V12.22h-0.093
		c0-0.102,0.022-0.185,0.062-0.245c0.041-0.062,0.085-0.149,0.139-0.26c0-0.102,0.004-0.241,0.014-0.414
		c0.012-0.174,0.024-0.364,0.039-0.568c0.016-0.203,0.029-0.405,0.046-0.605c0.016-0.2,0.023-0.376,0.023-0.529
		c0-0.165-0.005-0.261-0.016-0.292c0.03-0.215,0.047-0.428,0.047-0.644c0-0.265-0.017-0.537-0.047-0.811
		C18.899,7.577,18.864,7.294,18.823,7.009z M19.329,9.416c0.102-0.206,0.16-0.405,0.176-0.605c0.016-0.199,0.021-0.401,0.021-0.607
		c0.155,0,0.261-0.072,0.317-0.221c0.056-0.149,0.084-0.274,0.084-0.375h-0.093v0.092c-0.112,0.051-0.196,0.107-0.253,0.168
		c-0.057,0.062-0.109,0.143-0.16,0.244h-0.092v0.998h-0.107c0,0.052,0.003,0.102,0.014,0.155
		C19.247,9.312,19.277,9.365,19.329,9.416z M19.312,9.723c-0.009,0.081-0.04,0.178-0.091,0.29l0.107-0.092V9.553L19.312,9.723z
		 M19.421,7.009c-0.052,0-0.078,0.009-0.078,0.031c0,0.032,0.026,0.087,0.078,0.168V7.009z M19.618,12.725v0.2
		c0.041-0.042,0.073-0.086,0.095-0.137c0-0.01,0.003-0.02,0.006-0.023c0.005-0.006,0.008-0.02,0.008-0.04H19.618z M19.941,6.451
		c0.01-0.047,0.039-0.096,0.092-0.147h-0.106v0.152c0,0.083-0.005,0.149-0.014,0.2c-0.013,0.051-0.04,0.133-0.079,0.245
		c0.143-0.051,0.235-0.104,0.277-0.161c0.04-0.054,0.11-0.135,0.215-0.237c0-0.051-0.004-0.098-0.009-0.139
		s-0.032-0.061-0.084-0.061h-0.107v0.2c-0.022,0-0.045,0.004-0.068,0.016c-0.025,0.01-0.05,0.02-0.07,0.029L19.955,6.58
		l-0.028,0.015C19.927,6.545,19.933,6.495,19.941,6.451z M20.524,5.904c0-0.153-0.018-0.282-0.047-0.39
		c-0.03-0.108-0.046-0.212-0.046-0.314c-0.052,0.102-0.103,0.202-0.153,0.298c-0.05,0.098-0.102,0.198-0.152,0.3L20.524,5.904z
		 M20.721,13.033c-0.048,0.051-0.089,0.079-0.121,0.084c-0.029,0.006-0.066,0.008-0.108,0.008h-0.06v0.398L20.721,13.033z"/>
	<path d="M22.976,12.465l0.413-0.092c-0.008-0.01-0.019-0.018-0.029-0.024c-0.011-0.004-0.02-0.016-0.029-0.037
		c-0.03-0.03-0.048-0.077-0.048-0.138c0.103-0.104,0.186-0.205,0.253-0.307c0.065-0.103,0.152-0.205,0.253-0.308l-0.106-0.092
		c-0.011,0.012-0.021,0.015-0.03,0.015c0-0.029,0.03-0.111,0.099-0.245c0.065-0.133,0.141-0.274,0.223-0.421
		c0.082-0.149,0.162-0.282,0.246-0.4c0.082-0.115,0.132-0.176,0.151-0.176c0.012,0,0.016,0.006,0.016,0.016
		c0.104-0.144,0.215-0.27,0.337-0.384c0.123-0.112,0.211-0.218,0.261-0.321c0.053-0.102,0.087-0.202,0.107-0.298
		c0.021-0.098,0.057-0.198,0.107-0.299c0.205-0.255,0.393-0.546,0.558-0.874c0.171-0.327,0.383-0.639,0.64-0.937
		c-0.247,0-0.512,0.021-0.798,0.062c-0.287,0.042-0.571,0.061-0.858,0.061c-0.185,0-0.366-0.016-0.544-0.045
		c-0.18-0.031-0.351-0.088-0.514-0.168c-0.104,0.07-0.194,0.105-0.276,0.105c-0.144,0-0.214-0.102-0.214-0.306V6.748
		c0.041,0,0.086-0.016,0.139-0.047l0.059-0.061c0.031-0.07,0.049-0.152,0.049-0.244v-0.2c0-0.04,0.002-0.081,0.006-0.121
		c0.006-0.042,0.019-0.083,0.037-0.124c0.094-0.031,0.171-0.047,0.231-0.047c0.073,0,0.133,0.014,0.185,0.039
		c0.051,0.026,0.11,0.059,0.184,0.1V5.644h0.108l0.105-0.106h0.092V5.446c0.155,0,0.305,0.008,0.452,0.023
		c0.148,0.014,0.302,0.073,0.452,0.174c0.051-0.049,0.098-0.102,0.14-0.153c0.041-0.05,0.061-0.102,0.061-0.153
		c0.152,0,0.249,0.008,0.292,0.024c0.039,0.013,0.111,0.074,0.215,0.176c0.101,0,0.2,0.018,0.296,0.053
		c0.1,0.035,0.196,0.053,0.3,0.053c0.053-0.049,0.082-0.082,0.092-0.098c0.01-0.016,0.016-0.048,0.016-0.1h0.4v0.092
		c0.051,0,0.095,0.02,0.136,0.061c0.011,0.01,0.022,0.018,0.031,0.023c0.011,0.004,0.022,0.012,0.031,0.021
		c0-0.049,0.017-0.102,0.054-0.153c0.035-0.05,0.054-0.102,0.054-0.153h0.904c0.102,0.103,0.188,0.167,0.26,0.192
		c0.07,0.026,0.185,0.065,0.338,0.114c0.05,0.053,0.085,0.104,0.1,0.155c0.016,0.051,0.047,0.102,0.1,0.153
		c-0.053,0.143-0.101,0.269-0.152,0.375C28.903,6.433,28.853,6.539,28.8,6.64v0.108h-0.2l0.2,0.2c-0.052,0-0.078,0.006-0.084,0.016
		c-0.005,0.01-0.008,0.039-0.008,0.092H28.8c-0.052,0.143-0.119,0.311-0.205,0.505c-0.089,0.194-0.183,0.392-0.284,0.598
		c-0.114,0-0.19,0.052-0.239,0.16c-0.044,0.107-0.068,0.186-0.068,0.239c-0.103,0.05-0.216,0.146-0.345,0.29
		c-0.127,0.143-0.249,0.297-0.368,0.46c-0.115,0.163-0.222,0.317-0.313,0.461c-0.093,0.143-0.153,0.238-0.186,0.292
		c-0.1,0.102-0.182,0.18-0.243,0.237c-0.063,0.057-0.144,0.109-0.247,0.161c-0.152,0.254-0.286,0.503-0.404,0.744
		c-0.116,0.239-0.254,0.462-0.406,0.667h0.2l-0.093,0.199c0.061,0.03,0.124,0.051,0.19,0.061c0.065,0.01,0.127,0.016,0.179,0.016
		c0.12,0,0.232-0.025,0.334-0.077c0.247,0,0.493,0.004,0.745,0.016c0.25,0.009,0.502,0.041,0.759,0.091
		c0.142-0.05,0.274-0.106,0.399-0.161c0.12-0.057,0.255-0.141,0.396-0.254c0.054,0.113,0.103,0.197,0.155,0.254
		c0.051,0.055,0.102,0.11,0.153,0.161c-0.052,0.153-0.079,0.235-0.079,0.245c0,0.052,0.059,0.133,0.171,0.246v0.213
		c-0.07,0.052-0.118,0.119-0.138,0.2c-0.021,0.082-0.04,0.166-0.062,0.252c-0.019,0.088-0.046,0.168-0.084,0.247
		c-0.035,0.077-0.105,0.14-0.207,0.192l-0.614-0.094c-0.121,0-0.273,0.024-0.46,0.07c-0.185,0.045-0.36,0.069-0.537,0.069
		c-0.192,0-0.323-0.045-0.396-0.139c-0.236,0.031-0.458,0.082-0.669,0.154c-0.208,0.07-0.425,0.108-0.649,0.108
		c-0.152,0-0.287-0.021-0.398-0.062c-0.052,0-0.192,0.021-0.421,0.062c-0.231,0.039-0.522,0.086-0.884,0.137v-0.199h-0.397
		l0.199-0.2l0.307-0.198V13.37h-0.307c0,0.05-0.038,0.135-0.115,0.252c-0.076,0.118-0.142,0.202-0.191,0.253
		c-0.021-0.103-0.036-0.222-0.045-0.361c-0.01-0.137-0.016-0.272-0.016-0.405C22.915,12.792,22.935,12.579,22.976,12.465z
		 M24.693,6.64c0.051,0.051,0.092,0.086,0.122,0.108c0.03,0.02,0.122,0.057,0.275,0.107l0.107-0.107
		c-0.112,0-0.199-0.018-0.261-0.053C24.875,6.66,24.796,6.64,24.693,6.64z M24.983,11.868l0.215-0.308
		c-0.244,0.114-0.413,0.215-0.505,0.308H24.983z M25.49,13.278v-0.2c-0.01,0-0.027,0.007-0.055,0.023
		c-0.026,0.015-0.037,0.04-0.037,0.068L25.49,13.278z M25.69,12.573c-0.041-0.042-0.081-0.066-0.116-0.077
		c-0.037-0.01-0.064-0.035-0.084-0.077v0.045c0,0.051,0.02,0.082,0.061,0.092C25.593,12.569,25.637,12.573,25.69,12.573z
		 M25.598,10.365c0.102-0.05,0.201-0.102,0.299-0.152c0.098-0.051,0.195-0.102,0.299-0.153l0.2-0.308h0.106l0.091-0.092h-0.091
		c-0.114,0.082-0.209,0.149-0.285,0.2c-0.074,0.051-0.139,0.094-0.19,0.129c-0.05,0.035-0.098,0.07-0.137,0.1
		c-0.043,0.029-0.082,0.066-0.125,0.107L25.598,10.365z M25.997,8.647l0.198-0.197c-0.104,0.051-0.16,0.083-0.176,0.1
		C26.004,8.566,25.997,8.597,25.997,8.647z M26.301,9.353h0.095l0.106-0.197L26.301,9.353z M26.7,9.063
		c0.103-0.051,0.176-0.083,0.224-0.092c0.044-0.01,0.094-0.016,0.145-0.016h0.14l0.198-0.397c-0.051,0.05-0.104,0.102-0.161,0.153
		c-0.057,0.05-0.142,0.102-0.253,0.152h-0.095L26.7,9.063z M26.791,8.45h0.201c0.052-0.051,0.103-0.1,0.152-0.147
		c0.051-0.045,0.103-0.094,0.154-0.145h0.306c0,0.051-0.005,0.083-0.014,0.1c-0.011,0.016-0.043,0.049-0.093,0.1h0.106
		c0.195-0.194,0.29-0.399,0.29-0.613c-0.244,0.153-0.463,0.284-0.658,0.39C27.044,8.242,26.895,8.348,26.791,8.45z M27.805,7.345
		v0.108l0.09-0.108H27.805z M28.6,12.465h-0.198v0.108L28.6,12.465z"/>
	<path d="M4.66,27.435c-0.031,0.013-0.076,0.046-0.138,0.108c-0.051,0-0.102-0.02-0.152-0.055c-0.053-0.032-0.103-0.054-0.154-0.054
		c-0.02,0.103-0.039,0.178-0.054,0.223c-0.015,0.046-0.036,0.076-0.06,0.092c-0.027,0.016-0.062,0.029-0.108,0.039
		c-0.046,0.01-0.106,0.026-0.176,0.045c0-0.051-0.006-0.084-0.016-0.1c-0.009-0.014-0.041-0.047-0.092-0.099H3.618
		c-0.052,0.103-0.108,0.18-0.168,0.229c-0.061,0.051-0.144,0.077-0.247,0.077v-0.2l-0.092-0.106C3,27.737,2.933,27.802,2.913,27.825
		c-0.02,0.026-0.057,0.064-0.107,0.116H2.698l-0.2-0.2c-0.072,0.073-0.152,0.107-0.245,0.107c-0.091,0-0.186-0.031-0.284-0.092
		c-0.097-0.062-0.189-0.138-0.276-0.222c-0.086-0.087-0.165-0.176-0.236-0.27c-0.073-0.091-0.128-0.167-0.169-0.228
		c-0.205-0.104-0.348-0.198-0.429-0.286c-0.083-0.085-0.175-0.23-0.276-0.438c-0.103,0-0.153-0.086-0.153-0.26
		c0-0.09,0.008-0.201,0.023-0.328c0.015-0.13,0.022-0.254,0.022-0.376c0-0.104-0.013-0.195-0.038-0.277
		c-0.026-0.08-0.08-0.136-0.161-0.165c0-0.207-0.008-0.35-0.023-0.431c-0.016-0.081-0.074-0.176-0.176-0.275
		c0-0.145,0.007-0.281,0.023-0.409c0.017-0.128,0.023-0.255,0.023-0.388c0-0.134-0.016-0.272-0.046-0.416H0.17
		c0.029-0.254,0.053-0.451,0.068-0.592c0.016-0.137,0.028-0.234,0.039-0.297c0.009-0.061,0.022-0.096,0.038-0.106
		c0.017-0.011,0.033-0.017,0.054-0.017l-0.092-0.108v-0.809h0.199c0.051-0.125,0.092-0.226,0.123-0.302s0.061-0.143,0.091-0.198
		c0.032-0.057,0.066-0.11,0.107-0.168c0.042-0.057,0.102-0.137,0.183-0.238c0.083-0.039,0.18-0.087,0.292-0.137
		c0.111-0.052,0.23-0.101,0.354-0.147c0.121-0.045,0.244-0.085,0.366-0.121c0.124-0.038,0.241-0.053,0.354-0.053
		c0.091,0,0.178,0.015,0.26,0.044c0-0.051,0.02-0.1,0.061-0.145c0.042-0.047,0.088-0.096,0.139-0.146
		c0.204,0,0.306,0.066,0.306,0.199c0.051-0.051,0.119-0.096,0.2-0.139c0.082-0.039,0.148-0.061,0.199-0.061
		c0.124,0.154,0.241,0.239,0.354,0.254s0.217,0.023,0.313,0.029c0.099,0.005,0.184,0.036,0.261,0.093s0.139,0.195,0.191,0.421h0.092
		v-0.2H4.83c0-0.55-0.019-1.122-0.054-1.717c-0.037-0.592-0.054-1.164-0.054-1.716c0.203-0.051,0.403-0.102,0.598-0.152
		c0.195-0.051,0.367-0.102,0.521-0.153c0.102,0.153,0.201,0.284,0.298,0.392c0.098,0.106,0.197,0.212,0.299,0.313
		c0,0.152-0.016,0.306-0.046,0.458c-0.031,0.155-0.046,0.31-0.046,0.46c0.113,0.187,0.186,0.441,0.222,0.768
		c0.035,0.328,0.054,0.68,0.054,1.058c0,0.461-0.013,0.909-0.039,1.35c-0.025,0.439-0.039,0.795-0.039,1.071
		c0,0.152,0.018,0.305,0.054,0.455c0.037,0.146,0.054,0.295,0.054,0.451c-0.021,0.174-0.031,0.342-0.031,0.507
		c0,0.161,0,0.33,0,0.504c0,0.255,0.002,0.513,0.008,0.774c0.005,0.26,0.008,0.519,0.008,0.774c0,0.43-0.019,0.847-0.055,1.256
		c-0.036,0.409-0.114,0.791-0.237,1.149c-0.154-0.05-0.264-0.126-0.329-0.23c-0.067-0.102-0.125-0.229-0.176-0.383
		c0,0.052-0.018,0.084-0.054,0.101c-0.036,0.014-0.054,0.048-0.054,0.1H5.227c-0.05,0.103-0.083,0.183-0.099,0.244
		c-0.015,0.062-0.049,0.119-0.1,0.169H4.83c0-0.112-0.019-0.217-0.054-0.314c-0.037-0.097-0.054-0.196-0.054-0.299v-0.075
		C4.71,27.399,4.691,27.424,4.66,27.435z M1.088,23.892c-0.081,0.127-0.143,0.225-0.184,0.303C0.863,24.271,0.829,24.34,0.797,24.4
		c-0.031,0.061-0.061,0.129-0.092,0.206c-0.03,0.077-0.072,0.178-0.122,0.302h0.092V24.8h0.107c0.051-0.103,0.085-0.201,0.101-0.301
		c0.015-0.096,0.047-0.197,0.098-0.297c0.021,0,0.038-0.008,0.047-0.016c0.04-0.011,0.061-0.041,0.061-0.093V23.892z M0.98,21.566
		c-0.081,0.143-0.135,0.252-0.161,0.327c-0.025,0.075-0.038,0.162-0.038,0.255v0.229c0.102-0.102,0.161-0.237,0.176-0.408
		C0.974,21.801,0.98,21.666,0.98,21.566z M1.487,20.462c-0.152,0.203-0.276,0.371-0.367,0.505c-0.092,0.134-0.14,0.301-0.14,0.506
		c0.052-0.112,0.131-0.237,0.238-0.375c0.108-0.137,0.162-0.285,0.162-0.437h0.106V20.462z M1.687,23.785v0.417h0.107
		c0-0.051-0.005-0.108-0.015-0.161C1.768,23.983,1.738,23.899,1.687,23.785z M1.992,21.473v-0.305
		c-0.02,0.029-0.041,0.054-0.06,0.075l-0.015,0.031L1.992,21.473z M4.522,25.412c0,0.052,0.016,0.075,0.046,0.075
		c0.041,0,0.061-0.023,0.061-0.075c0.011-0.012,0.016-0.025,0.016-0.046v-0.016l-0.031-0.047c-0.021-0.062-0.031-0.075-0.031-0.046
		c0-0.011,0.015-0.024,0.045-0.046l-0.107-0.197C4.543,25.003,4.561,25,4.575,25c0.016,0,0.034-0.007,0.054-0.017v-0.691h0.092
		v-0.198C4.782,24,4.814,23.816,4.814,23.542c0-0.154-0.009-0.319-0.024-0.499c-0.015-0.179-0.032-0.358-0.054-0.545
		c-0.02-0.183-0.041-0.363-0.061-0.543c-0.021-0.178-0.035-0.339-0.046-0.482c-0.07,0.043-0.143,0.062-0.214,0.062
		c-0.061,0-0.092-0.057-0.092-0.169H4.216v-0.077c0-0.062-0.005-0.125-0.017-0.198c-0.009-0.072-0.035-0.148-0.075-0.23H4.017v0.201
		L3.91,20.967v0.29H3.618c0.031-0.03,0.046-0.056,0.046-0.075c0-0.019-0.007-0.037-0.023-0.046
		c-0.015-0.012-0.023-0.035-0.023-0.075H3.51c0-0.053-0.004-0.104-0.014-0.157c-0.011-0.048-0.041-0.102-0.092-0.152
		c-0.052,0-0.08-0.003-0.083-0.014c-0.006-0.01-0.009-0.072-0.009-0.184c-0.102,0.051-0.174,0.082-0.214,0.092
		c-0.042,0.01-0.138,0.016-0.292,0.016l-0.107,0.198H2.606v0.201H2.499c0,0.103-0.018,0.22-0.054,0.351
		c-0.036,0.134-0.053,0.249-0.053,0.353c-0.052,0.053-0.087,0.077-0.107,0.077c-0.01,0-0.041-0.024-0.092-0.077
		c0.052,0.155,0.083,0.288,0.092,0.408C2.293,22.286,2.3,22.424,2.3,22.577c0,0.102-0.017,0.208-0.054,0.32
		c-0.036,0.112-0.054,0.239-0.054,0.384c0.03,0.173,0.046,0.343,0.046,0.504c0,0.195-0.013,0.397-0.039,0.606
		c-0.025,0.21-0.058,0.418-0.1,0.623c0.051,0.141,0.1,0.289,0.146,0.443c0.046,0.154,0.094,0.307,0.146,0.458
		c0.051,0,0.086,0.021,0.107,0.064c0.021,0.039,0.056,0.086,0.108,0.138l0.199,0.196c0.204,0.054,0.404,0.079,0.598,0.079
		c0.153,0,0.31-0.012,0.468-0.039c0.157-0.026,0.309-0.069,0.452-0.129l0.199-0.202l-0.107-0.213H4.323
		c0.051-0.052,0.083-0.105,0.1-0.159C4.438,25.594,4.471,25.515,4.522,25.412z M2.606,20.046c-0.052,0.053-0.083,0.091-0.092,0.116
		c-0.011,0.025-0.016,0.064-0.016,0.115c0-0.021,0.016-0.047,0.046-0.076C2.584,20.16,2.606,20.109,2.606,20.046z M4.83,26.73v0.4
		c0.102-0.155,0.181-0.307,0.236-0.453c0.057-0.149,0.111-0.301,0.161-0.452l-0.091-0.107C5.136,26.413,5.033,26.617,4.83,26.73z
		 M4.921,24.507C4.89,24.6,4.875,24.701,4.875,24.813c0,0.103,0.007,0.211,0.022,0.323c0.016,0.11,0.024,0.237,0.024,0.384
		c0.111-0.309,0.23-0.572,0.353-0.789c0.122-0.222,0.208-0.434,0.259-0.638c-0.051,0.052-0.084,0.082-0.099,0.093
		c-0.016,0.008-0.049,0.016-0.1,0.016c-0.051,0.1-0.084,0.198-0.1,0.29c-0.015,0.094-0.048,0.163-0.099,0.213
		c0,0.054-0.022,0.083-0.07,0.086C5.02,24.798,4.972,24.8,4.921,24.8V24.507z M5.036,23.35c-0.026,0.038-0.043,0.059-0.054,0.069
		c-0.02,0.02-0.033,0.035-0.038,0.044c-0.005,0.013-0.013,0.022-0.022,0.032c0,0.063,0.035,0.095,0.106,0.095v-0.202h0.108
		l0.091-0.398c-0.031,0.032-0.056,0.077-0.076,0.141c-0.012,0.019-0.016,0.037-0.016,0.06C5.094,23.26,5.06,23.314,5.036,23.35z
		 M5.733,17.118c-0.05,0.053-0.122,0.086-0.214,0.102s-0.19,0.047-0.292,0.099v1.12c0.102-0.206,0.191-0.406,0.268-0.6
		c0.077-0.191,0.191-0.368,0.346-0.521c0-0.052-0.018-0.083-0.054-0.099S5.733,17.171,5.733,17.118z M5.426,22.577l-0.092-0.093
		v0.292c0.051,0,0.08-0.006,0.084-0.018C5.423,22.751,5.426,22.688,5.426,22.577z M6.04,23.696v0.397
		c0.051-0.123,0.077-0.189,0.077-0.202c0-0.019-0.007-0.044-0.023-0.075C6.078,23.785,6.061,23.748,6.04,23.696z"/>
	<path d="M10.362,28.033c-0.152-0.154-0.292-0.238-0.414-0.253c-0.123-0.016-0.232-0.031-0.329-0.047
		c-0.097-0.014-0.184-0.058-0.26-0.13c-0.077-0.071-0.141-0.23-0.192-0.473H9.059v0.198c-0.297,0-0.523-0.071-0.682-0.214
		c-0.158-0.146-0.263-0.346-0.314-0.6c-0.071,0-0.13-0.054-0.176-0.161c-0.045-0.107-0.083-0.25-0.115-0.431
		c-0.031-0.176-0.051-0.376-0.061-0.596c-0.011-0.219-0.017-0.442-0.017-0.667c0-0.297,0.005-0.571,0.017-0.818
		c0.01-0.253,0.025-0.428,0.046-0.529c0.009-0.021,0.021-0.048,0.031-0.077c0.01-0.031,0.02-0.062,0.031-0.093l0.03-0.139
		c0.01-0.009,0.015-0.062,0.015-0.152v-0.246c-0.051-0.052-0.101-0.097-0.153-0.138s-0.103-0.062-0.153-0.062
		c0-0.1,0.02-0.185,0.061-0.251c0.041-0.066,0.087-0.15,0.138-0.255c0-0.172,0.05-0.382,0.153-0.626
		c0.101-0.247,0.228-0.489,0.375-0.729c0.149-0.241,0.31-0.458,0.483-0.65c0.174-0.196,0.338-0.329,0.491-0.399
		c0.102,0,0.184,0.014,0.245,0.045s0.117,0.047,0.169,0.047c0-0.121,0.005-0.208,0.015-0.255c0.011-0.045,0.031-0.072,0.062-0.082
		c0.03-0.012,0.071-0.016,0.122-0.016s0.118-0.016,0.199-0.047v0.2h0.2c0.051-0.144,0.105-0.231,0.161-0.269
		c0.057-0.035,0.136-0.078,0.237-0.132v0.308h0.2c0.102-0.051,0.161-0.09,0.176-0.113c0.015-0.025,0.022-0.09,0.022-0.194h0.199
		c0.052,0.104,0.085,0.169,0.1,0.194c0.015,0.023,0.049,0.062,0.1,0.113c0.103-0.102,0.21-0.152,0.323-0.152
		c0.102,0,0.204,0.033,0.306,0.1c0.102,0.064,0.196,0.146,0.284,0.237c0.086,0.092,0.166,0.186,0.237,0.282
		c0.071,0.099,0.128,0.176,0.168,0.238c0.205,0.102,0.358,0.21,0.46,0.323c0.103,0.112,0.178,0.271,0.229,0.472
		c0.093,0,0.154,0.036,0.184,0.103c0.031,0.066,0.046,0.156,0.046,0.27c0,0.08-0.002,0.161-0.007,0.243
		c-0.006,0.082-0.008,0.162-0.008,0.245c0,0.145,0.018,0.274,0.053,0.392c0.036,0.117,0.116,0.201,0.238,0.25
		c0,0.157,0.005,0.286,0.015,0.395c0.01,0.105,0.04,0.21,0.092,0.312v1.211l-0.107,0.092c-0.021,0.255-0.035,0.453-0.046,0.592
		c-0.01,0.137-0.022,0.241-0.038,0.312c-0.017,0.071-0.031,0.118-0.046,0.139s-0.038,0.043-0.068,0.062h0.106v0.902h-0.106
		c-0.082,0.124-0.146,0.224-0.192,0.303c-0.046,0.074-0.088,0.143-0.123,0.205c-0.036,0.059-0.074,0.13-0.114,0.208
		c-0.042,0.076-0.098,0.174-0.169,0.299c-0.113,0.019-0.231,0.051-0.353,0.099c-0.123,0.047-0.25,0.094-0.383,0.147
		c-0.133,0.05-0.263,0.096-0.391,0.137c-0.128,0.039-0.249,0.062-0.361,0.062c-0.091,0-0.168-0.017-0.229-0.048
		c-0.051,0.053-0.113,0.103-0.184,0.153c-0.071,0.05-0.108,0.104-0.108,0.154c-0.102,0-0.181-0.024-0.237-0.069
		c-0.057-0.047-0.109-0.093-0.161-0.146c0,0.054-0.057,0.1-0.168,0.146C10.496,28.009,10.413,28.033,10.362,28.033z M8.354,26.516
		c0.051-0.05,0.102-0.097,0.153-0.139c0.051-0.04,0.102-0.062,0.153-0.062c0-0.14,0.005-0.271,0.015-0.381
		c0.01-0.111,0.042-0.22,0.092-0.321c-0.072-0.043-0.133-0.061-0.183-0.061c-0.041,0-0.076,0.012-0.101,0.036
		c-0.024,0.026-0.068,0.068-0.13,0.131V26.516z M8.86,22.298c0.051-0.099,0.084-0.199,0.1-0.297
		c0.015-0.096,0.048-0.196,0.099-0.298h0.2c0.051-0.102,0.084-0.183,0.1-0.239c0.015-0.057,0.048-0.107,0.099-0.16H9.366
		c0-0.103-0.019-0.187-0.054-0.253c-0.037-0.063-0.054-0.151-0.054-0.255c-0.051,0.085-0.079,0.14-0.084,0.171
		s-0.008,0.088-0.008,0.169v0.168c-0.102,0.155-0.181,0.27-0.237,0.353c-0.057,0.082-0.099,0.154-0.129,0.213
		c-0.032,0.063-0.054,0.125-0.07,0.187c-0.016,0.061-0.038,0.144-0.069,0.242H8.86z M9.166,22.913V22.7
		c-0.052,0-0.084,0.007-0.099,0.021c-0.015,0.017-0.049,0.081-0.101,0.192H9.166z M10.562,26.822c0.02-0.021,0.04-0.032,0.061-0.039
		c0.021-0.004,0.04-0.014,0.061-0.023l0.109-0.029c0.01-0.01,0.055-0.015,0.137-0.015h0.244v-0.2h0.2v-0.201h0.092
		c0-0.14,0.024-0.273,0.069-0.398c0.046-0.121,0.095-0.252,0.146-0.396h0.092c0-0.154-0.015-0.29-0.046-0.406
		c-0.032-0.119-0.046-0.256-0.046-0.409c0-0.101,0.021-0.215,0.061-0.343c0.042-0.129,0.087-0.243,0.139-0.344
		c-0.061-0.195-0.091-0.398-0.091-0.613c0-0.205,0.016-0.403,0.045-0.599c0.03-0.195,0.046-0.396,0.046-0.599
		c-0.052-0.203-0.103-0.384-0.153-0.544c-0.051-0.157-0.102-0.312-0.153-0.467l-0.2-0.199v-0.307
		c-0.215-0.062-0.403-0.093-0.567-0.093c-0.297,0-0.608,0.102-0.936,0.305c0,0.298-0.041,0.615-0.122,0.952
		c-0.083,0.337-0.179,0.654-0.292,0.951c0.052,0.152,0.083,0.288,0.093,0.404c0.009,0.12,0.015,0.249,0.015,0.393
		c0.051,0,0.082,0.005,0.092,0.017c0.009,0.009,0.016,0.04,0.016,0.09c-0.114,0.214-0.184,0.411-0.215,0.591
		c-0.03,0.18-0.045,0.36-0.045,0.544c0,0.174,0.008,0.353,0.023,0.537c0.015,0.184,0.022,0.396,0.022,0.642h0.107
		c0,0.054,0.018,0.121,0.054,0.208c0.036,0.089,0.054,0.182,0.054,0.284h0.199v-0.093h0.091v-0.305h0.307v0.196h0.092
		c0,0.054,0.005,0.104,0.016,0.155c0.01,0.052,0.04,0.103,0.091,0.153s0.079,0.084,0.085,0.099
		C10.559,26.736,10.562,26.77,10.562,26.822z M11.374,27.329c0.051-0.052,0.079-0.085,0.084-0.101
		c0.006-0.017,0.008-0.05,0.008-0.098c-0.01,0.008-0.018,0.019-0.023,0.028c-0.004,0.01-0.013,0.02-0.022,0.031
		C11.389,27.22,11.374,27.266,11.374,27.329z M12.079,26.226v-0.31c-0.051,0.053-0.083,0.105-0.092,0.164
		c-0.01,0.054-0.016,0.134-0.016,0.234L12.079,26.226z M12.37,23.005h-0.093v0.4L12.37,23.005z M12.569,26.931l0.106-0.108h-0.106
		V26.931z M12.83,26.667c0.122-0.111,0.213-0.227,0.269-0.344c0.056-0.116,0.084-0.287,0.084-0.513
		c-0.052,0.154-0.137,0.308-0.253,0.467c-0.117,0.157-0.201,0.34-0.254,0.545c0.021-0.01,0.037-0.023,0.046-0.039
		c0.011-0.016,0.025-0.032,0.047-0.053L12.83,26.667z M12.983,23.313c0.101-0.124,0.181-0.222,0.237-0.292
		c0.056-0.073,0.102-0.142,0.138-0.209c0.035-0.065,0.069-0.136,0.1-0.213c0.03-0.075,0.07-0.176,0.123-0.302h-0.108v0.108h-0.199
		c0,0.104-0.016,0.202-0.046,0.301c-0.03,0.098-0.045,0.195-0.045,0.298h-0.108L12.983,23.313z M13.267,24.094
		c0.005-0.01,0.007-0.057,0.007-0.138c-0.009,0.011-0.016,0.019-0.016,0.03l-0.03,0.062l-0.03,0.029l-0.015,0.029
		C13.233,24.107,13.261,24.103,13.267,24.094z M13.228,25.521c0.03-0.113,0.052-0.194,0.062-0.247
		c0.01-0.051,0.041-0.137,0.092-0.259c-0.072,0.05-0.124,0.138-0.154,0.259c-0.03,0.123-0.045,0.241-0.045,0.353v0.169
		C13.192,25.692,13.208,25.6,13.228,25.521z"/>
	<path d="M17.657,28.112c-0.052-0.054-0.117-0.104-0.2-0.148c-0.081-0.047-0.148-0.067-0.198-0.067c0-0.103,0.006-0.163,0.015-0.185
		c0.011-0.022,0.042-0.055,0.093-0.108v-0.107c-0.102,0.053-0.164,0.098-0.184,0.139c-0.021,0.041-0.031,0.085-0.031,0.139v0.028
		c-0.144,0-0.237-0.023-0.284-0.076c-0.046-0.05-0.121-0.127-0.222-0.229h-0.398v-0.2c-0.102,0-0.194,0.009-0.276,0.024
		c-0.081,0.016-0.147,0.023-0.199,0.023c-0.062,0-0.108-0.015-0.137-0.048l0.106-0.504c-0.429-0.071-0.643-0.261-0.643-0.566
		c0-0.146,0.045-0.292,0.137-0.447c-0.083-0.428-0.159-0.832-0.23-1.209c-0.071-0.38-0.106-0.767-0.106-1.164
		c0-0.092,0.002-0.187,0.008-0.275c0.003-0.095,0.013-0.19,0.022-0.295h-0.092c0.051-0.142,0.1-0.269,0.145-0.38
		c0.047-0.114,0.095-0.222,0.147-0.32c0-0.024-0.016-0.05-0.046-0.079c-0.011-0.011-0.026-0.016-0.047-0.016v-0.413h0.093
		c0.03-0.124,0.081-0.262,0.153-0.421c0.071-0.159,0.16-0.308,0.268-0.447c0.106-0.137,0.23-0.256,0.368-0.36
		c0.138-0.1,0.283-0.162,0.437-0.182c0-0.053,0.014-0.122,0.046-0.208c0.03-0.088,0.045-0.154,0.045-0.207
		c0.071,0,0.139-0.014,0.2-0.046l0.2-0.092c0.123-0.053,0.214-0.076,0.276-0.076c0.071,0,0.118,0.004,0.138,0.016
		c0,0.051,0.018,0.102,0.054,0.152c0.035,0.051,0.054,0.103,0.054,0.153c0.051-0.153,0.11-0.259,0.176-0.313
		c0.066-0.057,0.177-0.086,0.331-0.086v0.399h0.197c0.052-0.153,0.105-0.284,0.162-0.392s0.135-0.212,0.236-0.313h0.814l0.582,0.321
		c0.132,0.072,0.249,0.145,0.353,0.215c0.102,0.072,0.192,0.157,0.273,0.255c0.083,0.094,0.157,0.212,0.225,0.343
		c0.066,0.134,0.131,0.292,0.192,0.475h0.199c-0.053,0.113-0.098,0.219-0.139,0.314c-0.041,0.098-0.061,0.198-0.061,0.3
		c0.05,0.122,0.076,0.261,0.076,0.414c0,0.174-0.029,0.347-0.084,0.521c-0.058,0.174-0.127,0.331-0.209,0.473h-0.292
		c-0.049-0.121-0.128-0.203-0.236-0.242c-0.105-0.041-0.222-0.065-0.343-0.068c-0.126-0.007-0.245-0.011-0.362-0.011
		s-0.211-0.024-0.282-0.076c-0.021-0.173-0.053-0.354-0.092-0.544c-0.04-0.188-0.101-0.359-0.179-0.512
		c-0.075-0.155-0.177-0.281-0.298-0.384c-0.123-0.102-0.27-0.155-0.444-0.155c-0.061,0-0.125,0.006-0.19,0.017
		c-0.066,0.012-0.138,0.03-0.207,0.061c-0.082,0.082-0.169,0.16-0.261,0.231c-0.092,0.07-0.177,0.148-0.253,0.23
		c-0.078,0.08-0.145,0.167-0.2,0.258c-0.056,0.093-0.084,0.19-0.084,0.293c0,0.102,0.03,0.205,0.092,0.308
		c0,0.05-0.017,0.122-0.054,0.215c-0.035,0.09-0.054,0.189-0.054,0.29c0.051,0.173,0.091,0.367,0.115,0.582s0.039,0.424,0.039,0.629
		c0,0.204-0.015,0.406-0.039,0.604c-0.024,0.2-0.064,0.372-0.115,0.513h-0.091c-0.052,0.054-0.082,0.1-0.093,0.147
		c-0.009,0.045-0.014,0.096-0.014,0.146h-0.108c0,0.111,0.043,0.222,0.13,0.336c0.087,0.113,0.182,0.17,0.284,0.17
		c0,0.112,0.02,0.222,0.062,0.328c0.041,0.107,0.087,0.238,0.138,0.392h0.107v0.095c0.051,0,0.084,0.019,0.1,0.058
		c0.016,0.043,0.048,0.089,0.099,0.137c0.358,0,0.633-0.066,0.82-0.203c0.19-0.14,0.385-0.337,0.592-0.592
		c0-0.254,0.005-0.489,0.016-0.699c0.008-0.207,0.039-0.414,0.092-0.619l0.199-0.198c0.029,0,0.058,0.003,0.083,0.008
		c0.027,0.006,0.055,0.009,0.084,0.009c0.203,0,0.384-0.023,0.537-0.062c0.154-0.041,0.285-0.062,0.398-0.062
		c0.144,0,0.247,0.059,0.314,0.177s0.1,0.362,0.1,0.729c0.061,0.142,0.092,0.285,0.092,0.429c0,0.255-0.054,0.504-0.162,0.743
		c-0.105,0.241-0.185,0.457-0.238,0.652c-0.019,0-0.063,0.014-0.136,0.046c-0.07,0.029-0.151,0.068-0.238,0.114
		c-0.085,0.046-0.177,0.093-0.274,0.138c-0.099,0.047-0.184,0.087-0.254,0.115H19.39c-0.124,0-0.245,0.004-0.368,0.016
		c-0.122,0.011-0.239,0.038-0.353,0.076c-0.203,0.052-0.387,0.106-0.545,0.162C17.966,27.914,17.811,27.998,17.657,28.112z
		 M15.88,23.189c-0.052,0-0.084,0.006-0.1,0.016c-0.016,0.011-0.049,0.039-0.1,0.092v0.399c-0.053,0.052-0.102,0.081-0.153,0.089
		c-0.051,0.014-0.103,0.018-0.154,0.018c0-0.052-0.019-0.122-0.054-0.207c-0.036-0.087-0.054-0.157-0.054-0.208h-0.09
		c0.05,0.205,0.09,0.393,0.122,0.568c0.03,0.174,0.123,0.361,0.275,0.567c0.051-0.308,0.116-0.567,0.192-0.781
		C15.842,23.525,15.88,23.342,15.88,23.189z M15.496,22.254c-0.102,0.152-0.167,0.242-0.192,0.271
		c-0.025,0.025-0.064,0.039-0.114,0.039l0.107,0.61v-0.077c0-0.062,0.002-0.127,0.007-0.199c0.006-0.071,0.033-0.146,0.085-0.229
		h0.107V22.254z M16.048,25.749c0.05-0.053,0.092-0.121,0.123-0.206c0.03-0.088,0.097-0.149,0.198-0.192l-0.06-0.613h0.092
		l0.015-0.309l-0.199-0.014c-0.062,0.296-0.1,0.51-0.116,0.637c-0.014,0.128-0.028,0.252-0.037,0.376L16.048,25.749z M16.876,20.646
		l0.107,0.308h-0.107v0.198h0.107c0.082-0.296,0.135-0.506,0.162-0.629c0.025-0.124,0.038-0.235,0.038-0.337v-0.153
		C17.079,20.134,16.978,20.338,16.876,20.646z M18.484,19.449v0.307c0.053-0.051,0.079-0.092,0.079-0.123
		c0-0.021-0.009-0.043-0.024-0.068S18.507,19.5,18.484,19.449z M19.666,24.753c-0.051,0-0.105,0.052-0.161,0.155
		c-0.057,0.101-0.136,0.151-0.239,0.151l0.2,0.826c0.052-0.11,0.084-0.237,0.1-0.381c0.016-0.145,0.05-0.293,0.101-0.445V24.753z
		 M20.6,22.085h-0.108v0.308c0.054,0,0.083-0.014,0.095-0.039C20.597,22.327,20.6,22.24,20.6,22.085z"/>
	<path d="M23.467,16.476c0.103,0.102,0.204,0.22,0.306,0.353c0.104,0.134,0.205,0.251,0.308,0.353c0,0.152-0.02,0.306-0.054,0.459
		c-0.035,0.154-0.054,0.309-0.054,0.463c0.113,0.151,0.2,0.365,0.26,0.641c0.062,0.277,0.093,0.578,0.093,0.905
		c0,0.226-0.016,0.45-0.048,0.676c0.053-0.072,0.106-0.139,0.161-0.2c0.058-0.062,0.111-0.123,0.165-0.186v0.062
		c0.049-0.02,0.092-0.041,0.127-0.062c0.037-0.02,0.073-0.039,0.115-0.061v0.108c0.041-0.032,0.086-0.073,0.129-0.132
		c0.048-0.056,0.098-0.112,0.155-0.166c0.055-0.06,0.111-0.108,0.166-0.155c0.059-0.044,0.116-0.066,0.178-0.066
		c0.05,0,0.081,0.004,0.095,0.014v0.29c0.142-0.052,0.29-0.155,0.442-0.314c0.154-0.158,0.309-0.287,0.458-0.389v0.413
		c0.105,0,0.182,0.035,0.231,0.107c0.053,0.07,0.077,0.131,0.077,0.183c0.062-0.06,0.092-0.134,0.092-0.214V19.48
		c0.082-0.021,0.148-0.04,0.199-0.056c0.051-0.015,0.103-0.023,0.153-0.023c0.053,0,0.106,0.009,0.163,0.023
		c0.054,0.016,0.124,0.035,0.206,0.056v0.092c0.05,0,0.084,0.006,0.099,0.016c0.016,0.01,0.047,0.039,0.098,0.092v0.091h0.095v0.107
		c0.11,0.194,0.251,0.329,0.411,0.399l0.125-0.031c0.081,0,0.145,0.041,0.19,0.121c0.049,0.083,0.07,0.165,0.07,0.247
		c0,0.182-0.062,0.275-0.184,0.275v0.2h0.199c0,0.029,0.004,0.051,0.014,0.062c0.01,0.06,0.04,0.105,0.092,0.137h0.093
		c-0.052,0.113-0.097,0.201-0.138,0.261c-0.041,0.062-0.061,0.145-0.061,0.244c0,0.104-0.008,0.237-0.023,0.399
		c-0.014,0.164-0.038,0.344-0.062,0.536c-0.025,0.194-0.046,0.395-0.06,0.599c-0.018,0.206-0.022,0.396-0.022,0.564
		c0,0.114,0.003,0.22,0.016,0.316c0.01,0.098,0.028,0.171,0.058,0.221c-0.019,0.114-0.034,0.24-0.043,0.379
		c-0.012,0.136-0.015,0.276-0.015,0.421c0,0.356,0.02,0.717,0.058,1.079c0.041,0.365,0.065,0.726,0.065,1.081
		c0,0.317-0.024,0.577-0.065,0.783c-0.058,0-0.111,0.02-0.15,0.06c-0.012,0.011-0.021,0.019-0.031,0.022
		c-0.012,0.006-0.021,0.014-0.031,0.023l-1.81-0.198c0-0.398,0.012-0.821,0.032-1.272c0.021-0.449,0.03-0.904,0.03-1.362
		c0-0.371-0.014-0.734-0.037-1.098c-0.027-0.363-0.07-0.707-0.134-1.033v-1.016c-0.141-0.049-0.214-0.131-0.214-0.242
		c0-0.104,0.038-0.201,0.106-0.299c0.075-0.1,0.107-0.184,0.107-0.254c-0.038-0.041-0.073-0.07-0.107-0.084
		c-0.028-0.015-0.099-0.023-0.213-0.023h-0.29c-0.051-0.185-0.137-0.315-0.252-0.397c-0.12-0.082-0.243-0.124-0.377-0.124
		c-0.151,0-0.301,0.057-0.444,0.17c-0.082,0.062-0.146,0.144-0.182,0.244c-0.146,0.205-0.218,0.522-0.218,0.952l-0.108,0.107
		c0,0.15,0.007,0.305,0.017,0.459c0.011,0.152,0.041,0.301,0.092,0.444c-0.031,0.274-0.047,0.565-0.047,0.875
		c0,0.05,0.004,0.104,0.007,0.166c0.007,0.062,0.009,0.118,0.009,0.169l0.031,1.273v0.352c0,0.356-0.016,0.711-0.047,1.06
		c-0.029,0.347-0.086,0.669-0.166,0.967c-0.104,0-0.182-0.021-0.239-0.056c-0.056-0.036-0.103-0.083-0.138-0.14
		c-0.035-0.055-0.067-0.119-0.101-0.191c-0.029-0.068-0.07-0.143-0.121-0.213c0,0.05-0.005,0.095-0.015,0.138
		c-0.011,0.039-0.041,0.062-0.093,0.062c-0.102,0.053-0.189,0.078-0.26,0.083c-0.073,0.007-0.155,0.007-0.246,0.007
		c-0.05,0.054-0.085,0.104-0.101,0.155c-0.016,0.05-0.048,0.102-0.098,0.155h-0.2c-0.052-0.054-0.084-0.125-0.1-0.216
		c-0.017-0.095-0.048-0.19-0.101-0.293c0.104-0.204,0.203-0.407,0.3-0.605c0.097-0.199,0.196-0.401,0.299-0.604l-0.093-0.108
		c-0.103,0.204-0.197,0.375-0.282,0.514c-0.089,0.14-0.233,0.208-0.437,0.208c-0.051-0.308-0.099-0.646-0.14-1.021
		c-0.041-0.372-0.061-0.707-0.061-1.003c0.061-0.043,0.092-0.113,0.092-0.216c0-0.101-0.016-0.209-0.047-0.32
		c-0.028-0.114-0.045-0.206-0.045-0.276c0.042-0.063,0.076-0.158,0.107-0.293c0.031-0.13,0.053-0.282,0.069-0.45
		c0.016-0.17,0.024-0.348,0.03-0.537c0.007-0.19,0.008-0.371,0.008-0.543c0-0.237-0.001-0.442-0.008-0.623
		c-0.006-0.179-0.007-0.31-0.007-0.392c0.05-0.151,0.085-0.282,0.106-0.39c0.021-0.108,0.056-0.212,0.106-0.313
		c0-0.676-0.023-1.334-0.068-1.977c-0.045-0.646-0.095-1.304-0.145-1.978c0.254,0,0.486-0.02,0.695-0.063
		C23.056,16.574,23.262,16.527,23.467,16.476z M23.159,24.263c-0.029,0-0.05,0.006-0.06,0.014c-0.052,0.021-0.098,0.054-0.139,0.095
		c0,0.101-0.017,0.185-0.046,0.253c-0.032,0.066-0.047,0.15-0.047,0.251h-0.306v-0.397h-0.2c0.053,0.254,0.084,0.469,0.101,0.646
		c0.016,0.173,0.048,0.359,0.1,0.565c0.154-0.358,0.278-0.647,0.376-0.868C23.034,24.602,23.109,24.415,23.159,24.263z
		 M22.868,23.159c-0.112,0.101-0.176,0.165-0.198,0.19c-0.021,0.026-0.057,0.065-0.107,0.113l-0.108,0.6
		c0.052-0.102,0.097-0.186,0.14-0.253c0.039-0.065,0.061-0.149,0.061-0.251h0.214V23.159z M23.066,20.828
		c-0.048,0.053-0.103,0.119-0.151,0.199c-0.052,0.083-0.103,0.149-0.152,0.199v0.614c-0.052,0.051-0.084,0.081-0.101,0.092
		c-0.016,0.012-0.049,0.016-0.1,0.016v0.2h0.092c0.102-0.227,0.182-0.402,0.236-0.528c0.058-0.128,0.099-0.236,0.125-0.325
		c0.023-0.085,0.04-0.162,0.044-0.229C23.065,21.001,23.066,20.92,23.066,20.828z M23.267,17.289c-0.05,0-0.121,0.017-0.215,0.053
		c-0.091,0.035-0.188,0.055-0.289,0.055v1.21c0.101-0.203,0.189-0.42,0.269-0.652c0.075-0.229,0.19-0.417,0.342-0.558
		c0-0.021-0.003-0.036-0.014-0.047C23.349,17.308,23.318,17.289,23.267,17.289z M23.066,22.652h-0.105v0.307
		c0.051,0,0.082-0.012,0.091-0.038C23.063,22.896,23.066,22.807,23.066,22.652z M26.577,20.383c0.053-0.049,0.101-0.08,0.146-0.092
		c0.045-0.008,0.095-0.014,0.146-0.014c0-0.051,0.006-0.117,0.015-0.2c0.011-0.08,0.042-0.148,0.093-0.199
		c-0.051,0-0.094,0.021-0.129,0.061C26.81,19.981,26.722,20.129,26.577,20.383z M27.484,27.664v-0.168
		c0-0.08,0.004-0.153,0.014-0.224c0.011-0.063,0.041-0.169,0.093-0.312c-0.156,0.051-0.271,0.108-0.346,0.178
		c-0.074,0.064-0.167,0.175-0.269,0.329c0.052,0,0.086,0.02,0.1,0.061c0.016,0.04,0.048,0.087,0.101,0.137H27.484z M27.591,26.255
		v-0.105c0.101-0.054,0.182-0.106,0.236-0.163c0.057-0.057,0.111-0.133,0.162-0.237h0.108v-1.118h0.195
		c-0.049-0.051-0.08-0.103-0.089-0.153c-0.014-0.052-0.017-0.104-0.017-0.156c-0.154,0.207-0.241,0.41-0.267,0.616
		c-0.026,0.203-0.039,0.408-0.039,0.614c-0.146,0.048-0.245,0.153-0.308,0.313c-0.061,0.156-0.09,0.287-0.09,0.39H27.591z
		 M27.591,20.783c0.05,0,0.084-0.017,0.099-0.046c0.016-0.031,0.047-0.046,0.098-0.046V20.49c-0.051,0.054-0.082,0.101-0.098,0.149
		C27.675,20.683,27.641,20.731,27.591,20.783z M27.989,26.96c0.052-0.05,0.076-0.083,0.076-0.093c0-0.019-0.008-0.034-0.023-0.045
		c-0.015-0.01-0.034-0.03-0.053-0.062V26.96z M28.142,23.956c0.032-0.1,0.046-0.179,0.046-0.229h-0.09v0.476
		c0.007-0.042,0.015-0.083,0.022-0.124C28.125,24.037,28.133,23.997,28.142,23.956z"/>
	<path d="M31.146,16.476c0.103,0.102,0.187,0.2,0.254,0.29c0.063,0.095,0.149,0.165,0.254,0.216c0,0.152-0.006,0.283-0.016,0.391
		c-0.012,0.106-0.043,0.217-0.092,0.33c0.131,0.133,0.222,0.306,0.265,0.521c0.048,0.215,0.069,0.453,0.069,0.721
		c0,0.357-0.024,0.714-0.083,1.073c-0.055,0.355-0.106,0.638-0.144,0.842c0.05,0.152,0.08,0.283,0.091,0.392
		c0.01,0.107,0.015,0.211,0.015,0.315c-0.02,0.234-0.06,0.441-0.112,0.626c-0.06,0.185-0.114,0.367-0.171,0.545
		c-0.055,0.179-0.108,0.362-0.153,0.55c-0.047,0.189-0.071,0.409-0.071,0.655c0,0.244,0.033,0.54,0.093,0.887
		c-0.1,0-0.177,0.016-0.221,0.046c-0.046,0.033-0.089,0.047-0.13,0.047c-0.043,0-0.092-0.03-0.154-0.093
		c0,0.053-0.006,0.084-0.017,0.1c-0.007,0.015-0.038,0.05-0.089,0.1h-0.508c-0.01,0.013-0.021,0.016-0.029,0.016v-0.016
		c0-0.028,0.009-0.082,0.029-0.153c0.022-0.07,0.03-0.116,0.03-0.138l-0.03-0.014l-0.308,0.105v-0.4
		c0.073-0.099,0.118-0.158,0.134-0.174c0.014-0.016,0.037-0.061,0.068-0.129l0.105-0.216c-0.083,0.111-0.137,0.168-0.168,0.168
		c-0.062,0-0.135-0.046-0.222-0.136c-0.087-0.095-0.168-0.202-0.244-0.333c-0.077-0.125-0.146-0.258-0.203-0.391
		c-0.054-0.13-0.081-0.238-0.081-0.321c0.081-0.05,0.121-0.139,0.121-0.261c0-0.07-0.013-0.139-0.04-0.199
		c-0.024-0.061-0.052-0.111-0.081-0.152c0.07-0.07,0.13-0.21,0.176-0.416c0.045-0.203,0.076-0.42,0.09-0.649
		c0.019-0.229,0.026-0.447,0.032-0.651c0.005-0.205,0.009-0.346,0.009-0.428c0.1-0.196,0.205-0.4,0.304-0.615
		c0-0.224-0.014-0.44-0.045-0.652c-0.029-0.208-0.066-0.415-0.107-0.619c-0.039-0.203-0.074-0.409-0.106-0.614
		c-0.031-0.204-0.045-0.424-0.045-0.658c0.205-0.062,0.457-0.149,0.759-0.261C30.673,16.609,30.932,16.527,31.146,16.476z
		 M30.012,27.788c-0.103-0.102-0.187-0.149-0.255-0.138c-0.065,0.01-0.149-0.012-0.249-0.062c0.048-0.052,0.079-0.119,0.089-0.209
		c0.011-0.086,0.018-0.151,0.018-0.205c-0.052-0.142-0.077-0.323-0.077-0.537c0-0.111,0.003-0.232,0.015-0.36
		c0.011-0.127,0.031-0.268,0.062-0.421c0.151,0.052,0.3,0.073,0.443,0.06c0.142-0.008,0.264,0.038,0.366,0.139v-0.105h0.615
		l0.197-0.2h0.215c0.052,0.051,0.081,0.104,0.087,0.153c0.004,0.052,0.008,0.102,0.008,0.152c-0.054,0.031-0.079,0.052-0.079,0.063
		l0.048,0.045v0.016c0,0.01-0.022,0.035-0.063,0.076l-0.107,0.305c0.042-0.038,0.069-0.079,0.087-0.121
		c0.016-0.042,0.032-0.074,0.054-0.1c0.019-0.026,0.057-0.045,0.105-0.062c0.052-0.015,0.139-0.022,0.261-0.022
		c0.052,0.154,0.081,0.323,0.093,0.513c0.01,0.19,0.016,0.363,0.016,0.513c-0.082,0-0.123,0.041-0.123,0.124
		c0,0.123,0.041,0.185,0.123,0.185c-0.062,0.019-0.088,0.03-0.079,0.03c-0.038,0-0.073-0.03-0.1-0.092
		c-0.022-0.061-0.045-0.134-0.061-0.215s-0.029-0.167-0.037-0.261c-0.009-0.092-0.021-0.164-0.029-0.214V26.76l-0.31,0.308
		c0,0.152,0.016,0.249,0.048,0.283c0.03,0.036,0.066,0.062,0.107,0.077c0.042,0.016,0.076,0.042,0.107,0.077s0.047,0.13,0.047,0.283
		c-0.146,0-0.317-0.008-0.522-0.023s-0.409-0.023-0.613-0.023c-0.102,0-0.196,0.005-0.276,0.008
		C30.159,27.755,30.083,27.769,30.012,27.788z M30.226,21.566c0,0.111-0.018,0.195-0.054,0.252
		c-0.036,0.055-0.052,0.109-0.052,0.159h-0.309v-0.304h-0.091c0,0.111-0.007,0.204-0.015,0.281
		c-0.011,0.077-0.015,0.155-0.015,0.237c0,0.123,0.038,0.257,0.12,0.4c0.144-0.236,0.264-0.43,0.36-0.585
		c0.098-0.152,0.171-0.305,0.223-0.459l-0.03,0.018H30.226z M29.918,26.47c0.104-0.051,0.171-0.079,0.202-0.093
		c0.031-0.009,0.096-0.015,0.196-0.015v-0.308c-0.05,0.052-0.082,0.098-0.098,0.139c-0.017,0.04-0.048,0.062-0.099,0.062h-0.108
		L29.918,26.47z M30.932,17.089c-0.052,0-0.125,0.016-0.214,0.045c-0.093,0.031-0.19,0.047-0.294,0.047l-0.107,0.827
		c0.157-0.11,0.275-0.249,0.362-0.414c0.085-0.162,0.207-0.3,0.36-0.413C30.966,17.181,30.932,17.149,30.932,17.089z M30.532,21.168
		h-0.108v0.197L30.532,21.168z M30.839,23.097c-0.112,0.104-0.182,0.161-0.214,0.177c-0.03,0.014-0.098,0.023-0.201,0.023v0.52
		c0.053-0.112,0.086-0.196,0.101-0.253c0.017-0.055,0.05-0.109,0.101-0.158h0.108L30.839,23.097z M30.532,26.867
		c0.101-0.048,0.169-0.098,0.201-0.137c0.029-0.041,0.096-0.063,0.198-0.063l0.107-0.305h0.106v-0.107h-0.106
		c-0.104,0.103-0.183,0.18-0.237,0.239c-0.057,0.055-0.102,0.103-0.139,0.144c-0.038,0.042-0.061,0.078-0.075,0.106
		C30.573,26.773,30.552,26.819,30.532,26.867z M31.546,17.901c-0.104,0.051-0.17,0.119-0.202,0.208
		c-0.029,0.086-0.096,0.155-0.198,0.206v0.396h-0.214v0.201h0.107c0.101-0.154,0.182-0.271,0.236-0.354
		c0.057-0.08,0.103-0.154,0.138-0.223c0.036-0.064,0.062-0.129,0.076-0.19C31.506,18.086,31.524,18.003,31.546,17.901z"/>
</g>
</svg>
