<?xml version="1.0" encoding="utf-8"?>
<!-- Generator: Adobe Illustrator 15.0.0, SVG Export Plug-In . SVG Version: 6.00 Build 0)  -->
<!DOCTYPE svg PUBLIC "-//W3C//DTD SVG 1.1//EN" "http://www.w3.org/Graphics/SVG/1.1/DTD/svg11.dtd">
<svg version="1.1" id="Ebene_1" xmlns="http://www.w3.org/2000/svg" xmlns:xlink="http://www.w3.org/1999/xlink" x="0px" y="0px"
	 width="335.983px" height="377.98px" viewBox="0 0 335.983 377.98" enable-background="new 0 0 335.983 377.98"
	 xml:space="preserve">
<path fill="#010202" d="M226.185,309.813v-1.394h0.751L226.185,309.813z M223.288,344.026h0.751c0.357,0,0.589-0.143,0.697-0.43
	c0.107-0.284,0.338-0.606,0.697-0.965v2.145c-0.715,0-1.181,0.037-1.395,0.107c-0.215,0.072-0.68,0.286-1.395,0.644L223.288,344.026
	z M228.329,324.077h-0.752c-0.356,0.36-0.589,0.735-0.696,1.127c-0.107,0.394-0.341,0.984-0.696,1.77v-3.646
	c0.714,0,1.18-0.055,1.393-0.161c0.216-0.107,0.715-0.519,1.503-1.233L228.329,324.077z M227.31,347.457
	c0.107-0.214,0.286-0.463,0.536-0.75c0.25-0.285,0.572-0.625,0.967-1.019c0.392-0.393,0.945-0.947,1.662-1.662h0.751v0.75h-0.751
	l-0.752,2.145c-0.715,0-1.18,0.145-1.394,0.43c-0.214,0.287-0.681,0.607-1.394,0.966
	C227.078,347.958,227.202,347.672,227.31,347.457 M233.639,287.293c-0.107,0.429-0.288,0.876-0.537,1.342
	c-0.252,0.465-0.572,0.981-0.966,1.554c-0.393,0.573-0.948,1.396-1.661,2.467h-0.752v-1.395h1.503v-2.788
	c0.713-0.356,1.179-0.84,1.394-1.447s0.679-1.09,1.394-1.448C233.869,286.292,233.744,286.864,233.639,287.293 M225.756,311.208
	l0.214-0.106c-0.358,1.071-0.877,2.145-1.555,3.218c-0.681,1.071-1.521,2.431-2.521,4.075c-0.573-1.001-0.858-1.931-0.858-2.788
	c0-0.572,0.035-1.126,0.107-1.663c0.07-0.536,0.106-1.197,0.106-1.984h0.645v2.146h2.145c0-0.357,0.124-0.733,0.376-1.128
	c0.25-0.392,0.375-0.981,0.375-1.77H225.756z M230.475,280.537c-1.072,0.787-1.914,1.752-2.521,2.895
	c-0.607,1.146-1.447,2.111-2.52,2.896l0.751-5.79c0.714,0,1.393-0.108,2.037-0.322c0.644-0.214,1.143-0.322,1.501-0.322
	C229.723,280.321,229.974,280.537,230.475,280.537 M224.896,354.483c0.572-0.036,1.216-0.055,1.932-0.055
	c1.43,0,2.858,0.055,4.289,0.16c1.43,0.108,2.645,0.161,3.646,0.161c0-1.071-0.108-1.732-0.321-1.983
	c-0.215-0.25-0.467-0.429-0.751-0.537c-0.286-0.105-0.536-0.285-0.751-0.535s-0.321-0.912-0.321-1.984l2.145-2.145v0.535
	c0.071,0.359,0.143,0.858,0.215,1.502c0.07,0.644,0.161,1.252,0.268,1.823c0.107,0.574,0.25,1.073,0.429,1.502
	c0.178,0.429,0.412,0.643,0.698,0.643c-0.073,0,0.107-0.07,0.536-0.214c-0.573,0-0.858-0.429-0.858-1.287
	c0-0.571,0.285-0.858,0.858-0.858c0-1.072-0.037-2.269-0.107-3.592c-0.072-1.322-0.286-2.521-0.645-3.593
	c-0.857,0-1.465,0.054-1.822,0.161c-0.359,0.105-0.608,0.25-0.751,0.429c-0.145,0.18-0.269,0.411-0.376,0.696
	c-0.106,0.287-0.305,0.573-0.589,0.858l0.751-2.145c0.285-0.285,0.429-0.465,0.429-0.537v-0.106l-0.323-0.322
	c0-0.07,0.18-0.214,0.537-0.429c0-0.356-0.018-0.715-0.053-1.073c-0.037-0.356-0.233-0.713-0.59-1.071h-1.502l-1.394,1.394h-4.29
	v0.751c-0.716-0.715-1.574-1.035-2.574-0.965c-1.002,0.072-2.038-0.07-3.111-0.429c-0.213,1.072-0.357,2.056-0.429,2.949
	c-0.071,0.895-0.106,1.733-0.106,2.52c0,1.502,0.178,2.753,0.535,3.754c0,0.358-0.036,0.842-0.106,1.447
	c-0.071,0.608-0.286,1.091-0.644,1.448c0.714,0.358,1.305,0.5,1.77,0.429c0.464-0.07,1.054,0.251,1.77,0.965
	C223.788,354.607,224.323,354.52,224.896,354.483 M225.809,277.319c-2.109,0.788-3.879,1.394-5.31,1.823
	c0,1.646,0.108,3.183,0.323,4.612c0.214,1.43,0.464,2.859,0.75,4.289s0.536,2.878,0.751,4.344s0.321,2.985,0.321,4.558
	c-0.715,1.501-1.431,2.932-2.146,4.29c0,0.573-0.018,1.573-0.053,3.003c-0.036,1.43-0.107,2.949-0.215,4.558
	c-0.106,1.607-0.321,3.129-0.643,4.557c-0.322,1.433-0.734,2.398-1.233,2.897c0.214,0.286,0.41,0.643,0.59,1.071
	c0.178,0.429,0.268,0.895,0.268,1.395c0,0.858-0.286,1.467-0.857,1.823c0,0.573,0.196,1.324,0.59,2.252
	c0.392,0.931,0.857,1.842,1.394,2.735c0.536,0.896,1.108,1.662,1.716,2.306s1.126,0.965,1.556,0.965c0.214,0,0.606-0.393,1.18-1.18
	l-0.751,1.501c-0.215,0.502-0.375,0.805-0.482,0.913c-0.108,0.106-0.413,0.519-0.912,1.232v2.788l2.146-0.751l0.214,0.108
	c0,0.144-0.072,0.466-0.214,0.965c-0.144,0.5-0.214,0.857-0.214,1.071v0.108c0.07,0,0.143-0.036,0.214-0.108h3.539
	c0.356-0.356,0.571-0.59,0.644-0.696c0.07-0.107,0.107-0.339,0.107-0.697c0.429,0.429,0.785,0.644,1.072,0.644
	c0.285,0,0.59-0.106,0.911-0.321c0.322-0.214,0.84-0.322,1.556-0.322c-0.43-2.431-0.644-4.505-0.644-6.22
	c0-1.716,0.16-3.234,0.482-4.559c0.322-1.321,0.68-2.608,1.073-3.859c0.392-1.251,0.785-2.521,1.18-3.808
	c0.392-1.287,0.659-2.752,0.804-4.398c0-0.713-0.036-1.447-0.107-2.198s-0.287-1.662-0.644-2.735
	c0.285-1.428,0.624-3.395,1.02-5.898c0.392-2.501,0.59-5.003,0.59-7.507c0-1.857-0.161-3.539-0.483-5.04
	c-0.321-1.502-0.948-2.716-1.877-3.647c0.357-0.784,0.572-1.554,0.643-2.305c0.071-0.751,0.108-1.662,0.108-2.734
	c-0.716-0.357-1.306-0.859-1.77-1.502c-0.465-0.643-1.056-1.321-1.769-2.038C229.723,275.961,227.917,276.533,225.809,277.319
	 M209.509,347.565c0.143,0.215,0.268,0.358,0.375,0.43s0.16,0.179,0.16,0.321c0,0.071-0.178,0.286-0.535,0.643V347.565z
	 M207.417,304.721c0.106-0.322,0.339-0.661,0.697-1.02v1.395c-0.358,0-0.591,0.107-0.697,0.322s-0.34,0.321-0.697,0.321
	C207.077,305.382,207.311,305.042,207.417,304.721 M210.42,328.797c-0.036,0.286-0.091,0.574-0.16,0.858v-3.325h0.644
	c0,0.359-0.108,0.896-0.322,1.608C210.509,328.226,210.455,328.512,210.42,328.797 M174.975,320.699
	c-0.071,0.181-0.286,0.269-0.644,0.269v-2.144h0.752C175.083,319.896,175.046,320.523,174.975,320.699 M201.519,299.841
	c0.25-0.284,0.553-0.429,0.912-0.429c-0.359,0.357-0.574,0.822-0.644,1.393c-0.072,0.574-0.107,1.038-0.107,1.396
	c-0.359,0-0.697,0.036-1.019,0.106c-0.322,0.073-0.662,0.286-1.019,0.645C200.643,301.165,201.268,300.128,201.519,299.841
	 M173.688,325.15h-1.503c0,0.715-0.144,1.305-0.429,1.771s-0.608,1.056-0.964,1.77l0.751-4.183c0.355-0.357,0.605-0.626,0.75-0.805
	c0.143-0.179,0.606-0.626,1.395-1.34V325.15z M175.029,307.723c-0.038,0.466-0.145,1.003-0.322,1.609
	c-0.179,0.607-0.467,1.358-0.857,2.251c-0.395,0.895-0.949,2.13-1.664,3.702h-0.642v-1.396c0.355,0,0.59-0.035,0.697-0.108
	c0.106-0.068,0.338-0.284,0.695-0.642v-4.29c0.357-0.358,0.715-0.821,1.074-1.396c0.355-0.57,0.714-1.035,1.072-1.394
	C175.083,306.704,175.064,307.26,175.029,307.723 M203.825,353.893c-0.359-0.356-0.591-0.679-0.698-0.965
	c-0.106-0.284-0.34-0.429-0.696-0.429c0.713-1.073,1.34-1.841,1.875-2.306c0.537-0.466,1.342-0.875,2.414-1.234
	c-0.359,1.003-0.573,1.734-0.644,2.199c-0.072,0.466-0.106,0.983-0.106,1.555v1.18H203.825z M174.171,334
	c-0.681,1.537-1.555,3.556-2.627,6.059c-0.358-1.43-0.59-2.752-0.698-3.969c-0.106-1.216-0.34-2.717-0.696-4.504h1.395v2.788h2.145
	c0-0.714,0.106-1.305,0.322-1.77c0.214-0.465,0.32-1.054,0.32-1.77c0.285-0.285,0.607-0.499,0.967-0.644
	c0.069-0.071,0.213-0.107,0.428-0.107C175.367,331.156,174.849,332.462,174.171,334 M177.12,281.717
	c0.069,0.071,0.107,0.178,0.107,0.32c-1.073,1.003-1.877,2.307-2.413,3.914c-0.536,1.608-1.163,3.13-1.878,4.559v-8.473
	c0.715,0,1.395-0.123,2.038-0.376c0.645-0.248,1.144-0.373,1.502-0.373C176.834,281.288,177.047,281.432,177.12,281.717
	 M205.97,344.026c0-0.714,0.214-1.626,0.644-2.735c0.429-1.107,1.143-1.84,2.145-2.198c0-1.431,0.089-2.858,0.268-4.289
	c0.178-1.431,0.805-2.859,1.878-4.291c0,0.358,0.034,0.716,0.105,1.073c0.07,0.358,0.286,0.715,0.644,1.071h-1.393v7.83h-0.751
	c-0.359,0.715-0.734,1.27-1.126,1.661c-0.395,0.395-0.948,0.771-1.663,1.127v0.751H205.97z M173.526,276.568
	c-1.466,0.287-3.092,0.43-4.879,0.43c0.357,4.719,0.697,9.329,1.02,13.835c0.32,4.504,0.482,9.114,0.482,13.833
	c-0.358,0.716-0.609,1.448-0.752,2.199c-0.143,0.75-0.393,1.662-0.75,2.734c0,0.573,0.017,1.485,0.054,2.735
	c0.035,1.252,0.055,2.699,0.055,4.344c0,1.216-0.02,2.484-0.055,3.807c-0.037,1.324-0.107,2.574-0.214,3.754
	c-0.107,1.179-0.27,2.234-0.482,3.163c-0.216,0.932-0.467,1.609-0.752,2.038c0,0.502,0.107,1.144,0.322,1.931
	c0.214,0.787,0.321,1.538,0.321,2.253c0,0.714-0.214,1.215-0.644,1.5c0,2.074,0.143,4.416,0.43,7.024
	c0.285,2.611,0.606,4.988,0.965,7.133c1.43,0,2.449-0.482,3.058-1.448c0.605-0.965,1.268-2.162,1.983-3.593l0.643,0.751
	c-0.715,1.431-1.413,2.842-2.09,4.235c-0.681,1.395-1.379,2.808-2.092,4.237c0.356,0.716,0.59,1.394,0.696,2.037
	c0.108,0.644,0.34,1.143,0.698,1.502h1.393c0.357-0.359,0.59-0.716,0.698-1.074c0.106-0.356,0.339-0.713,0.696-1.071
	c0.644,0,1.216-0.016,1.716-0.054c0.5-0.035,1.108-0.23,1.824-0.589c0.355,0,0.571-0.143,0.644-0.43
	c0.07-0.285,0.106-0.605,0.106-0.966c0.357,0.502,0.643,1.003,0.858,1.502c0.214,0.501,0.446,0.946,0.697,1.341
	c0.249,0.392,0.571,0.715,0.965,0.966c0.393,0.249,0.947,0.375,1.662,0.375c0.571-2.074,0.966-4.326,1.18-6.757
	c0.215-2.431,0.323-4.896,0.323-7.399v-2.468l-0.216-8.901c0-0.356-0.018-0.751-0.053-1.18c-0.037-0.428-0.055-0.821-0.055-1.18
	c0-2.145,0.107-4.182,0.323-6.113c-0.359-1-0.574-2.037-0.645-3.109c-0.072-1.071-0.107-2.146-0.107-3.217l0.752-0.752
	c0-3.002,0.499-5.219,1.5-6.648c0.286-0.714,0.715-1.287,1.287-1.716c1-0.786,2.037-1.18,3.111-1.18
	c0.928,0,1.804,0.287,2.627,0.857c0.82,0.574,1.41,1.502,1.77,2.788h2.037c0.787,0,1.288,0.055,1.501,0.161
	c0.216,0.107,0.465,0.306,0.752,0.59c0,0.501-0.252,1.09-0.752,1.77c-0.501,0.681-0.751,1.377-0.751,2.092
	c0,0.787,0.5,1.358,1.503,1.716v7.078c0.429,2.288,0.732,4.702,0.911,7.24c0.178,2.537,0.269,5.094,0.269,7.667
	c0,3.217-0.072,6.399-0.215,9.545c-0.145,3.147-0.214,6.112-0.214,8.901l12.654,1.395c0.07-0.073,0.144-0.126,0.215-0.161
	c0.071-0.038,0.142-0.09,0.214-0.161c0.285-0.286,0.644-0.428,1.072-0.428c0.285-1.433,0.43-3.253,0.43-5.471
	c0-2.502-0.145-5.022-0.43-7.561c-0.286-2.537-0.429-5.058-0.429-7.561c0-1,0.035-1.985,0.108-2.949
	c0.069-0.966,0.177-1.841,0.32-2.628c-0.215-0.356-0.359-0.875-0.429-1.556c-0.073-0.678-0.107-1.41-0.107-2.198
	c0-1.215,0.054-2.537,0.161-3.968c0.107-1.43,0.25-2.824,0.429-4.183c0.177-1.357,0.321-2.609,0.43-3.753
	c0.107-1.144,0.16-2.073,0.16-2.789c0-0.714,0.143-1.286,0.429-1.716s0.606-1.036,0.966-1.823h-0.644
	c-0.359-0.215-0.573-0.536-0.644-0.965c-0.073-0.07-0.107-0.215-0.107-0.431h-1.394v-1.393c0.857,0,1.286-0.644,1.286-1.93
	c0-0.572-0.161-1.144-0.482-1.717c-0.321-0.571-0.769-0.858-1.34-0.858l-0.859,0.215c-1.144-0.5-2.108-1.429-2.895-2.788v-0.751
	h-0.644v-0.644c-0.358-0.357-0.591-0.572-0.697-0.644s-0.34-0.107-0.697-0.107v-0.644c-0.573-0.143-1.055-0.268-1.447-0.376
	c-0.395-0.105-0.769-0.16-1.127-0.16s-0.716,0.055-1.071,0.16c-0.358,0.108-0.823,0.233-1.395,0.376v0.536
	c0,0.572-0.215,1.072-0.644,1.502c0-0.357-0.18-0.786-0.536-1.287c-0.358-0.499-0.895-0.751-1.608-0.751v-2.896
	c-1.073,0.716-2.146,1.627-3.218,2.735s-2.109,1.841-3.109,2.198v-2.038c-0.073-0.071-0.287-0.107-0.645-0.107
	c-0.429,0-0.841,0.161-1.233,0.482c-0.395,0.322-0.787,0.682-1.18,1.073c-0.394,0.393-0.751,0.788-1.071,1.18
	c-0.323,0.393-0.629,0.696-0.913,0.911v-0.75c-0.286,0.145-0.554,0.287-0.804,0.429c-0.252,0.145-0.556,0.287-0.912,0.429v-0.429
	c-0.358,0.429-0.733,0.859-1.125,1.286c-0.395,0.429-0.77,0.896-1.127,1.395c0.215-1.572,0.322-3.146,0.322-4.719
	c0-2.288-0.215-4.396-0.645-6.327c-0.429-1.931-1.037-3.432-1.822-4.505c0-1.072,0.124-2.145,0.375-3.216
	c0.25-1.074,0.376-2.146,0.376-3.218c-0.717-0.715-1.432-1.537-2.146-2.468c-0.715-0.928-1.431-1.75-2.145-2.467
	C176.439,275.961,174.991,276.284,173.526,276.568 M153.389,335.661c-0.359,1.072-0.59,2.109-0.697,3.109
	c-0.107,1.002-0.34,1.896-0.697,2.682l-1.394-5.791c0.714,0,1.268-0.357,1.662-1.072c0.392-0.714,0.767-1.073,1.126-1.073V335.661z
	 M128.185,338.234c0.071-0.857,0.162-1.732,0.269-2.627s0.376-2.377,0.804-4.451l1.394,0.107l-0.108,2.146h-0.643l0.429,4.289
	c-0.715,0.288-1.18,0.733-1.394,1.341c-0.215,0.608-0.502,1.091-0.858,1.448L128.185,338.234z M145.506,297.213
	c0.107,0.18,0.161,0.341,0.161,0.482c0,0.216-0.179,0.501-0.537,0.858v-2.146C145.273,296.768,145.398,297.036,145.506,297.213
	 M159.822,316.73c-0.071,0.181-0.286,0.27-0.643,0.27v-2.145h0.751C159.931,315.927,159.893,316.555,159.822,316.73 M124.218,318.93
	h-0.752c-0.357,0.574-0.554,1.11-0.589,1.609c-0.037,0.502-0.053,0.965-0.053,1.395v0.535l-0.751-4.289
	c0.356,0,0.625-0.089,0.804-0.269c0.178-0.177,0.625-0.805,1.341-1.876V318.93z M136.015,300.484v1.071
	c0,0.717-0.091,1.503-0.268,2.36c-0.179,0.857-0.555,2.324-1.126,4.397h-0.75v-1.395h0.75l-0.75-2.146
	C134.583,302.63,135.299,301.199,136.015,300.484 M126.094,326.438c-0.535,1.501-0.983,3.325-1.34,5.469
	c-1.072-1.428-1.716-2.75-1.93-3.968c-0.214-1.214-0.501-2.536-0.858-3.967h0.645c0,0.357,0.124,0.841,0.375,1.446
	c0.25,0.608,0.375,1.092,0.375,1.448c0.356,0,0.714-0.035,1.072-0.108c0.356-0.068,0.714-0.284,1.072-0.642v-2.788
	c0.357-0.357,0.59-0.572,0.697-0.644s0.338-0.107,0.697-0.107C126.898,323.648,126.63,324.937,126.094,326.438 M142.61,355.233
	c1.107-0.392,2.376-0.768,3.807-1.126c0.787-0.285,1.609-0.465,2.467-0.537c0.858-0.07,1.716-0.106,2.574-0.106h1.395
	c0.499-0.216,1.088-0.484,1.77-0.805c0.679-0.321,1.322-0.644,1.93-0.965c0.606-0.322,1.162-0.59,1.663-0.805
	c0.5-0.215,0.821-0.321,0.965-0.321c0.357-1.357,0.912-2.878,1.663-4.559c0.751-1.679,1.126-3.414,1.126-5.201
	c0-1-0.215-2.001-0.644-3.004c0-2.573-0.233-4.271-0.696-5.093c-0.466-0.822-1.198-1.234-2.199-1.234
	c-0.788,0-1.716,0.144-2.789,0.429c-1.072,0.287-2.324,0.43-3.754,0.43c-0.214,0-0.411-0.017-0.59-0.054
	c-0.179-0.034-0.375-0.053-0.59-0.053l-1.394,1.395c-0.358,1.431-0.573,2.878-0.644,4.343c-0.072,1.465-0.107,3.093-0.107,4.88
	c-1.432,1.787-2.807,3.163-4.129,4.13c-1.323,0.964-3.235,1.446-5.737,1.446c-0.358-0.356-0.59-0.678-0.697-0.966
	c-0.107-0.284-0.34-0.428-0.698-0.428v-0.644h-0.75c-0.358-1.073-0.68-1.984-0.965-2.734c-0.287-0.751-0.429-1.519-0.429-2.308
	c-0.715,0-1.377-0.391-1.984-1.179c-0.608-0.786-0.911-1.571-0.911-2.36h0.75c0-0.356,0.036-0.695,0.107-1.019
	c0.07-0.321,0.285-0.659,0.643-1.018h0.644c0.357-1,0.625-2.199,0.804-3.594c0.177-1.393,0.268-2.804,0.268-4.236
	c0-1.429-0.091-2.895-0.268-4.396c-0.179-1.502-0.447-2.858-0.804-4.075c0-0.714,0.124-1.396,0.375-2.037
	c0.25-0.644,0.376-1.144,0.376-1.503c-0.429-0.713-0.644-1.429-0.644-2.146c0-0.713,0.197-1.394,0.59-2.036
	c0.393-0.644,0.858-1.25,1.395-1.823c0.536-0.571,1.126-1.106,1.77-1.608c0.643-0.499,1.25-1.035,1.823-1.609
	c0.5-0.214,0.981-0.357,1.447-0.43c0.464-0.069,0.912-0.105,1.341-0.105c1.215,0,2.251,0.358,3.11,1.071
	c0.858,0.716,1.555,1.609,2.091,2.682c0.536,1.072,0.947,2.271,1.234,3.593c0.285,1.324,0.499,2.592,0.643,3.807
	c0.5,0.359,1.162,0.537,1.985,0.537c0.821,0,1.662,0.018,2.521,0.053c0.857,0.037,1.662,0.198,2.412,0.483
	c0.751,0.285,1.305,0.857,1.663,1.716h2.038c0.571-1,1.056-2.108,1.448-3.324c0.392-1.217,0.59-2.431,0.59-3.646
	c0-1.072-0.179-2.038-0.536-2.896c0-0.715,0.144-1.41,0.429-2.091c0.285-0.679,0.607-1.411,0.966-2.199h-1.395
	c-0.429-1.287-0.876-2.395-1.341-3.323c-0.467-0.93-0.983-1.733-1.555-2.414c-0.573-0.679-1.216-1.268-1.93-1.77
	c-0.715-0.499-1.539-1.001-2.467-1.501l-4.075-2.252h-5.683c-0.716,0.716-1.271,1.448-1.662,2.198
	c-0.394,0.751-0.771,1.662-1.126,2.734h-1.395v-2.788c-1.072,0-1.841,0.198-2.305,0.589c-0.466,0.395-0.877,1.127-1.234,2.199
	c0-0.357-0.125-0.714-0.375-1.072c-0.252-0.357-0.376-0.714-0.376-1.072c-0.144-0.07-0.465-0.107-0.965-0.107
	c-0.429,0-1.073,0.18-1.93,0.537l-1.395,0.643c-0.43,0.214-0.895,0.321-1.394,0.321c0,0.358-0.107,0.842-0.323,1.448
	c-0.214,0.608-0.321,1.09-0.321,1.448c-1.072,0.144-2.091,0.573-3.055,1.287c-0.966,0.714-1.825,1.555-2.575,2.521
	c-0.751,0.964-1.378,2.001-1.877,3.109c-0.5,1.108-0.857,2.091-1.072,2.949H121v2.895c0.143,0,0.25,0.038,0.322,0.108
	c0.214,0.215,0.322,0.394,0.322,0.536c-0.359,0.717-0.697,1.467-1.019,2.253s-0.662,1.681-1.019,2.681h0.644
	c-0.072,0.715-0.126,1.394-0.161,2.037c-0.037,0.644-0.054,1.287-0.054,1.93c0,2.789,0.25,5.507,0.75,8.152
	c0.5,2.645,1.036,5.469,1.609,8.473c-0.643,1.071-0.964,2.108-0.964,3.109c0,2.146,1.501,3.469,4.503,3.969l-0.75,3.538
	c0.215,0.216,0.536,0.321,0.965,0.321c0.356,0,0.82-0.054,1.394-0.16c0.571-0.107,1.214-0.161,1.93-0.161v1.395h2.789
	c0.713,0.715,1.233,1.252,1.555,1.608c0.322,0.358,0.981,0.536,1.984,0.536v-0.214c0-0.358,0.07-0.679,0.215-0.965
	c0.143-0.286,0.571-0.606,1.286-0.966v0.751c-0.358,0.358-0.572,0.608-0.643,0.751c-0.072,0.144-0.107,0.573-0.107,1.286
	c0.357,0,0.822,0.161,1.395,0.483c0.572,0.321,1.036,0.659,1.394,1.019C140.411,356.215,141.501,355.624,142.61,355.233
	 M105.74,347.995h0.75l-0.75,0.75V347.995z M110.03,329.012l0.106-0.215l0.215-0.215l0.214-0.429c0-0.07,0.036-0.143,0.108-0.215
	c0,0.573-0.019,0.896-0.053,0.966C110.583,328.976,110.387,329.012,110.03,329.012 M97.697,350.568
	c0.071-0.07,0.124-0.143,0.16-0.214c0.035-0.071,0.09-0.144,0.162-0.216c0,0.359-0.019,0.591-0.054,0.697
	c-0.037,0.107-0.233,0.34-0.59,0.698C97.375,351.104,97.482,350.782,97.697,350.568 M103.703,324.077v-2.787h0.643L103.703,324.077z
	 M101.558,344.455c0-0.714,0.035-1.269,0.107-1.663c0.07-0.392,0.285-0.767,0.643-1.125v2.145L101.558,344.455z M80.537,320.646
	c0.357-0.785,0.589-1.232,0.697-1.341c0.107-0.107,0.339-0.16,0.697-0.16v1.501H80.537z M110.03,340.809v-1.18
	c0-0.787,0.106-1.608,0.321-2.467c0.214-0.857,0.571-1.464,1.072-1.822c-0.358,0.857-0.574,1.466-0.643,1.822
	c-0.073,0.358-0.215,0.929-0.429,1.717C110.208,339.451,110.1,340.095,110.03,340.809 M107.134,347.351
	c-0.144,0.145-0.251,0.269-0.322,0.375c-0.072,0.107-0.178,0.198-0.321,0.27c0.356-1.431,0.946-2.699,1.77-3.808
	c0.82-1.108,1.41-2.199,1.77-3.272c0,1.574-0.198,2.772-0.59,3.593c-0.395,0.823-1.02,1.628-1.877,2.413L107.134,347.351z
	 M109.279,321.29h0.751c0-0.715,0.106-1.41,0.321-2.092c0.214-0.679,0.322-1.375,0.322-2.092h1.395v-0.75h0.75
	c-0.359,0.858-0.644,1.555-0.858,2.092c-0.215,0.536-0.447,1.037-0.697,1.501c-0.251,0.466-0.573,0.948-0.966,1.448
	c-0.393,0.499-0.948,1.18-1.662,2.037L109.279,321.29z M76.247,340.271c0.429-0.429,0.732-0.731,0.912-0.911
	c0.177-0.177,0.41-0.268,0.696-0.268c0.357,0,0.787,0.144,1.288,0.43c-0.359,0.714-0.573,1.466-0.643,2.251
	c-0.073,0.788-0.108,1.682-0.108,2.682c-0.358,0-0.716,0.144-1.072,0.429c-0.359,0.286-0.716,0.608-1.073,0.966V340.271z
	 M78.392,316.356c0.215-0.714,0.375-1.287,0.483-1.716c0.107-0.429,0.268-0.859,0.482-1.288c0.215-0.428,0.518-0.927,0.913-1.501
	c0.392-0.571,0.946-1.394,1.662-2.466v-1.18c0-0.571,0.017-0.966,0.053-1.18c0.036-0.215,0.232-0.607,0.59-1.18
	c0,0.715,0.125,1.305,0.376,1.769c0.25,0.467,0.375,1.058,0.375,1.771h0.644c-0.359,0.358-0.59,0.733-0.698,1.126
	c-0.107,0.394-0.339,0.948-0.697,1.661h-1.394c-0.358,0.716-0.59,1.414-0.697,2.093c-0.107,0.68-0.34,1.377-0.697,2.091H78.392z
	 M91.637,347.297c-0.036-0.107-0.233-0.339-0.589-0.696c-0.358-0.357-0.573-0.715-0.644-1.073c-0.072-0.357-0.106-0.714-0.106-1.072
	h-0.644v-1.395h-2.145v2.146h-0.644v0.644H85.47c0-0.715-0.125-1.376-0.375-1.984c-0.251-0.607-0.375-1.089-0.375-1.448h-0.75
	c0-1.715-0.054-3.218-0.161-4.504c-0.107-1.288-0.161-2.537-0.161-3.753c0-1.288,0.107-2.557,0.322-3.809
	c0.214-1.25,0.714-2.627,1.501-4.129c0-0.357-0.037-0.571-0.107-0.644c-0.072-0.07-0.287-0.106-0.644-0.106
	c0-1.001-0.037-1.912-0.107-2.735c-0.072-0.82-0.287-1.77-0.644-2.842c0.786-2.072,1.464-4.289,2.038-6.649
	c0.572-2.358,0.857-4.573,0.857-6.648c2.288-1.431,4.468-2.145,6.542-2.145c1.143,0,2.467,0.213,3.968,0.643v2.145l1.394,1.394
	c0.358,1.074,0.714,2.165,1.072,3.272c0.358,1.108,0.714,2.378,1.073,3.806c0,1.432-0.107,2.826-0.321,4.184
	c-0.215,1.359-0.322,2.753-0.322,4.182c0,1.502,0.215,2.934,0.644,4.29c-0.359,0.716-0.681,1.521-0.965,2.415
	c-0.287,0.894-0.43,1.698-0.43,2.412c0,1.072,0.108,2.021,0.322,2.841c0.215,0.823,0.323,1.77,0.323,2.844h-0.645
	c-0.357,1.001-0.696,1.93-1.019,2.788c-0.322,0.856-0.482,1.788-0.482,2.788h-0.644v1.395H95.98v1.394h-1.715
	c-0.574,0-0.895,0.037-0.966,0.107l-0.75,0.215c-0.144,0.072-0.287,0.125-0.429,0.16c-0.144,0.037-0.287,0.125-0.429,0.27
	C91.69,347.638,91.672,347.405,91.637,347.297 M92.012,355.984c0.786-0.322,1.18-0.662,1.18-1.02
	c0.356,0.357,0.732,0.697,1.126,1.02c0.392,0.321,0.947,0.481,1.662,0.481c0-0.357,0.25-0.715,0.751-1.072
	c0.499-0.359,0.928-0.714,1.287-1.072c0.428,0.215,0.965,0.322,1.608,0.322c0.786,0,1.625-0.143,2.521-0.429
	c0.893-0.285,1.804-0.607,2.734-0.967c0.928-0.355,1.823-0.696,2.681-1.019c0.858-0.321,1.679-0.553,2.467-0.695
	c0.498-0.859,0.893-1.556,1.18-2.093c0.285-0.535,0.553-1.019,0.804-1.446c0.25-0.43,0.537-0.914,0.858-1.449
	c0.322-0.536,0.767-1.233,1.34-2.091h0.75v-6.327h-0.75c0.214-0.142,0.375-0.286,0.482-0.43c0.108-0.143,0.215-0.464,0.322-0.965
	c0.108-0.499,0.197-1.233,0.268-2.198c0.071-0.966,0.178-2.342,0.322-4.129l0.752-0.644v-8.473
	c-0.359-0.715-0.574-1.448-0.645-2.199c-0.071-0.75-0.107-1.661-0.107-2.734c-0.857-0.357-1.412-0.947-1.662-1.77
	c-0.25-0.821-0.375-1.732-0.375-2.735c0-0.571,0.016-1.144,0.053-1.715c0.035-0.571,0.054-1.144,0.054-1.717
	c0-0.785-0.106-1.41-0.322-1.877c-0.214-0.464-0.643-0.696-1.286-0.696c-0.359-1.43-0.895-2.537-1.609-3.325
	c-0.716-0.785-1.789-1.537-3.217-2.252c-0.287-0.429-0.681-0.981-1.18-1.663c-0.501-0.678-1.056-1.34-1.663-1.983
	c-0.608-0.644-1.27-1.196-1.983-1.661c-0.716-0.466-1.432-0.698-2.145-0.698c-0.788,0-1.539,0.358-2.252,1.073
	c-0.359-0.357-0.59-0.626-0.698-0.804c-0.106-0.18-0.339-0.627-0.696-1.341h-1.395c0,0.714-0.054,1.161-0.16,1.341
	c-0.108,0.178-0.52,0.446-1.233,0.804h-1.395v-2.145c-0.715,0.357-1.27,0.661-1.662,0.91c-0.395,0.251-0.769,0.877-1.126,1.877
	h-1.394v-1.394c-0.574,0.215-1.038,0.321-1.395,0.321c-0.358,0-0.643,0.036-0.857,0.106c-0.215,0.072-0.359,0.269-0.429,0.591
	c-0.073,0.321-0.108,0.911-0.108,1.77c-0.358,0-0.75-0.107-1.179-0.322c-0.43-0.214-1.002-0.32-1.717-0.32
	c-1.072,0.5-2.217,1.43-3.431,2.788c-1.217,1.358-2.343,2.879-3.379,4.557c-1.037,1.682-1.913,3.378-2.627,5.095
	c-0.715,1.717-1.072,3.183-1.072,4.397c-0.359,0.716-0.681,1.306-0.965,1.769c-0.286,0.467-0.43,1.058-0.43,1.77
	c0.358,0,0.714,0.145,1.073,0.431c0.356,0.286,0.714,0.606,1.072,0.964v1.717c0,0.642-0.037,1.002-0.107,1.072l-0.214,0.965
	c-0.072,0.214-0.144,0.43-0.215,0.644c-0.072,0.215-0.143,0.394-0.214,0.536c-0.145,0.716-0.252,1.95-0.322,3.7
	c-0.073,1.753-0.107,3.665-0.107,5.737c0,1.574,0.035,3.129,0.107,4.666c0.07,1.538,0.214,2.932,0.429,4.183
	c0.214,1.251,0.482,2.251,0.804,3.002c0.321,0.751,0.732,1.127,1.233,1.127c0.357,1.788,1.089,3.183,2.198,4.181
	c1.108,1.004,2.698,1.504,4.773,1.504v-1.396h0.75c0.357,1.717,0.804,2.825,1.34,3.325c0.537,0.501,1.143,0.804,1.824,0.911
	c0.678,0.108,1.447,0.214,2.305,0.322c0.859,0.106,1.823,0.696,2.896,1.769C90.653,356.466,91.225,356.306,92.012,355.984
	 M37.136,301.664c-0.215,0.215-0.323,0.394-0.323,0.536c0-0.357,0.036-0.626,0.107-0.805c0.071-0.177,0.285-0.446,0.644-0.804
	C37.565,301.021,37.421,301.379,37.136,301.664 M32.738,309.171l0.108-0.214c0.142-0.142,0.285-0.323,0.428-0.537v2.145
	L32.738,309.171z M61.963,326.974c0.108,0.215,0.161,0.394,0.161,0.536c0,0.073-0.179,0.536-0.535,1.395v-2.788
	C61.73,326.474,61.855,326.758,61.963,326.974 M57.245,319.574c-0.037,0.072-0.233,0.106-0.59,0.106v-2.037l0.643,0.643
	C57.297,319.074,57.279,319.504,57.245,319.574 M31.773,328.528c0.071,0.395,0.108,0.771,0.108,1.127H31.13v-2.897
	C31.486,327.547,31.701,328.137,31.773,328.528 M55.261,322.577c0-0.143,0.035-0.285,0.106-0.43c0.143-0.429,0.322-0.75,0.537-0.964
	l-0.643,2.788H54.51v1.393c-0.501,0-0.751-0.214-0.751-0.643c0.071-0.07,0.124-0.142,0.162-0.214
	c0.035-0.07,0.124-0.179,0.268-0.323c0.071-0.07,0.196-0.231,0.376-0.481C54.741,323.453,54.974,323.077,55.261,322.577
	 M26.035,314.05c-0.106,1.181-0.519,2.129-1.232,2.843v-1.607c0-0.645,0.088-1.235,0.268-1.771c0.177-0.537,0.553-1.304,1.125-2.307
	C26.196,311.925,26.143,312.871,26.035,314.05 M55.261,343.061l0.643,0.751c-0.358,1.072-0.734,2.128-1.126,3.165
	c-0.394,1.037-0.948,2.09-1.662,3.162v-2.788C54.545,346.564,55.261,345.135,55.261,343.061 M29.735,304.881h-0.75
	c0,1.072-0.375,2.092-1.126,3.058c-0.75,0.964-1.305,1.841-1.663,2.626c0-1.429,0.322-2.608,0.965-3.538
	c0.643-0.929,1.501-2.108,2.574-3.541V304.881z M26.947,328.904c0,0.358-0.144,0.572-0.428,0.643
	c-0.072,0.073-0.18,0.108-0.322,0.108c-0.358,0.715-0.59,1.413-0.696,2.091c-0.107,0.68-0.341,1.378-0.697,2.091h-0.751v0.752
	h-0.644c0.358-0.857,0.644-1.556,0.858-2.093c0.215-0.535,0.429-1.019,0.644-1.446c0.215-0.43,0.464-0.912,0.751-1.448
	c0.285-0.536,0.714-1.234,1.286-2.092V328.904z M53.758,333.837c0.357,0,0.697-0.017,1.019-0.053
	c0.322-0.035,0.483-0.231,0.483-0.59c0.356-0.356,0.59-0.858,0.696-1.502c0.107-0.643,0.339-1.322,0.697-2.037
	c0.357,0,0.59-0.035,0.697-0.108c0.108-0.07,0.338-0.284,0.698-0.643c-0.359,1.432-0.966,2.915-1.824,4.451
	c-0.858,1.538-1.68,3.378-2.467,5.523c0-1.001-0.053-1.894-0.161-2.682c-0.106-0.786-0.161-1.536-0.161-2.253
	c0-0.785,0.107-1.5,0.322-2.144V333.837z M59.819,280.805c0.249,0.107,0.375,0.34,0.375,0.696c-1.072,1.073-1.877,2.29-2.413,3.646
	c-0.536,1.359-1.163,2.754-1.877,4.183v-7.829c0.714-0.356,1.393-0.589,2.038-0.696c0.643-0.107,1.143-0.339,1.501-0.697
	C59.442,280.466,59.567,280.697,59.819,280.805 M50.273,339.79c-0.107,0.394-0.34,0.77-0.697,1.125h0.643l0.751,1.502l-1.395,1.395
	c-1.002,0.429-2.056,0.734-3.163,0.911c-1.11,0.179-2.199,0.269-3.272,0.269c-1.359,0-2.753-0.178-4.183-0.536l-1.394-1.395
	c-0.359-0.356-0.609-0.679-0.751-0.965c-0.144-0.285-0.393-0.429-0.75-0.429c-0.359-1.073-0.696-2.145-1.019-3.218
	c-0.322-1.072-0.662-2.108-1.018-3.109c0.285-1.431,0.517-2.878,0.696-4.345c0.178-1.464,0.269-2.876,0.269-4.237
	c0-1.141-0.107-2.32-0.322-3.538c0-0.999,0.124-1.893,0.375-2.681c0.25-0.786,0.375-1.536,0.375-2.253
	c0-1.071-0.037-2.019-0.107-2.841c-0.072-0.821-0.286-1.77-0.643-2.843c0.357,0.359,0.571,0.537,0.643,0.537
	c0.143,0,0.392-0.178,0.751-0.537c0-0.714,0.124-1.537,0.376-2.466c0.25-0.929,0.375-1.752,0.375-2.467h0.751v-1.396h0.643
	l0.75-1.394c1.072,0,1.751-0.034,2.039-0.107c0.284-0.069,0.785-0.284,1.5-0.644c0,0.788,0.017,1.218,0.054,1.288
	c0.036,0.072,0.231,0.106,0.59,0.106c0.358,0.359,0.572,0.716,0.644,1.073c0.07,0.358,0.108,0.714,0.108,1.072h0.75
	c0,0.286,0.053,0.466,0.161,0.536c0.106,0.071,0.16,0.179,0.16,0.321c0,0.146-0.107,0.322-0.321,0.536h2.037v-2.037l0.751,0.644
	v-1.396h0.75c0.285,0.573,0.464,1.11,0.536,1.608c0.071,0.502,0.107,0.967,0.107,1.396v0.535h0.751c0,0.789,0.215,1.181,0.643,1.181
	c0.5,0,1-0.143,1.502-0.43c0.07,1.003,0.177,2.129,0.322,3.379c0.142,1.251,0.284,2.521,0.428,3.807
	c0.143,1.288,0.269,2.558,0.375,3.809c0.108,1.252,0.161,2.413,0.161,3.485c0,1.93-0.214,3.218-0.643,3.86v1.394h-0.643v4.826
	c-0.145,0.073-0.269,0.107-0.375,0.107c-0.108,0-0.233,0.037-0.375,0.108l0.751,1.394c-0.215,0.145-0.323,0.252-0.323,0.32
	c0-0.213,0.071-0.104,0.215,0.323l0.214,0.321v0.106c0,0.145-0.037,0.253-0.106,0.323c0,0.358-0.145,0.535-0.429,0.535
	c-0.215,0-0.322-0.177-0.322-0.535C50.611,338.842,50.381,339.398,50.273,339.79 M52.365,351.748v0.536
	c0,0.715,0.124,1.412,0.375,2.091c0.249,0.679,0.375,1.412,0.375,2.198h1.395c0.356-0.358,0.59-0.75,0.696-1.18
	c0.107-0.429,0.339-1,0.698-1.715h3.539c0-0.357,0.125-0.591,0.376-0.699c0.249-0.105,0.375-0.336,0.375-0.695
	c0.357,1.072,0.768,1.968,1.234,2.681c0.464,0.714,1.233,1.25,2.305,1.608c0.858-2.501,1.411-5.182,1.662-8.043
	c0.25-2.859,0.376-5.791,0.376-8.795c0-1.786-0.018-3.592-0.053-5.415c-0.038-1.824-0.054-3.628-0.054-5.416v-3.54
	c0-1.142,0.071-2.322,0.215-3.538c0-1.071-0.126-2.127-0.376-3.165c-0.251-1.035-0.375-2.091-0.375-3.162
	c0-1.931,0.088-4.434,0.267-7.508c0.179-3.073,0.269-6.22,0.269-9.438c0-2.645-0.125-5.111-0.375-7.4
	c-0.252-2.287-0.769-4.074-1.556-5.362c0-1.072,0.107-2.145,0.321-3.217c0.216-1.073,0.322-2.146,0.322-3.217
	c-0.715-0.714-1.413-1.449-2.091-2.199c-0.681-0.75-1.377-1.663-2.091-2.735c-1.072,0.359-2.289,0.717-3.646,1.072
	c-1.359,0.359-2.753,0.716-4.182,1.073c0,3.86,0.124,7.866,0.375,12.011c0.249,4.147,0.375,8.152,0.375,12.013h-0.75v1.394h-0.643
	c-0.36-1.572-0.805-2.555-1.341-2.949c-0.537-0.392-1.145-0.606-1.824-0.644c-0.68-0.034-1.412-0.106-2.199-0.215
	c-0.787-0.106-1.608-0.696-2.466-1.77c-0.359,0-0.823,0.144-1.395,0.43c-0.573,0.286-1.037,0.607-1.394,0.965
	c0-0.928-0.716-1.395-2.146-1.395c-0.357,0.359-0.679,0.698-0.965,1.019c-0.286,0.324-0.428,0.663-0.428,1.02
	c-0.573-0.215-1.18-0.321-1.824-0.321c-0.787,0-1.609,0.125-2.467,0.375c-0.857,0.251-1.715,0.536-2.573,0.857
	c-0.858,0.323-1.681,0.662-2.467,1.019c-0.787,0.36-1.467,0.681-2.038,0.966c-0.572,0.716-1.001,1.271-1.287,1.663
	c-0.287,0.394-0.537,0.787-0.75,1.18c-0.215,0.394-0.429,0.857-0.644,1.395c-0.215,0.535-0.501,1.232-0.858,2.091h-1.394v5.683
	l0.643,0.753c-0.144,0-0.269,0.036-0.375,0.106c-0.108,0.072-0.197,0.32-0.268,0.75c-0.073,0.429-0.161,1.127-0.268,2.093
	c-0.108,0.964-0.269,2.341-0.483,4.129h-0.644c0.215,1.001,0.323,1.966,0.323,2.894c0,0.932-0.055,1.844-0.162,2.736
	c-0.107,0.895-0.161,1.841-0.161,2.842c0.714,0.715,1.127,1.358,1.234,1.931c0.107,0.572,0.161,1.573,0.161,3.003
	c0.571,0.215,0.946,0.608,1.126,1.18c0.177,0.572,0.268,1.217,0.268,1.93c0,0.858-0.054,1.733-0.161,2.628
	c-0.106,0.895-0.161,1.662-0.161,2.306c0,1.216,0.358,1.823,1.072,1.823c0.714,1.431,1.358,2.45,1.931,3.057
	c0.572,0.606,1.571,1.271,3.003,1.983c0.285,0.43,0.679,0.966,1.179,1.609c0.499,0.644,1.054,1.271,1.662,1.875
	c0.607,0.609,1.25,1.128,1.931,1.557c0.679,0.429,1.34,0.643,1.984,0.643c0.643,0,1.215-0.25,1.715-0.75l1.395,1.395h0.75
	c0.357-0.359,0.607-0.626,0.751-0.805c0.142-0.177,0.605-0.625,1.394-1.34l0.643,0.75v1.395c0.714,0,1.287-0.18,1.717-0.536
	c0.429-0.358,0.82-0.894,1.179-1.608h0.643c0.357,0.357,0.572,0.589,0.644,0.696c0.071,0.108,0.107,0.341,0.107,0.698
	c0.5-0.145,0.911-0.251,1.233-0.323c0.322-0.07,0.571-0.161,0.751-0.267c0.177-0.108,0.322-0.324,0.428-0.645
	c0.107-0.322,0.231-0.84,0.375-1.555c0.356,0,0.714,0.125,1.072,0.375c0.357,0.252,0.714,0.376,1.073,0.376
	c0.428-0.43,0.751-0.68,0.965-0.751C52.15,352.213,52.293,352.034,52.365,351.748"/>
<path fill="#010202" d="M212.317,217.799l-0.644,0.749v-0.749H212.317z M202.558,230.452l-0.75,1.396h-0.643L202.558,230.452z
	 M199.181,226.216c0.107-0.106,0.518-0.338,1.233-0.696l-1.395,1.395C199.02,226.557,199.073,226.323,199.181,226.216
	 M215.856,254.369v-0.752h1.396L215.856,254.369z M194.837,258.551c0-0.214,0.089-0.375,0.268-0.482s0.304-0.16,0.375-0.16v1.394
	L194.837,258.551z M195.909,254.261c-0.286-0.07-0.43-0.284-0.43-0.644v-0.321c0.144,0.286,0.34,0.466,0.591,0.536
	c0.25,0.072,0.518,0.252,0.805,0.537C196.516,254.369,196.194,254.333,195.909,254.261 M191.619,213.24
	c0.431,0.251,1.035,0.374,1.824,0.374l-0.751,0.752c-1.073-0.356-1.716-0.607-1.931-0.752c-0.215-0.142-0.501-0.392-0.857-0.75
	C190.617,212.864,191.19,212.99,191.619,213.24 M189.904,249.436c0.643-0.644,1.822-1.357,3.539-2.146l-1.502,2.146H189.904z
	 M205.347,228.415h0.644c0.786-0.357,1.377-0.714,1.771-1.072c0.391-0.356,0.768-0.715,1.125-1.073l-1.394,2.789h-0.966
	c-0.357,0-0.696,0.036-1.02,0.107c-0.32,0.071-0.84,0.286-1.554,0.643L205.347,228.415z M197.411,237.746
	c0.284-0.285,0.571-0.536,0.857-0.751c0.285-0.216,0.607-0.446,0.966-0.697c0.356-0.25,0.804-0.554,1.341-0.912
	c0.535-0.356,1.196-0.82,1.982-1.394h0.645l-0.645,0.644h-0.75l-1.394,2.144c-0.716,0.36-1.413,0.717-2.092,1.073
	c-0.68,0.358-1.378,0.715-2.091,1.072L197.411,237.746z M207.707,223.321c1.356-0.751,2.896-1.662,4.61-2.736
	c0,1.503-0.68,2.934-2.037,4.291h-0.751c0.357-0.357,0.571-0.59,0.645-0.697c0.069-0.108,0.106-0.339,0.106-0.697h-2.145
	c-0.359,0.358-0.717,0.697-1.071,1.02c-0.36,0.32-0.717,0.661-1.074,1.019h-1.395C205.311,224.806,206.348,224.07,207.707,223.321
	 M177.464,258.122c0,0.93,0.034,1.877,0.106,2.841c0.07,0.966,0.178,1.807,0.323,2.521c0.354-0.358,0.803-0.947,1.34-1.77
	c0.536-0.821,0.804-1.411,0.804-1.77h2.146v0.751l-2.146,1.394l-1.395,1.395h2.789v1.394c2.503-0.358,4.558-0.679,6.166-0.965
	c1.609-0.286,2.591-0.429,2.949-0.429c0.786,0.284,1.716,0.429,2.789,0.429c1.571,0,3.092-0.251,4.558-0.75
	c1.466-0.502,3.02-0.858,4.664-1.073c0.5,0.644,1.431,0.967,2.789,0.967c1.216,0,2.467-0.162,3.754-0.484
	c1.287-0.321,2.36-0.482,3.217-0.482l4.291,0.644c0.714-0.357,1.195-0.805,1.447-1.341c0.249-0.535,0.447-1.107,0.59-1.715
	c0.143-0.606,0.285-1.197,0.43-1.77c0.142-0.572,0.464-1.035,0.965-1.395v-1.502c-0.788-0.785-1.18-1.357-1.18-1.716
	c0-0.07,0.178-0.644,0.535-1.716c-0.357-0.356-0.715-0.731-1.072-1.126c-0.357-0.393-0.715-0.982-1.071-1.771
	c-1.003,0.788-1.93,1.378-2.789,1.771c-0.858,0.395-1.788,0.77-2.789,1.126c-1.787-0.356-3.557-0.571-5.308-0.645
	c-1.754-0.069-3.485-0.105-5.201-0.105c-0.716,0.357-1.502,0.535-2.36,0.535c-0.357,0-0.769-0.036-1.232-0.106
	c-0.467-0.071-0.912-0.216-1.341-0.429l0.644-1.395h-1.396c1.073-1.43,2.021-2.985,2.843-4.666c0.821-1.68,1.77-3.413,2.843-5.201
	c0.713-0.356,1.286-0.732,1.716-1.126c0.429-0.392,1-0.946,1.715-1.663c0.215-0.355,0.644-1.035,1.288-2.037
	c0.643-0.999,1.375-2.073,2.197-3.218c0.822-1.143,1.68-2.215,2.574-3.217c0.894-1,1.698-1.68,2.414-2.038
	c0-0.355,0.16-0.911,0.482-1.661c0.321-0.751,0.875-1.127,1.662-1.127c0.714-1.429,1.376-2.823,1.984-4.182
	c0.605-1.358,1.089-2.538,1.447-3.54h-0.643c0-0.356,0.016-0.571,0.053-0.644c0.035-0.069,0.231-0.106,0.59-0.106l-1.394-1.396
	h1.394v-0.75c0.357-0.714,0.714-1.448,1.072-2.199c0.357-0.75,0.715-1.625,1.072-2.626c-0.357-0.357-0.589-0.715-0.697-1.073
	c-0.107-0.356-0.34-0.714-0.697-1.072c-1.072-0.357-1.859-0.626-2.359-0.804c-0.501-0.179-1.108-0.626-1.822-1.342h-6.328
	c0,0.358-0.125,0.716-0.374,1.073c-0.252,0.358-0.376,0.715-0.376,1.072c-0.072-0.07-0.145-0.124-0.215-0.161
	c-0.072-0.036-0.145-0.089-0.214-0.161c-0.288-0.285-0.608-0.429-0.966-0.429v-0.644h-2.788c0,0.359-0.036,0.591-0.107,0.697
	c-0.072,0.107-0.287,0.34-0.644,0.697c-0.716,0-1.412-0.124-2.092-0.376c-0.679-0.25-1.377-0.375-2.091-0.375
	c-0.716-0.713-1.216-1.126-1.502-1.232c-0.286-0.107-0.965-0.162-2.038-0.162c0,0.358-0.145,0.716-0.428,1.073
	c-0.286,0.358-0.609,0.715-0.965,1.072c-1.073-0.714-2.129-1.127-3.165-1.234c-1.037-0.105-2.09-0.16-3.163-0.16v0.644h-0.644
	l-0.751,0.751h-0.751v2.788c-0.5-0.285-0.93-0.518-1.286-0.697c-0.358-0.177-0.788-0.269-1.287-0.269
	c-0.429,0-0.966,0.108-1.608,0.323c-0.145,0.285-0.233,0.572-0.269,0.856c-0.036,0.288-0.053,0.574-0.053,0.858v1.395
	c0,0.645-0.107,1.217-0.323,1.716l-0.429,0.43c-0.358,0.214-0.68,0.32-0.965,0.32v0.752c0,1.431,0.499,2.146,1.501,2.146
	c0.571,0,1.215-0.251,1.932-0.752c1.143,0.572,2.34,0.966,3.592,1.18c1.25,0.215,2.521,0.322,3.808,0.322
	c2,0,4.004-0.143,6.006-0.43c2.001-0.284,3.86-0.429,5.576-0.429c-1.787,2.074-3.271,4.255-4.45,6.542
	c-1.18,2.289-2.485,4.327-3.914,6.113c-0.358,0.716-0.609,1.412-0.751,2.091c-0.144,0.682-0.394,1.377-0.751,2.092
	c-0.358,0.715-0.965,1.466-1.822,2.252c-0.858,0.787-1.646,1.681-2.36,2.682c0-0.07-0.036-0.108-0.107-0.108
	c-0.145,0-0.5,0.413-1.072,1.233c-0.572,0.823-1.145,1.753-1.716,2.789c-0.573,1.037-1.092,2.021-1.555,2.949
	c-0.466,0.931-0.697,1.501-0.697,1.716c0.07,0,0.143-0.034,0.215-0.107l0.75,0.644c-0.715,0.716-1.305,1.431-1.77,2.146
	c-0.467,0.715-1.057,1.431-1.77,2.145c0,0.43,0.107,0.751,0.321,0.965c0.07,0.145,0.144,0.233,0.215,0.269
	c0.071,0.036,0.144,0.092,0.214,0.16l-2.894,0.644C177.605,254.405,177.464,255.906,177.464,258.122 M154.964,216.832
	c-0.358-0.571-0.536-0.965-0.536-1.179c0-0.143,0.177-0.215,0.536-0.215V216.832z M154.321,233.241v2.574l-0.751,0.643
	c0.357-0.785,0.572-1.465,0.643-2.037L154.321,233.241z M157.109,255.44c0,0.146-0.019,0.233-0.053,0.27
	c-0.039,0.036-0.055,0.089-0.055,0.16c-0.144,0.358-0.358,0.68-0.643,0.964v-1.394H157.109z M162.042,261.019v-2.789h0.429
	c0.285,0,0.537-0.017,0.751-0.054c0.215-0.036,0.5-0.231,0.858-0.59L162.042,261.019z M158.503,212.543l0.215-0.108l0.214-0.214
	c0.143-0.07,0.304-0.143,0.484-0.214c0.177-0.071,0.337-0.108,0.482-0.108v-1.394h0.751c0.356,0,0.554,0.145,0.59,0.429
	c0.035,0.287,0.053,0.608,0.053,0.965c-0.715,0.716-1.217,1.271-1.501,1.664c-0.286,0.393-0.929,0.769-1.93,1.124
	c0.285-0.785,0.464-1.356,0.536-1.715c0.07-0.357,0.107-0.821,0.107-1.395v-1.072h0.75c-0.358,0.358-0.572,0.697-0.644,1.02
	C158.539,211.845,158.503,212.186,158.503,212.543 M159.897,206.966c0.356-0.714,0.714-1.411,1.072-2.091
	c0.356-0.68,0.713-1.377,1.072-2.092c0,0.715,0.108,1.447,0.322,2.199c0.214,0.75,0.322,1.662,0.322,2.733L159.897,206.966z
	 M153.677,231.203c-0.072-0.357-0.107-0.714-0.107-1.071h0.751v-6.972h0.643c0.357-0.714,0.732-1.288,1.126-1.716
	c0.392-0.429,0.981-0.821,1.77-1.18v-0.644h0.643c0,0.716-0.198,1.592-0.59,2.628c-0.394,1.037-1.125,1.554-2.199,1.554
	c0,1.432-0.053,2.843-0.16,4.236c-0.107,1.396-0.52,2.807-1.233,4.237C153.962,231.918,153.747,231.562,153.677,231.203
	 M151.532,221.337c0.216,1.93,0.322,3.825,0.322,5.683c0,1.503-0.106,3.005-0.322,4.505c0.071,0.215,0.108,0.896,0.108,2.038
	c0,1.073-0.055,2.306-0.161,3.7c-0.108,1.394-0.215,2.807-0.321,4.236c-0.108,1.431-0.199,2.753-0.269,3.968
	c-0.072,1.216-0.107,2.182-0.107,2.896c-0.358,0.788-0.68,1.394-0.965,1.824c-0.286,0.429-0.428,1.001-0.428,1.715h0.643v1.395
	h2.144c0,0.502-0.214,0.751-0.643,0.751c-0.287,0-0.482,0.161-0.589,0.482s-0.161,0.697-0.161,1.125
	c0,0.645,0.107,1.271,0.322,1.878c0.215,0.607,0.572,0.911,1.072,0.911c0.358,0,0.608-0.07,0.752-0.214
	c0.714,0.358,1.268,0.716,1.662,1.072c0.393,0.358,0.767,0.715,1.125,1.072v0.645l0.645,0.75v0.644h0.751v0.751
	c0.928,0.644,1.786,0.965,2.573,0.965c0.357,0,0.698-0.036,1.019-0.107c0.322-0.071,0.769-0.107,1.341-0.107
	c0-0.358,0.108-0.715,0.322-1.072c0.214-0.356,0.322-0.714,0.322-1.072c0.356,0.358,0.624,0.68,0.804,0.965
	c0.178,0.285,0.625,0.43,1.341,0.43v2.787c1.072-0.358,2.018-1.055,2.843-2.091c0.819-1.037,1.731-1.732,2.733-2.091v1.395
	c0.285,0.284,0.606,0.429,0.966,0.429c0.571,0,1-0.341,1.286-1.02c0.286-0.678,0.714-1.195,1.288-1.554l-1.395-3.433l0.857-0.644
	c0.285-0.215,0.499-0.499,0.644-0.858c0.143-0.356,0.214-0.929,0.214-1.715c0-0.787-0.106-1.824-0.32-3.11
	c-2.145,0.429-3.791,0.643-4.934,0.643c-1.433,0-2.414-0.16-2.949-0.481c-0.537-0.322-0.949-0.627-1.233-0.912
	c0-0.5,0.249-1.089,0.75-1.77c0.499-0.679,0.751-1.376,0.751-2.092c0-0.785-0.501-1.357-1.501-1.716v-6.327
	c0-1.073-0.126-2.02-0.375-2.843c-0.252-0.82-0.376-1.769-0.376-2.842v-8.149c0-2.288,0.07-4.521,0.215-6.703
	c0.143-2.181,0.321-3.771,0.536-4.772c0.713,0.357,1.269,0.589,1.662,0.696c0.392,0.107,0.768,0.341,1.125,0.696h6.329
	c0.214-0.284,0.376-0.819,0.481-1.607c0.107-0.786,0.162-1.68,0.162-2.682c0-1.001-0.055-2.001-0.162-3.002
	c-0.105-1.001-0.268-1.859-0.481-2.574c-0.145,0-0.341,0.161-0.591,0.482c-0.251,0.322-0.482,0.681-0.697,1.072
	c-0.215,0.394-0.393,0.788-0.536,1.18c-0.145,0.394-0.215,0.661-0.215,0.804c-0.358-0.143-0.715-0.23-1.072-0.268
	c-0.357-0.035-0.661-0.053-0.911-0.053c-0.252,0-0.395-0.019-0.43-0.055c-0.036-0.035,0.054-0.124,0.269-0.269l2.145-2.145v0.322
	c0.07,0,0.179-0.143,0.322-0.429c0.143-0.285,0.499-0.714,1.073-1.287h-1.931c-1.074,0-2.11,0.037-3.11,0.107
	c-1.002,0.071-1.895,0.25-2.682,0.536c-0.358-1.716-0.608-3.575-0.75-5.577c-0.144-2.001-0.394-3.861-0.751-5.577
	c-1.002,0-1.77,0.448-2.306,1.34c-0.536,0.896-1.163,2.057-1.877,3.486c0.356-1.43,0.821-2.824,1.394-4.184
	c0.572-1.356,1.035-2.751,1.396-4.182c0-0.715-0.019-1.411-0.055-2.092c-0.037-0.679-0.232-1.376-0.59-2.092h-1.394
	c0,0.359-0.126,0.823-0.376,1.395c-0.251,0.574-0.375,1.037-0.375,1.394h-3.539v1.395c-0.716-0.715-1.216-1.483-1.501-2.307
	c-0.287-0.821-0.93-1.232-1.93-1.232c-0.716,2.503-1.126,5.254-1.234,8.257c-0.108,3.002-0.161,6.113-0.161,9.331
	c-0.643-0.215-1.43-0.322-2.359-0.322c-1.002,0-2.021,0.091-3.057,0.269c-1.037,0.18-2.056,0.411-3.055,0.697
	c0,1.431,0.142,2.968,0.428,4.612s0.607,3.181,0.966,4.61c0.714,0.358,1.537,0.698,2.467,1.019c0.927,0.322,1.75,0.661,2.466,1.02
	c0.356,0,0.678-0.017,0.965-0.054c0.285-0.035,0.429-0.231,0.429-0.59C151.066,217.44,151.318,219.406,151.532,221.337
	 M106.522,242.143h-1.502v4.29c-0.714,0.358-1.179,0.857-1.394,1.501c-0.215,0.644-0.681,1.323-1.394,2.038
	c0.214-0.858,0.392-1.556,0.536-2.091c0.142-0.538,0.285-1.09,0.429-1.663c0.143-0.572,0.356-1.268,0.643-2.092
	c0.285-0.82,0.679-1.947,1.179-3.378h0.751l0.751,0.751V242.143z M101.375,241.392l1.394-3.539c0.785,0,1.518-0.268,2.199-0.805
	c0.679-0.536,1.375-0.981,2.091-1.341L101.375,241.392z M134.084,244.77c0.07-0.106,0.285-0.16,0.643-0.16l0.643,1.394h-1.394
	C133.977,245.289,134.012,244.877,134.084,244.77 M134.728,240.319h1.394c0-0.715,0.322-2.037,0.966-3.969
	c0.643-2,0.965-1.965,0.965,0.107l-0.536,4.611c-0.359,0-0.643,0.091-0.859,0.269c-0.214,0.179-0.858,0.805-1.93,1.876V240.319z
	 M134.084,259.839v-1.824c0.143,0.287,0.339,0.466,0.59,0.536c0.249,0.072,0.518,0.253,0.804,0.537v0.751H134.084z M116.388,210.29
	v-0.751c0.358-0.355,0.733-0.553,1.126-0.59c0.393-0.035,0.947-0.054,1.662-0.054l-0.644,1.395H116.388z M131.51,233.026
	c-0.071-0.07-0.179-0.107-0.321-0.107c0.143-0.356,0.321-0.697,0.536-1.019c0.214-0.321,0.392-0.659,0.536-1.02
	c0.142-0.355,0.589-1.072,1.34-2.144c0.75-1.074,1.732-2.502,2.949-4.291c-0.429,2.505-0.948,4.362-1.555,5.578
	c-0.607,1.217-0.911,2.182-0.911,2.895c-0.359,0-0.715,0.037-1.073,0.107c-0.358,0.072-0.715,0.287-1.072,0.644
	C131.939,233.313,131.795,233.099,131.51,233.026 M130.223,258.39c-0.286-0.106-0.429-0.337-0.429-0.696v-1.395
	c0.357,0,0.733-0.035,1.126-0.108c0.392-0.069,0.981-0.284,1.77-0.642c0,0.786,0.016,1.377,0.054,1.77
	c0.035,0.393,0.23,0.769,0.59,1.125c-0.36,0-0.716,0.107-1.073,0.322c-0.359,0.214-0.716,0.322-1.072,0.322
	C130.831,258.73,130.508,258.498,130.223,258.39 M123.521,206.269c-0.037-0.249-0.054-0.659-0.054-1.233v-1.072
	c0.357,0,0.857,0.107,1.501,0.322c0.643,0.214,1.322,0.321,2.038,0.321c-0.359,0.716-0.734,1.378-1.126,1.983
	c-0.394,0.609-0.984,0.912-1.77,0.912C123.752,206.932,123.556,206.521,123.521,206.269 M113.975,253.51
	c-0.321-0.142-1.163-0.392-2.52-0.749l-0.751-0.751c0-0.357,0.143-0.732,0.429-1.127c0.285-0.392,0.607-0.946,0.965-1.662
	c-0.358-0.357-0.59-0.571-0.696-0.644c-0.107-0.07-0.341-0.106-0.698-0.106c0-0.714-0.019-1.377-0.053-1.984
	c-0.038-0.607-0.054-1.161-0.054-1.662c0-1.502,0.196-2.698,0.59-3.593c0.392-0.895,1.411-1.771,3.057-2.628
	c0.214-0.929,0.732-1.769,1.555-2.521c0.821-0.75,1.769-1.357,2.842-1.822c1.072-0.466,2.144-0.822,3.217-1.073
	c1.072-0.25,2-0.376,2.789-0.376c0.214,0,0.392,0.019,0.536,0.055c0.142,0.036,0.285,0.053,0.428,0.053
	c0,1.861-0.018,3.593-0.053,5.201c-0.037,1.608-0.179,3.164-0.429,4.665c-0.251,1.502-0.608,2.949-1.072,4.345
	c-0.465,1.394-1.126,2.807-1.985,4.235c-0.787,0.359-1.484,0.823-2.091,1.396c-0.608,0.572-1.09,1.037-1.448,1.393
	c-0.573,0-1.019-0.053-1.34-0.16c-0.321-0.108-0.661-0.161-1.019-0.161c-0.359,0-0.75,0.108-1.18,0.321
	C114.636,253.869,114.297,253.654,113.975,253.51 M119.231,262.895c0.607-0.465,1.143-0.966,1.609-1.502
	c0.464-0.535,0.946-1.107,1.448-1.715c0.499-0.606,1.106-1.27,1.823-1.984h2.145c0.357,1.215,0.913,2.198,1.663,2.949
	c0.75,0.75,1.644,1.323,2.681,1.716c1.035,0.392,2.126,0.66,3.271,0.805c1.143,0.142,2.288,0.214,3.431,0.214h4.504
	c-0.358-1.43-0.555-2.842-0.59-4.236c-0.036-1.395-0.053-2.806-0.053-4.236h-1.395l-0.859-2.144l-0.643-1.825
	c0.499-0.57,0.858-2.18,1.072-4.825c0.215,1.359,0.393,0.896,0.537-1.394c-0.429-0.215-0.608-0.322-0.537-0.322
	c0.358-0.857,0.537-1.785,0.537-2.789v-1.554c0-0.607-0.036-1.411-0.107-2.414c-0.072-1-0.162-2.215-0.269-3.646
	c-0.106-1.43-0.268-3.18-0.482-5.255c0.215,1,0.321-0.322,0.321-3.968c0.572,0.144,0.929-0.607,1.073-2.253
	c0.214-1.571,0.322-2.682,0.322-3.325c0.143-1.429-0.179-3.002-0.965-4.718c0.356-0.859-0.788-2.108-3.432-3.754
	c1.786,0.072,2.573,0,2.36-0.215c-0.145-0.143-0.322-0.304-0.537-0.482c-0.214-0.178-0.394-0.339-0.536-0.483
	c-0.286-0.355-0.555-0.731-0.804-1.125c-0.251-0.394-0.448-0.947-0.59-1.662l-7.829-3.539v-0.752
	c-0.787-0.285-1.538-0.464-2.252-0.535c-0.716-0.071-1.466-0.107-2.252-0.107c-2.075,0-4.166,0.268-6.274,0.805
	c-2.109,0.535-4.166,0.982-6.167,1.34c-1.432,0.716-2.718,1.447-3.861,2.199c-1.145,0.75-2.217,1.662-3.217,2.733
	c-0.858,1.218-1.646,2.307-2.359,3.271c-0.716,0.966-1.324,1.931-1.823,2.896c-0.501,0.966-0.876,2.021-1.126,3.164
	c-0.252,1.145-0.376,2.503-0.376,4.075c2.074,0.358,3.824,0.556,5.255,0.59c1.43,0.037,2.61-0.231,3.539-0.804
	c0.929-0.071,1.572,0,1.931,0.214c0.786,0.501,0.929,0.788,0.429,0.858c0.787-0.07,1.411-0.107,1.877-0.107h1.125
	c0.357-1.431,0.571-2.592,0.644-3.485c0.07-0.895,0.177-1.663,0.322-2.306c0.071-0.357,0.142-0.698,0.214-1.019
	c0.071-0.321,0.143-0.661,0.215-1.02c0.356,0,0.714-0.107,1.072-0.321c0.358-0.216,0.714-0.321,1.072-0.321
	c1.572,0.5,2.878,0.857,3.915,1.072c1.035,0.214,2.091,0.465,3.164,0.75c0.571,0.145,0.965,0.395,1.18,0.751
	c0.214,0.357,0.356,0.842,0.428,1.448c0.071,0.607,0.124,1.34,0.162,2.198c0.034,0.858,0.16,1.823,0.374,2.896v2.145
	c-0.787,0-1.519,0.144-2.198,0.429c-0.68,0.287-1.377,0.608-2.091,0.966c0,0.358-0.054,0.608-0.161,0.751
	c-0.107,0.144-0.52,0.394-1.233,0.751c-2.861,0-5.292,0.231-7.293,0.697c-2.002,0.466-3.934,1.591-5.791,3.377l-0.537-0.428
	c-0.072,0.071-1.18,1.072-3.324,3.002c-2.003,1.86-3.325,3.324-3.968,4.398c-0.502,0.929-0.858,2.181-1.073,3.753
	c0.357,2.86,0.928,5.452,1.716,7.774c0.785,2.325,1.501,4.416,2.144,6.274c0.144,0.501,0.323,1.002,0.536,1.502
	c0.216,0.5,0.393,1.001,0.537,1.501c1.072,0.358,2.073,0.734,3.002,1.126c0.929,0.394,1.572,0.412,1.93,0.054
	c0.215-0.071,0.483-0.071,0.805,0s0.678,0.126,1.072,0.16c0.393,0.037,0.75,0.019,1.072-0.053c0.322-0.07,0.553-0.284,0.698-0.644
	c0.285,0.072,0.5,0.106,0.643,0.106c0.143,0,0.285,0.038,0.429,0.108c0.215,0.715,0.5,1.214,0.858,1.501
	c0.215,0.143,0.392,0.25,0.537,0.32c0.571,0.144,1.106,0.286,1.609,0.431c0.498,0.142,1,0.284,1.5,0.429
	C117.891,263.769,118.623,263.359,119.231,262.895 M26.304,232.062c0.07,0.072,0.07,0.145,0,0.215V232.062z M62.338,237.478
	c0.142-0.25,0.284-0.554,0.429-0.911c0,0.573-0.037,0.895-0.106,0.964c0,0.145-0.18,0.394-0.537,0.752
	C62.124,237.996,62.194,237.729,62.338,237.478 M51.507,257.264c0,0.359-0.054,0.59-0.161,0.697
	c-0.107,0.107-0.52,0.341-1.234,0.697L51.507,257.264z M54.402,252.224c0-0.644,0.108-1.144,0.322-1.501l0.322-0.967v1.932
	c-0.145,0-0.252,0.037-0.322,0.107C54.51,251.938,54.402,252.081,54.402,252.224 M56.439,230.56h0.751l-0.751,2.146V230.56z
	 M31.184,240.588c0.108-0.108,0.338-0.161,0.697-0.161v1.394h-1.395C30.844,241.106,31.076,240.695,31.184,240.588 M62.124,248.471
	v-2.468c0.07-1.072,0.285-2.001,0.644-2.789v1.717c0,0.358-0.019,0.715-0.053,1.072c-0.037,0.359-0.125,0.751-0.269,1.18
	C62.301,247.397,62.194,247.826,62.124,248.471 M33.597,214.474c-0.359,0.643-0.716,1.323-1.072,2.038l-0.644-0.645
	c0.714-0.715,1.269-1.571,1.662-2.573c0.393-1.001,0.767-2.038,1.126-3.11v2.788C34.31,213.33,33.954,213.83,33.597,214.474
	 M58.584,255.119h0.644c0-1.001,0.393-2.001,1.18-3.003c0.786-1,1.358-1.858,1.715-2.573c0,1.431-0.357,2.61-1.072,3.538
	c-0.715,0.931-1.788,2.11-3.217,3.54L58.584,255.119z M61.374,230.56h0.75c0-0.714,0.108-1.411,0.322-2.091
	c0.215-0.679,0.322-1.376,0.322-2.091h0.75v-0.752h0.645c-0.145,0.857-0.269,1.557-0.376,2.093
	c-0.107,0.536-0.269,1.019-0.482,1.447c-0.215,0.429-0.537,0.911-0.965,1.446c-0.429,0.537-1.002,1.235-1.715,2.093L61.374,230.56z
	 M32.524,235.493h0.75c0.143-0.143,0.303-0.338,0.482-0.59c0.179-0.249,0.339-0.518,0.483-0.806
	c0.143-0.212,0.231-0.428,0.268-0.642c0.035-0.215,0.089-0.394,0.162-0.537v3.968c-0.359,0-0.645,0.055-0.858,0.161
	c-0.215,0.107-0.858,0.52-1.931,1.234L32.524,235.493z M30.862,253.028c0.107-0.536,0.231-1.108,0.375-1.717
	c0.142-0.605,0.375-1.355,0.697-2.251c0.321-0.894,0.767-2.127,1.34-3.7h0.75v2.037h-0.75v4.29c-0.716,0.358-1.27,0.842-1.662,1.448
	c-0.394,0.607-0.769,1.27-1.127,1.983C30.628,254.261,30.754,253.564,30.862,253.028 M34.669,226.378h-2.145
	c0,0.715-0.108,1.412-0.322,2.091c-0.215,0.68-0.322,1.377-0.322,2.091c-0.573,0-0.895,0.037-0.965,0.108
	c-0.072,0.071-0.145,0.125-0.214,0.16c-0.073,0.036-0.145,0.09-0.215,0.16c0.215-0.713,0.446-1.411,0.698-2.091
	c0.25-0.678,0.517-1.376,0.804-2.091c0.357-0.786,0.75-1.698,1.18-2.736c0.429-1.035,0.928-2.16,1.502-3.378
	c0,0.788,0.035,1.378,0.107,1.77c0.07,0.396,0.285,0.771,0.644,1.128l-0.75,0.643V226.378z M28.449,278.821
	c-0.072-0.072-0.107-0.215-0.107-0.43c0.499-0.502,0.912-1.11,1.233-1.823c0.321-0.716,0.625-1.431,0.911-2.145l0.859-2.039
	c0.356-0.714,0.75-1.286,1.18-1.715l-0.644,7.722c-0.359,0-0.823,0.143-1.395,0.43c-0.573,0.284-1.037,0.605-1.394,0.965
	C28.733,279.571,28.52,279.25,28.449,278.821 M45.233,254.529c-0.107-0.035-0.34-0.054-0.697-0.054v-2.145l-0.752-0.644
	c-0.428,0-0.643-0.25-0.643-0.752h-1.394v1.396h-0.751v1.394l-1.394-0.644c0-0.356-0.037-0.82-0.108-1.394
	c-0.072-0.571-0.287-1.036-0.643-1.396h-0.643c0-1.355-0.038-2.608-0.107-3.753c-0.073-1.143-0.107-2.216-0.107-3.217
	c0-1.43,0.107-2.806,0.322-4.129c0.215-1.321,0.644-2.806,1.287-4.451c-0.358-0.999-0.574-1.912-0.644-2.734
	c-0.073-0.821-0.107-1.77-0.107-2.842c0.356-2.073,0.804-4.183,1.341-6.327c0.536-2.146,0.804-4.253,0.804-6.327
	c1.143-0.645,2.18-1.161,3.11-1.556c0.928-0.394,1.894-0.59,2.895-0.59c0.571,0,1.161,0.071,1.77,0.215
	c0.607,0.144,1.303,0.321,2.091,0.535v2.146c0,0.358,0.142,0.59,0.429,0.697c0.285,0.107,0.607,0.34,0.966,0.696
	c0.356,1.002,0.59,2.037,0.697,3.109c0.106,1.074,0.338,2.146,0.697,3.219c0,1.432-0.107,2.771-0.321,4.021
	c-0.214,1.252-0.322,2.52-0.322,3.807c0,1.359,0.214,2.72,0.643,4.075c-0.358,0.717-0.59,1.538-0.697,2.468
	c-0.107,0.929-0.341,1.752-0.697,2.466c0.356,0.716,0.553,1.538,0.59,2.467c0.035,0.931,0.054,1.753,0.054,2.467
	c-0.43,0-0.644,0.216-0.644,0.644c0,0.715-0.144,1.466-0.429,2.253c-0.287,0.786-0.608,1.679-0.966,2.681h-0.75v1.394l-0.322-0.215
	h-0.214c-0.073,0-0.108,0.072-0.108,0.215v0.751c-1.432,0-2.306,0.037-2.627,0.107c-0.321,0.071-0.626,0.252-0.912,0.536
	C45.572,254.762,45.34,254.566,45.233,254.529 M36.063,208.146c-0.359-0.644-0.555-1.214-0.59-1.716
	c-0.037-0.499-0.054-1.035-0.054-1.608v-0.966h-2.145c0,0.359-0.125,0.735-0.375,1.127c-0.252,0.393-0.376,0.948-0.376,1.662
	c-0.429-0.215-0.896-0.322-1.394-0.322c-0.502,0-0.965,0.054-1.395,0.161c-0.429,0.106-0.895,0.161-1.394,0.161v1.501
	c-0.715-1.072-1.324-2.055-1.824-2.949c-0.5-0.893-1.287-1.341-2.359-1.341c-0.573,2.217-0.964,4.504-1.18,6.864
	c-0.213,2.359-0.321,4.791-0.321,7.292v2.468l0.214,8.793v2.575v2.895c0,0.931-0.037,1.896-0.107,2.896
	c0,1.432,0.016,2.699,0.053,3.808c0.035,1.108,0.231,2.163,0.59,3.164c-0.145,1.859-0.375,4.361-0.698,7.507
	c-0.322,3.147-0.482,6.292-0.482,9.438c0,2.573,0.177,5.003,0.537,7.292c0.356,2.288,1.035,4.039,2.038,5.256
	c-0.36,0.713-0.555,1.59-0.59,2.627c-0.038,1.035-0.054,2.269-0.054,3.7c0.714,0.713,1.304,1.41,1.77,2.091
	c0.464,0.678,1.054,1.411,1.77,2.199c1.429,0,2.823-0.162,4.183-0.483c1.357-0.321,2.751-0.662,4.183-1.019
	c0-3.86-0.108-7.848-0.322-11.958c-0.215-4.111-0.322-8.312-0.322-12.602v-0.644h0.644c0.356,1.573,0.804,2.558,1.34,2.948
	c0.537,0.394,1.162,0.609,1.877,0.645c0.714,0.037,1.501,0.107,2.359,0.215c0.858,0.106,1.823,0.697,2.896,1.77
	c0.356,0,0.786-0.145,1.287-0.429c0.5-0.287,0.75-0.606,0.75-0.966c0.358,0.359,0.75,0.679,1.18,0.966
	c0.429,0.284,1,0.429,1.716,0.429c0-0.359,0.143-0.734,0.429-1.126c0.285-0.393,0.606-0.946,0.965-1.663
	c0.5,0.502,1.358,0.752,2.574,0.752c1.43,0,2.966-0.339,4.611-1.02c1.644-0.679,3.003-1.303,4.075-1.877
	c0.499-0.644,0.894-1.161,1.18-1.556c0.285-0.392,0.537-0.804,0.75-1.232c0.214-0.43,0.429-0.911,0.644-1.448
	c0.215-0.537,0.5-1.232,0.858-2.091h0.75l0.644-5.577l-0.644-0.751v-0.429c0-0.356,0.054-0.947,0.161-1.77
	c0.108-0.821,0.269-2.413,0.483-4.772c0.143,0,0.249-0.035,0.322-0.107c0.285-0.07,0.429-0.284,0.429-0.643v-7.723
	c-0.359-0.714-0.574-1.447-0.645-2.198c-0.072-0.751-0.106-1.662-0.106-2.735c-0.716-0.284-1.18-0.805-1.395-1.556
	c-0.214-0.749-0.321-1.624-0.321-2.626c0-0.499,0.016-1.02,0.053-1.555c0.035-0.537,0.054-1.019,0.054-1.448
	c0-1.716-0.394-2.574-1.179-2.574c-0.716-1.43-1.359-2.429-1.931-3.003c-0.573-0.571-1.573-1.214-3.003-1.931
	c-0.144-0.429-0.411-1.001-0.804-1.716c-0.394-0.714-0.895-1.41-1.501-2.091c-0.608-0.68-1.252-1.269-1.931-1.77
	c-0.681-0.499-1.341-0.751-1.984-0.751c-0.574,0-1.072,0.215-1.501,0.644c-0.358,0-0.59-0.054-0.698-0.16
	c-0.107-0.107-0.34-0.519-0.697-1.234h-1.394c0,0.716-0.053,1.164-0.161,1.341c-0.107,0.179-0.521,0.447-1.234,0.804h-0.75v-2.145
	c-1.001,0.359-1.627,0.662-1.876,0.911c-0.252,0.253-0.555,0.877-0.913,1.878h-1.394v-1.395c-0.573,0.215-0.984,0.321-1.233,0.321
	c-0.252,0-0.466,0.038-0.644,0.107c-0.179,0.072-0.321,0.286-0.429,0.644c-0.106,0.358-0.268,0.965-0.482,1.823
	c-0.358,0-0.716-0.125-1.072-0.375c-0.359-0.249-0.716-0.375-1.073-0.375c-0.429,0-0.788,0.145-1.073,0.429L36.063,208.146z"/>
<path fill="#010202" d="M287.762,35.412c-8.476-5.446-18.423-7.926-28.359-8.005l-0.013,1.525c9.693,0.077,19.354,2.498,27.55,7.763
	c8.194,5.27,14.945,13.374,18.851,24.926l1.444-0.489C303.234,49.276,296.242,40.856,287.762,35.412"/>
<path fill="#010202" d="M204.719,146.418c-4.787,2.832-10.906,4.469-19.395,4.472c-0.379,0-0.761-0.004-1.147-0.01l-0.026,1.525
	c0.396,0.006,0.786,0.011,1.174,0.011c8.679,0.001,15.108-1.687,20.172-4.684c5.062-2.998,8.723-7.277,11.941-12.341l-1.286-0.818
	C212.999,139.531,209.506,143.585,204.719,146.418"/>
<path fill="#010202" d="M111.255,105.283c-2.477,4.373-3.136,8.171-3.147,8.226l1.503,0.261l0.028-0.146
	c0.154-0.771,0.996-4.442,3.403-8.369c2.411-3.934,6.349-8.106,12.757-10.038l-0.439-1.46
	C118.058,95.953,113.726,100.917,111.255,105.283"/>
<path fill="#010202" d="M305.91,105.417c-2.73,4.539-5.873,7.325-9.323,9.008c-3.45,1.681-7.242,2.259-11.265,2.26
	c-8.259,0.008-17.42-2.469-26.195-2.478c-4.306,0-8.537,0.605-12.505,2.444c-3.967,1.837-7.647,4.907-10.846,9.731
	c-14.24,21.443-31.396,31.707-50.294,31.713c-3.208,0-6.468-0.296-9.778-0.887c-10.649-1.906-18.83-2.711-25.285-2.712
	c-10.932-0.007-16.961,2.341-21.421,5.556c-4.456,3.215-7.3,7.129-12.127,10.317c-4.202,2.79-9.855,4.038-14.899,4.711
	c-2.521,0.338-4.887,0.537-6.854,0.731c-1.287,0.129-2.367,0.253-3.263,0.421c-0.02-0.45-0.089-0.916-0.198-1.393
	c-0.302-1.371-1.296-2.173-2.304-2.236c0.287-1.337,0.399-2.914,0.406-4.522c-0.001-1.868-0.153-3.728-0.391-5.129
	c-0.156-0.919-0.228-1.783-0.228-2.605c0.001-2.471,0.642-4.571,1.654-6.599c1.514-3.039,3.892-5.878,6.056-9.285
	c2.162-3.404,4.092-7.402,4.617-12.722c0.063-0.638,0.085-1.247,0.085-1.843c-0.001-1.771-0.197-3.424-0.197-5.605
	c0.001-2.644,0.281-6.094,1.553-11.461c1.332-5.61,3.523-10.653,7.057-14.906c3.536-4.253,8.419-7.738,15.219-10.202
	c5.075-1.836,10.126-2.209,15.258-2.209c3.385,0,6.801,0.162,10.262,0.163c5.224,0,10.561-0.373,16.03-2.274
	c7.368-2.574,14.255-8.988,20.477-15.856c6.211-6.869,11.749-14.229,16.194-18.692c4.546-4.572,9.38-10.498,16.581-15.704
	c7.2-5.202,16.752-9.705,30.787-11.383c2.327-0.279,4.674-0.415,7.022-0.415c14.469-0.003,29.049,5.178,39.977,14.203
	c10.928,9.03,18.205,21.858,18.208,37.25C315.978,82.702,312.968,93.681,305.91,105.417 M93.688,180.065l-0.001,0.128l-0.003,0.104
	c0.004,0.475,0.102,1.065,0.247,1.787c0.441,2.138,1.356,5.288,1.808,6.835c0.184,0.623,0.301,1.242,0.3,1.782
	c0,0.422-0.07,0.789-0.213,1.1c-0.145,0.312-0.36,0.58-0.726,0.827l0.002-0.002c-0.05,0.043-0.4,0.189-0.812,0.303
	c-0.629,0.181-1.45,0.354-2.104,0.477c-0.074,0.014-0.134,0.026-0.202,0.038c-0.069-0.169-0.132-0.344-0.214-0.506
	c-0.356-0.695-0.577-1.362-0.706-1.851c-0.01-0.039-0.017-0.069-0.025-0.104c0.212-0.06,0.577-0.155,1.174-0.288h0.002
	c0.375-0.087,0.792-0.196,1.193-0.467c0.198-0.137,0.393-0.326,0.531-0.575c0.141-0.246,0.213-0.542,0.212-0.838
	c-0.001-0.176-0.024-0.353-0.066-0.532c-0.114-0.484-0.434-2.018-0.763-3.495c-0.165-0.741-0.333-1.47-0.484-2.062
	c-0.077-0.296-0.147-0.557-0.213-0.776c-0.072-0.224-0.118-0.38-0.218-0.568c-0.139-0.248-0.316-0.468-0.524-0.716
	c-0.43-0.5-0.963-1.039-1.263-1.333c0.004-0.114,0.011-0.245,0.046-0.375c0.042-0.16,0.11-0.287,0.187-0.362
	c0.087-0.09,0.295-0.223,0.523-0.309c0.227-0.091,0.479-0.138,0.619-0.136l0.046,0.003c0.203,0.241,0.429,0.417,0.622,0.536
	c0.359,0.212,0.624,0.35,0.766,0.507C93.563,179.348,93.679,179.511,93.688,180.065 M89.497,197.868
	c-2.097,0.005-5.128-0.258-7.466-1.385l-0.659,1.377c1.951,0.929,4.155,1.308,6.065,1.452c0.211,1.942,0.401,3.858,0.741,5.236
	c0.122,0.484,0.271,1.454,0.415,2.608c0.397,3.168,0.783,7.803,0.904,9.328c-0.061,0.044-0.125,0.091-0.212,0.138
	c-0.323,0.181-0.77,0.352-1.124,0.467c-0.177,0.058-0.333,0.103-0.442,0.132l-0.165,0.043l-0.578,0.142l-0.004,0.595
	c0,0.003-0.014,1.666-0.045,3.548c-0.031,1.878-0.08,3.995-0.146,4.816c-0.046,0.686-0.458,1.838-0.922,2.976
	c-0.463,1.151-0.968,2.289-1.186,3.229c-0.095,0.434-0.184,1.166-0.282,2.129c-0.286,2.869-0.587,7.559-0.589,9.357
	c0,0.191,0.003,0.354,0.012,0.493l0.021,0.203c0.016,0.077,0.012,0.138,0.101,0.32c1.065,1.95,1.418,2.934,1.395,3.321
	c-0.005,0.195-0.034,0.278-0.164,0.488c-0.247-0.503-0.581-1.029-0.9-1.519c-0.446-0.671-0.847-1.211-0.853-1.218l-1.225,0.908
	c0,0.002,0.095,0.127,0.243,0.335c0.223,0.314,0.568,0.811,0.877,1.307c0.308,0.487,0.583,1.01,0.65,1.234
	c0.126,0.403,0.17,0.709,0.169,0.911c-0.009,0.32-0.072,0.347-0.1,0.379c-0.033,0.032-0.166,0.09-0.397,0.089
	c-0.244,0.001-0.562-0.062-0.83-0.154c-0.265-0.086-0.501-0.222-0.512-0.238c-0.104-0.082-0.421-0.374-0.814-0.764
	c-1.153-1.136-3.09-3.203-4.128-4.62v-0.005c0.047-0.212,0.238-0.645,0.438-1.091c0.197-0.456,0.413-0.926,0.481-1.458
	c0.03-0.262,0.042-0.547,0.042-0.856c-0.001-1.669-0.336-4.142-0.411-5.279c-0.044-0.609-0.096-2.93-0.095-5.427
	c-0.002-2.781,0.068-5.871,0.254-7.111c0.126-0.854,0.168-1.678,0.169-2.409c0-0.686-0.037-1.276-0.08-1.742
	c1.522-0.051,3.297-0.299,4.416-0.482l-0.245-1.504c-1.198,0.195-3.233,0.481-4.663,0.48c-0.44,0-0.821-0.028-1.068-0.08
	l-0.104-0.029c-0.146-1.644-0.204-3.488-0.204-6.993c0-0.23,0-0.47,0.001-0.716c0.009-5.708,0.002-8.736,0.053-12.572
	c0.047-3.784,0.493-6.927,0.892-8.416c0.332-1.234,0.856-2.014,1.284-2.493c0.213-0.236,0.404-0.397,0.533-0.496l0.144-0.099
	l0.027-0.017l0.102-0.055c0.233-0.12,0.541-0.189,0.868-0.187c0.268-0.001,0.53,0.035,0.718,0.072l0.219,0.047l0.054,0.015
	l0.009,0.003l0.446-1.46c-0.042-0.01-0.651-0.2-1.445-0.202c-0.279,0-0.587,0.026-0.903,0.1c-0.102-0.22-0.224-0.452-0.417-0.678
	c-0.918-1.02-2.218-1.491-3.554-2.199c-0.518-0.274-0.848-0.666-1.112-1.241c-0.258-0.573-0.416-1.321-0.514-2.159
	c-0.037-0.303-0.052-0.571-0.052-0.809c0-0.52,0.077-0.891,0.205-1.196c0.13-0.306,0.314-0.563,0.595-0.838l0.001-0.002
	c0.491-0.489,0.927-1.127,1.373-1.654c0.43-0.538,0.891-0.893,1.063-0.903c0.637-0.133,1.152-0.392,1.632-0.639
	c0.481-0.25,0.938-0.497,1.51-0.698l0.006-0.002c0.16-0.056,0.278-0.071,0.377-0.072c0.216,0,0.404,0.08,0.704,0.245
	c0.292,0.153,0.683,0.424,1.286,0.443h0.001l0.036,0.012c0.125,0.036,0.445,0.307,0.688,0.638c0.026,0.034,0.049,0.07,0.074,0.104
	c-0.108,0.357-0.276,0.987-0.326,1.742l-0.009,0.286c0,0.501,0.083,0.935,0.154,1.275c0.064,0.286,0.104,0.493,0.112,0.589
	c-0.081,0.046-0.218,0.123-0.419,0.278c-0.389,0.324-0.543,0.729-0.649,1.091c-0.151,0.548-0.196,1.098-0.29,1.499
	c-0.043,0.199-0.099,0.35-0.141,0.423l-0.041,0.058c-0.199,0.084-0.379,0.14-0.581,0.211c-0.288,0.099-0.707,0.282-0.992,0.684
	c-0.28,0.396-0.406,0.853-0.514,1.501l1.506,0.244c0.059-0.369,0.126-0.604,0.18-0.729c0.097-0.188,0.057-0.124,0.162-0.193
	c0.108-0.06,0.414-0.138,0.827-0.31l0.006-0.002c0.498-0.208,0.771-0.636,0.912-0.999c0.215-0.556,0.259-1.117,0.346-1.572
	c0.041-0.226,0.088-0.42,0.137-0.549l0.094-0.171c0.072-0.064,0.197-0.113,0.438-0.28c0.117-0.083,0.264-0.216,0.373-0.402
	c0.11-0.185,0.168-0.403,0.18-0.611l0.002-0.106c-0.005-0.374-0.092-0.659-0.154-0.971c-0.02-0.096-0.02-0.199-0.036-0.295
	c0.014,0.022,0.019,0.035,0.035,0.058c0.482,0.708,1.037,1.105,1.377,1.437c0.345,0.347,0.498,0.527,0.574,1.052l0.013,0.204
	c0.006,0.59-0.334,1.21-0.743,1.673l-0.003,0.002c-0.333,0.382-0.936,0.958-1.485,1.503c-0.275,0.276-0.538,0.544-0.762,0.798
	c-0.223,0.262-0.404,0.469-0.543,0.786c-0.113,0.295-0.43,0.828-0.435,1.573c-0.003,0.465,0.143,0.985,0.469,1.486
	c0.057,0.085,0.275,0.473,0.533,0.95c0.392,0.726,0.911,1.709,1.343,2.536c0.215,0.414,0.409,0.79,0.555,1.074
	c0.071,0.143,0.133,0.262,0.177,0.351l0.052,0.108l0.015,0.029l0.003,0.007l0.292,0.686l0.693-0.278
	c0.458-0.184,1.41-0.446,2.21-0.643c0.267-0.066,0.505-0.124,0.723-0.174c0.145,0.583,0.401,1.407,0.86,2.304
	c0.417,0.802,0.667,2.019,0.782,3.023c0.052,0.444,0.08,0.836,0.097,1.152C90.854,197.839,90.243,197.868,89.497,197.868
	 M90.279,176.895l-0.019,0.035l-0.104-0.038c-0.232-0.104-0.688-0.596-1.065-1.237c-0.248-0.412-0.318-0.727-0.318-0.947
	c0.007-0.365,0.169-0.509,0.313-0.576l0.002-0.002l0.131-0.024c0.246,0.004,0.734,0.192,0.948,1.076
	c0.111,0.479,0.175,0.928,0.175,1.254C90.345,176.666,90.309,176.831,90.279,176.895 M298.74,34.382
	c-11.222-9.263-26.115-14.549-40.947-14.552c-2.409,0-4.814,0.14-7.204,0.425c-14.271,1.701-24.119,6.322-31.5,11.663
	c-7.378,5.337-12.301,11.377-16.77,15.864c-4.569,4.596-10.084,11.938-16.243,18.746c-6.149,6.809-12.943,13.048-19.845,15.438
	c-5.233,1.82-10.376,2.189-15.53,2.189c-3.414,0-6.828-0.162-10.262-0.162c-5.201,0-10.455,0.375-15.777,2.301
	c-7.013,2.536-12.157,6.184-15.873,10.661c-3.717,4.474-6,9.755-7.368,15.529c-1.294,5.458-1.595,9.054-1.594,11.813
	c0.001,2.274,0.199,3.958,0.198,5.605c0,0.557-0.022,1.111-0.079,1.692c-0.667,6.699-3.634,11.101-6.542,15.24
	c-1.452,2.067-2.89,4.059-3.977,6.234c-1.087,2.171-1.817,4.54-1.815,7.281c0,0.912,0.079,1.864,0.25,2.862
	c0.22,1.287,0.368,3.089,0.367,4.873c0.01,2.221-0.252,4.46-0.769,5.545l0.058,0.027c-0.164,0.31-0.274,0.662-0.272,1.053
	c0.001,0.548,0.177,1.137,0.539,1.734c0.305,0.505,0.638,0.964,1.023,1.33c0.16,0.151,0.338,0.288,0.531,0.404
	c-0.058,0.131-0.116,0.264-0.149,0.387c-0.089,0.336-0.106,0.637-0.106,0.851c0,0.185,0.015,0.307,0.017,0.331l0.033,0.27
	l0.196,0.188c0,0.002,0.092,0.088,0.238,0.232c0.218,0.218,0.556,0.559,0.862,0.894c0.301,0.322,0.584,0.679,0.636,0.783
	c0.01,0.019,0.062,0.158,0.117,0.345c0.203,0.679,0.51,2.017,0.784,3.273c0.278,1.26,0.524,2.44,0.633,2.9l0.025,0.183l-0.016,0.093
	l-0.173,0.125c-0.127,0.063-0.327,0.124-0.557,0.175h0.002c-0.812,0.18-1.259,0.307-1.444,0.362l-0.455,0.1
	c-0.004,0-0.691,0.15-1.52,0.355c-0.575,0.145-1.2,0.309-1.742,0.479c-0.298-0.581-0.765-1.478-1.226-2.349
	c-0.273-0.518-0.54-1.019-0.76-1.422c-0.224-0.409-0.387-0.702-0.498-0.876c-0.187-0.295-0.222-0.482-0.224-0.655
	c-0.005-0.274,0.139-0.574,0.318-0.989c0.014-0.035,0.146-0.219,0.333-0.421c0.571-0.64,1.598-1.563,2.199-2.248l-0.003,0.001
	c0.548-0.626,1.117-1.537,1.124-2.68l-0.023-0.386c-0.097-0.917-0.585-1.561-1.036-1.975c-0.457-0.427-0.854-0.72-1.167-1.187
	c-0.377-0.558-0.468-0.791-0.507-0.923c-0.042-0.117-0.05-0.353-0.199-0.753c-0.161-0.408-0.462-0.93-0.878-1.436
	c-0.209-0.249-0.443-0.487-0.723-0.687c-0.278-0.194-0.617-0.366-1.043-0.374h0.001c-0.06,0.008-0.242-0.063-0.573-0.254
	c-0.321-0.175-0.801-0.436-1.439-0.436c-0.279,0-0.577,0.053-0.882,0.16l0.02-0.008l-0.023,0.008h0.002
	c-0.706,0.247-1.25,0.544-1.713,0.784c-0.465,0.242-0.835,0.417-1.244,0.501c-0.874,0.208-1.409,0.83-1.919,1.417
	c-0.495,0.595-0.943,1.228-1.272,1.545l0.001-0.001c-0.386,0.376-0.716,0.813-0.935,1.338c-0.221,0.522-0.326,1.115-0.325,1.788
	c0,0.31,0.022,0.638,0.063,0.99c0.11,0.912,0.279,1.798,0.638,2.602c0.356,0.802,0.938,1.526,1.8,1.97
	c1.425,0.726,2.601,1.241,3.108,1.85c0.054,0.055,0.146,0.225,0.221,0.396c-0.635,0.53-1.647,1.642-2.184,3.656
	c-0.448,1.693-0.89,4.888-0.944,8.787c-0.05,3.852-0.042,6.886-0.052,12.591c-0.001,0.247-0.001,0.486-0.001,0.719
	c0,3.781,0.064,5.696,0.246,7.516l0.019,0.193l0.111,0.164c0.162,0.229,0.364,0.361,0.555,0.454c0.29,0.131,0.596,0.203,0.925,0.244
	c0.046,0.444,0.092,1.054,0.092,1.779c0,0.672-0.04,1.424-0.152,2.187c-0.213,1.462-0.269,4.508-0.271,7.334
	c0,2.532,0.048,4.817,0.098,5.532c0.087,1.224,0.41,3.677,0.408,5.174c0,0.271-0.01,0.507-0.031,0.679
	c-0.015,0.202-0.219,0.713-0.445,1.207c-0.111,0.251-0.227,0.508-0.321,0.767c-0.091,0.262-0.175,0.514-0.179,0.84
	c0,0.192,0.037,0.442,0.207,0.681c0.753,1.049,1.903,2.349,2.955,3.468c0.526,0.559,1.025,1.068,1.436,1.477
	c0.415,0.407,0.723,0.698,0.93,0.866c0.269,0.209,0.58,0.354,0.975,0.491c0.391,0.134,0.842,0.236,1.322,0.237
	c0.438-0.001,0.937-0.088,1.365-0.437c0.436-0.347,0.667-0.937,0.657-1.557c0-0.035-0.009-0.078-0.01-0.113
	c0.296-0.363,0.566-0.657,0.8-1.013c0.235-0.352,0.417-0.814,0.411-1.321c-0.022-0.995-0.497-2.005-1.519-3.934
	c-0.005-0.066-0.012-0.204-0.011-0.404c-0.001-1.11,0.133-3.595,0.306-5.944c0.086-1.179,0.182-2.327,0.276-3.262
	c0.093-0.931,0.19-1.674,0.252-1.942c0.151-0.688,0.638-1.832,1.111-2.994c0.469-1.177,0.938-2.366,1.029-3.429
	c0.072-0.922,0.118-3.016,0.149-4.909c0.02-1.223,0.033-2.345,0.04-2.991c0.175-0.057,0.367-0.116,0.582-0.197
	c0.309-0.115,0.642-0.256,0.957-0.433c0.314-0.179,0.617-0.381,0.869-0.704l0.172-0.23l-0.022-0.287
	c-0.05-0.645-0.255-3.198-0.517-5.878c-0.131-1.338-0.276-2.707-0.423-3.887c-0.15-1.185-0.295-2.161-0.448-2.787
	c-0.286-1.142-0.478-2.935-0.679-4.796c0.174,0.003,0.353,0.008,0.517,0.008c1.577,0,2.653-0.129,2.675-0.132l0.687-0.083
	l-0.016-0.691c0-0.104-0.004-0.935-0.131-2.01c-0.06-0.488-0.146-1.024-0.268-1.567c0.235-0.045,0.489-0.093,0.753-0.149
	c0.506-0.106,1.04-0.229,1.515-0.366c0.481-0.144,0.878-0.27,1.234-0.498l0.005-0.003c0.582-0.387,1.006-0.895,1.261-1.454
	c0.258-0.559,0.353-1.155,0.353-1.739c-0.001-0.754-0.154-1.5-0.361-2.21c-0.301-1.023-0.805-2.76-1.231-4.411
	c-0.215-0.825-0.408-1.628-0.547-2.302c-0.139-0.671-0.218-1.235-0.215-1.479v-0.043l0.003-0.189
	c0.002-0.556-0.108-1.031-0.315-1.418c-0.314-0.588-0.805-0.893-1.141-1.087c-0.04-0.023-0.056-0.035-0.09-0.055
	c0.494-0.06,1.021-0.119,1.599-0.174c5.86-0.591,15.62-1.187,22.446-5.689c5.077-3.375,7.96-7.334,12.176-10.35
	c4.211-3.017,9.792-5.26,20.531-5.27c6.328,0,14.427,0.793,25.018,2.688c3.393,0.606,6.743,0.913,10.046,0.913
	c19.491,0.008,37.172-10.677,51.566-32.397c3.071-4.625,6.513-7.471,10.215-9.19c3.704-1.715,7.695-2.302,11.863-2.302
	c8.496-0.008,17.648,2.468,26.195,2.478c4.163,0,8.204-0.599,11.933-2.414c3.729-1.814,7.114-4.847,9.964-9.593
	c7.174-11.931,10.285-23.189,10.284-33.395C317.506,56.919,309.959,43.639,298.74,34.382"/>
<polygon fill="#010202" points="95.949,193.895 95.946,193.897 95.926,193.909 "/>
<polygon fill="#010202" points="82.17,182.068 82.165,182.07 82.138,182.082 "/>
</svg>
