<?xml version="1.0" encoding="utf-8"?>
<!-- Generator: Adobe Illustrator 15.0.0, SVG Export Plug-In . SVG Version: 6.00 Build 0)  -->
<!DOCTYPE svg PUBLIC "-//W3C//DTD SVG 1.1//EN" "http://www.w3.org/Graphics/SVG/1.1/DTD/svg11.dtd">
<svg version="1.1" id="Ebene_1" xmlns="http://www.w3.org/2000/svg" xmlns:xlink="http://www.w3.org/1999/xlink" x="0px" y="0px"
	 width="25px" height="25px" viewBox="0 0 25 25" enable-background="new 0 0 25 25" xml:space="preserve">
<path fill="#010202" d="M16.645,7.084c0.994,0,2.105,0.284,2.842,0.592l0.281-2.958c-1.372-0.355-2.199-0.475-3.384-0.475
	c-3.695,0-5.137,2.083-5.137,5.541v0.354H9.658v2.937h1.589v8.969h3.739v-8.969h2.105l0.76-2.937h-3.03V9.31
	C14.821,7.629,15.294,7.084,16.645,7.084z"/>
<path fill="#FFFFFF" d="M24,0H1C0.45,0,0,0.45,0,1v23c0,0.55,0.45,1,1,1h23c0.55,0,1-0.45,1-1V1C25,0.45,24.55,0,24,0z
	 M19.486,7.676c-0.736-0.308-1.848-0.592-2.842-0.592c-1.351,0-1.823,0.544-1.823,2.225v0.828h3.03l-0.76,2.937h-2.105v8.969h-3.739
	v-8.969H9.658v-2.937h1.589V9.783c0-3.457,1.442-5.541,5.137-5.541c1.185,0,2.012,0.12,3.384,0.475L19.486,7.676z"/>
</svg>
